<svg width="415" height="384" viewBox="0 0 415 384" fill="none" xmlns="http://www.w3.org/2000/svg">
<g filter="url(#filter0_d)">
<path d="M293.714 137.58C294.594 137.58 295.227 137.37 295.614 136.95C296 136.53 296.194 135.943 296.194 135.19C296.194 134.857 296.144 134.553 296.044 134.28C295.944 134.007 295.79 133.773 295.584 133.58C295.384 133.38 295.127 133.227 294.814 133.12C294.507 133.013 294.14 132.96 293.714 132.96H291.954V137.58H293.714ZM293.714 130.43C294.74 130.43 295.62 130.553 296.354 130.8C297.094 131.04 297.7 131.373 298.174 131.8C298.654 132.227 299.007 132.73 299.234 133.31C299.46 133.89 299.574 134.517 299.574 135.19C299.574 135.917 299.457 136.583 299.224 137.19C298.99 137.797 298.634 138.317 298.154 138.75C297.674 139.183 297.064 139.523 296.324 139.77C295.59 140.01 294.72 140.13 293.714 140.13H291.954V145H288.574V130.43H293.714ZM304.789 145H301.389V130.43H304.789V145ZM320.419 130.43V145H318.659C318.399 145 318.179 144.96 317.999 144.88C317.826 144.793 317.653 144.647 317.479 144.44L310.609 135.75C310.636 136.01 310.653 136.263 310.659 136.51C310.673 136.75 310.679 136.977 310.679 137.19V145H307.699V130.43H309.479C309.626 130.43 309.749 130.437 309.849 130.45C309.949 130.463 310.039 130.49 310.119 130.53C310.199 130.563 310.276 130.613 310.349 130.68C310.423 130.747 310.506 130.837 310.599 130.95L317.529 139.7C317.496 139.42 317.473 139.15 317.459 138.89C317.446 138.623 317.439 138.373 317.439 138.14V130.43H320.419Z" fill="#A6A7D5"/>
<path d="M158.714 104.58C159.594 104.58 160.227 104.37 160.614 103.95C161 103.53 161.194 102.943 161.194 102.19C161.194 101.857 161.144 101.553 161.044 101.28C160.944 101.007 160.79 100.773 160.584 100.58C160.384 100.38 160.127 100.227 159.814 100.12C159.507 100.013 159.14 99.96 158.714 99.96H156.954V104.58H158.714ZM158.714 97.43C159.74 97.43 160.62 97.5533 161.354 97.8C162.094 98.04 162.7 98.3733 163.174 98.8C163.654 99.2267 164.007 99.73 164.234 100.31C164.46 100.89 164.574 101.517 164.574 102.19C164.574 102.917 164.457 103.583 164.224 104.19C163.99 104.797 163.634 105.317 163.154 105.75C162.674 106.183 162.064 106.523 161.324 106.77C160.59 107.01 159.72 107.13 158.714 107.13H156.954V112H153.574V97.43H158.714ZM169.789 112H166.389V97.43H169.789V112ZM185.419 97.43V112H183.659C183.399 112 183.179 111.96 182.999 111.88C182.826 111.793 182.653 111.647 182.479 111.44L175.609 102.75C175.636 103.01 175.653 103.263 175.659 103.51C175.673 103.75 175.679 103.977 175.679 104.19V112H172.699V97.43H174.479C174.626 97.43 174.749 97.4367 174.849 97.45C174.949 97.4633 175.039 97.49 175.119 97.53C175.199 97.5633 175.276 97.6133 175.349 97.68C175.423 97.7467 175.506 97.8367 175.599 97.95L182.529 106.7C182.496 106.42 182.473 106.15 182.459 105.89C182.446 105.623 182.439 105.373 182.439 105.14V97.43H185.419Z" fill="#D5D5F2"/>
<path d="M83.7137 208.58C84.5937 208.58 85.227 208.37 85.6137 207.95C86.0003 207.53 86.1937 206.943 86.1937 206.19C86.1937 205.857 86.1437 205.553 86.0437 205.28C85.9437 205.007 85.7903 204.773 85.5837 204.58C85.3837 204.38 85.127 204.227 84.8137 204.12C84.507 204.013 84.1403 203.96 83.7137 203.96H81.9537V208.58H83.7137ZM83.7137 201.43C84.7403 201.43 85.6203 201.553 86.3537 201.8C87.0937 202.04 87.7003 202.373 88.1737 202.8C88.6537 203.227 89.007 203.73 89.2337 204.31C89.4603 204.89 89.5737 205.517 89.5737 206.19C89.5737 206.917 89.457 207.583 89.2237 208.19C88.9903 208.797 88.6337 209.317 88.1537 209.75C87.6737 210.183 87.0637 210.523 86.3237 210.77C85.5903 211.01 84.7203 211.13 83.7137 211.13H81.9537V216H78.5737V201.43H83.7137ZM94.7885 216H91.3885V201.43H94.7885V216ZM110.419 201.43V216H108.659C108.399 216 108.179 215.96 107.999 215.88C107.826 215.793 107.653 215.647 107.479 215.44L100.609 206.75C100.636 207.01 100.653 207.263 100.659 207.51C100.673 207.75 100.679 207.977 100.679 208.19V216H97.6995V201.43H99.4795C99.6261 201.43 99.7495 201.437 99.8495 201.45C99.9495 201.463 100.039 201.49 100.119 201.53C100.199 201.563 100.276 201.613 100.349 201.68C100.423 201.747 100.506 201.837 100.599 201.95L107.529 210.7C107.496 210.42 107.473 210.15 107.459 209.89C107.446 209.623 107.439 209.373 107.439 209.14V201.43H110.419Z" fill="#A6A7D5"/>
<path d="M319.714 206.58C320.594 206.58 321.227 206.37 321.614 205.95C322 205.53 322.194 204.943 322.194 204.19C322.194 203.857 322.144 203.553 322.044 203.28C321.944 203.007 321.79 202.773 321.584 202.58C321.384 202.38 321.127 202.227 320.814 202.12C320.507 202.013 320.14 201.96 319.714 201.96H317.954V206.58H319.714ZM319.714 199.43C320.74 199.43 321.62 199.553 322.354 199.8C323.094 200.04 323.7 200.373 324.174 200.8C324.654 201.227 325.007 201.73 325.234 202.31C325.46 202.89 325.574 203.517 325.574 204.19C325.574 204.917 325.457 205.583 325.224 206.19C324.99 206.797 324.634 207.317 324.154 207.75C323.674 208.183 323.064 208.523 322.324 208.77C321.59 209.01 320.72 209.13 319.714 209.13H317.954V214H314.574V199.43H319.714ZM330.789 214H327.389V199.43H330.789V214ZM346.419 199.43V214H344.659C344.399 214 344.179 213.96 343.999 213.88C343.826 213.793 343.653 213.647 343.479 213.44L336.609 204.75C336.636 205.01 336.653 205.263 336.659 205.51C336.673 205.75 336.679 205.977 336.679 206.19V214H333.699V199.43H335.479C335.626 199.43 335.749 199.437 335.849 199.45C335.949 199.463 336.039 199.49 336.119 199.53C336.199 199.563 336.276 199.613 336.349 199.68C336.423 199.747 336.506 199.837 336.599 199.95L343.529 208.7C343.496 208.42 343.473 208.15 343.459 207.89C343.446 207.623 343.439 207.373 343.439 207.14V199.43H346.419Z" fill="#1F45EA"/>
<path d="M194.714 293.58C195.594 293.58 196.227 293.37 196.614 292.95C197 292.53 197.194 291.943 197.194 291.19C197.194 290.857 197.144 290.553 197.044 290.28C196.944 290.007 196.79 289.773 196.584 289.58C196.384 289.38 196.127 289.227 195.814 289.12C195.507 289.013 195.14 288.96 194.714 288.96H192.954V293.58H194.714ZM194.714 286.43C195.74 286.43 196.62 286.553 197.354 286.8C198.094 287.04 198.7 287.373 199.174 287.8C199.654 288.227 200.007 288.73 200.234 289.31C200.46 289.89 200.574 290.517 200.574 291.19C200.574 291.917 200.457 292.583 200.224 293.19C199.99 293.797 199.634 294.317 199.154 294.75C198.674 295.183 198.064 295.523 197.324 295.77C196.59 296.01 195.72 296.13 194.714 296.13H192.954V301H189.574V286.43H194.714ZM205.789 301H202.389V286.43H205.789V301ZM221.419 286.43V301H219.659C219.399 301 219.179 300.96 218.999 300.88C218.826 300.793 218.653 300.647 218.479 300.44L211.609 291.75C211.636 292.01 211.653 292.263 211.659 292.51C211.673 292.75 211.679 292.977 211.679 293.19V301H208.699V286.43H210.479C210.626 286.43 210.749 286.437 210.849 286.45C210.949 286.463 211.039 286.49 211.119 286.53C211.199 286.563 211.276 286.613 211.349 286.68C211.423 286.747 211.506 286.837 211.599 286.95L218.529 295.7C218.496 295.42 218.473 295.15 218.459 294.89C218.446 294.623 218.439 294.373 218.439 294.14V286.43H221.419Z" fill="#D5D5F2"/>
<path d="M56.1716 16.994C32.9895 32.9004 27.0711 64.6978 42.9775 87.8799C48.6918 96.2078 56.5479 102.448 65.5592 106.14L67.4631 95.9299C68.051 92.7529 72.2089 91.8609 74.044 94.5354L86.4066 112.553C87.5439 114.21 87.1217 116.479 85.4641 117.616L67.447 129.978C64.7845 131.805 61.2129 129.51 61.8085 126.31L64.2136 113.388C53.3176 109.258 43.7959 101.946 36.9718 92.0007C18.7934 65.5075 25.5575 29.1667 52.0507 10.9883C56.7472 7.76575 61.8909 5.25514 67.3373 3.52031C69.2457 2.9116 71.2907 3.95231 71.9158 5.88475C72.5233 7.79993 71.4678 9.84913 69.5486 10.4593C64.7782 11.9777 60.2795 14.1753 56.1716 16.994Z" fill="#D8E3E8"/>
<path d="M358.333 259.994C381.515 275.9 387.433 307.698 371.527 330.88C365.812 339.208 357.956 345.448 348.945 349.14L347.041 338.93C346.453 335.753 342.295 334.861 340.46 337.535L328.098 355.553C326.96 357.21 327.382 359.479 329.04 360.616L347.057 372.978C349.72 374.805 353.291 372.51 352.696 369.31L350.291 356.388C361.187 352.258 370.708 344.946 377.532 335.001C395.711 308.508 388.947 272.167 362.453 253.988C357.757 250.766 352.613 248.255 347.167 246.52C345.258 245.912 343.213 246.952 342.588 248.885C341.981 250.8 343.036 252.849 344.956 253.459C349.726 254.978 354.225 257.175 358.333 259.994Z" fill="#D8E3E8"/>
<path d="M165.09 180.798H154.056L183.923 150.932L177.889 144.898L148.023 174.765V163.732H139.49V185.065C139.49 187.423 141.398 189.332 143.756 189.332H165.09V180.798Z" fill="black"/>
<path d="M233.356 214.932V193.598H224.823V204.632L194.956 174.765L188.923 180.798L218.79 210.665H207.756V219.198H229.09C231.448 219.198 233.356 217.29 233.356 214.932Z" fill="black"/>
<path d="M204.29 164.182L222.723 174.924L227.019 167.553L217.488 161.996L258.335 151.245L256.164 142.99L215.317 153.742L220.872 144.211L213.502 139.915L202.752 158.344C202.186 159.324 202.027 160.486 202.315 161.582C202.602 162.673 203.315 163.611 204.29 164.182Z" fill="black"/>
<path d="M272.51 229.273L268.89 208.248C268.49 205.932 266.319 204.382 263.96 204.769L242.935 208.39L244.386 216.799L255.258 214.927L230.894 249.428L237.864 254.349L262.229 219.847L264.102 230.724L272.51 229.273Z" fill="black"/>
<path d="M202.89 219.469L194.736 221.982L197.985 232.526L160.64 212.782L156.652 220.327L193.992 240.069L183.452 243.319L185.965 251.473L206.353 245.19C208.603 244.494 209.865 242.107 209.173 239.853L202.89 219.469Z" fill="black"/>
<path d="M182.156 155.199C186.869 155.199 190.689 151.378 190.689 146.665C190.689 141.952 186.869 138.132 182.156 138.132C177.443 138.132 173.623 141.952 173.623 146.665C173.623 151.378 177.443 155.199 182.156 155.199Z" fill="#21B6AF"/>
<path d="M190.69 185.065C195.402 185.065 199.223 181.245 199.223 176.532C199.223 171.819 195.402 167.999 190.69 167.999C185.977 167.999 182.156 171.819 182.156 176.532C182.156 181.245 185.977 185.065 190.69 185.065Z" fill="#21B6AF"/>
<path d="M258.958 155.2C263.67 155.2 267.491 151.379 267.491 146.667C267.491 141.954 263.67 138.133 258.958 138.133C254.245 138.133 250.424 141.954 250.424 146.667C250.424 151.379 254.245 155.2 258.958 155.2Z" fill="#21B6AF"/>
<path d="M233.358 261.867C238.071 261.867 241.891 258.046 241.891 253.334C241.891 248.621 238.071 244.8 233.358 244.8C228.645 244.8 224.824 248.621 224.824 253.334C224.824 258.046 228.645 261.867 233.358 261.867Z" fill="#21B6AF"/>
<path d="M157.086 224.261C161.799 224.261 165.62 220.44 165.62 215.727C165.62 211.014 161.799 207.194 157.086 207.194C152.373 207.194 148.553 211.014 148.553 215.727C148.553 220.44 152.373 224.261 157.086 224.261Z" fill="#21B6AF"/>
</g>
<defs>
<filter id="filter0_d" x="0" y="0" width="414.504" height="383.042" filterUnits="userSpaceOnUse" color-interpolation-filters="sRGB">
<feFlood flood-opacity="0" result="BackgroundImageFix"/>
<feColorMatrix in="SourceAlpha" type="matrix" values="0 0 0 0 0 0 0 0 0 0 0 0 0 0 0 0 0 0 127 0"/>
<feOffset dy="4"/>
<feGaussianBlur stdDeviation="2"/>
<feColorMatrix type="matrix" values="0 0 0 0 0 0 0 0 0 0 0 0 0 0 0 0 0 0 0.25 0"/>
<feBlend mode="normal" in2="BackgroundImageFix" result="effect1_dropShadow"/>
<feBlend mode="normal" in="SourceGraphic" in2="effect1_dropShadow" result="shape"/>
</filter>
</defs>
</svg>
