<svg width="47" height="55" viewBox="0 0 47 55" fill="none" xmlns="http://www.w3.org/2000/svg">
<path d="M30.9703 0.0900991L46.6917 27.2368L15.564 27.417L30.9703 0.0900991Z" fill="#7B94FF"/>
<path d="M15.5641 27.417L31.283 54.1313L0.155273 54.3115L15.5641 27.417Z" fill="#7B94FF"/>
<path d="M33.9364 31.7525L33.9695 37.4724C33.9731 38.0858 33.9399 38.696 33.8701 39.303C33.8003 39.9035 33.7072 40.5173 33.5908 41.1447L31.4908 41.1568C31.3672 40.5309 31.267 39.9181 31.1902 39.3186C31.1133 38.7123 31.0731 38.1025 31.0696 37.4892L31.0365 31.7693L33.9364 31.7525ZM30.7717 44.7711C30.7703 44.5311 30.8124 44.3075 30.8978 44.1003C30.99 43.8931 31.1123 43.7124 31.2647 43.5582C31.4238 43.4039 31.6098 43.2829 31.8226 43.195C32.0354 43.1004 32.2685 43.0524 32.5218 43.0509C32.7685 43.0495 32.9987 43.0948 33.2126 43.1869C33.4264 43.2723 33.6138 43.3913 33.7747 43.5437C33.9356 43.6961 34.0599 43.8754 34.1478 44.0815C34.2423 44.2876 34.2903 44.5107 34.2917 44.7507C34.2931 44.9907 34.2477 45.2176 34.1556 45.4315C34.0701 45.6387 33.9479 45.8194 33.7887 45.9736C33.6296 46.1279 33.4437 46.249 33.2308 46.3369C33.018 46.4248 32.7883 46.4694 32.5416 46.4709C32.2883 46.4723 32.0547 46.4303 31.8409 46.3449C31.627 46.2595 31.4397 46.1406 31.2788 45.9882C31.1246 45.8357 31.0002 45.6564 30.9057 45.4503C30.8178 45.2375 30.7731 45.0111 30.7717 44.7711Z" fill="#A4B5FF"/>
</svg>
