<svg width="407" height="376" viewBox="0 0 407 376" fill="none" xmlns="http://www.w3.org/2000/svg">
<path d="M289.714 137.58C290.594 137.58 291.227 137.37 291.614 136.95C292 136.53 292.194 135.943 292.194 135.19C292.194 134.857 292.144 134.553 292.044 134.28C291.944 134.007 291.79 133.773 291.584 133.58C291.384 133.38 291.127 133.227 290.814 133.12C290.507 133.013 290.14 132.96 289.714 132.96H287.954V137.58H289.714ZM289.714 130.43C290.74 130.43 291.62 130.553 292.354 130.8C293.094 131.04 293.7 131.373 294.174 131.8C294.654 132.227 295.007 132.73 295.234 133.31C295.46 133.89 295.574 134.517 295.574 135.19C295.574 135.917 295.457 136.583 295.224 137.19C294.99 137.797 294.634 138.317 294.154 138.75C293.674 139.183 293.064 139.523 292.324 139.77C291.59 140.01 290.72 140.13 289.714 140.13H287.954V145H284.574V130.43H289.714ZM300.789 145H297.389V130.43H300.789V145ZM316.419 130.43V145H314.659C314.399 145 314.179 144.96 313.999 144.88C313.826 144.793 313.653 144.647 313.479 144.44L306.609 135.75C306.636 136.01 306.653 136.263 306.659 136.51C306.673 136.75 306.679 136.977 306.679 137.19V145H303.699V130.43H305.479C305.626 130.43 305.749 130.437 305.849 130.45C305.949 130.463 306.039 130.49 306.119 130.53C306.199 130.563 306.276 130.613 306.349 130.68C306.423 130.747 306.506 130.837 306.599 130.95L313.529 139.7C313.496 139.42 313.473 139.15 313.459 138.89C313.446 138.623 313.439 138.373 313.439 138.14V130.43H316.419Z" fill="#A6A7D5"/>
<path d="M154.714 104.58C155.594 104.58 156.227 104.37 156.614 103.95C157 103.53 157.194 102.943 157.194 102.19C157.194 101.857 157.144 101.553 157.044 101.28C156.944 101.007 156.79 100.773 156.584 100.58C156.384 100.38 156.127 100.227 155.814 100.12C155.507 100.013 155.14 99.96 154.714 99.96H152.954V104.58H154.714ZM154.714 97.43C155.74 97.43 156.62 97.5533 157.354 97.8C158.094 98.04 158.7 98.3733 159.174 98.8C159.654 99.2267 160.007 99.73 160.234 100.31C160.46 100.89 160.574 101.517 160.574 102.19C160.574 102.917 160.457 103.583 160.224 104.19C159.99 104.797 159.634 105.317 159.154 105.75C158.674 106.183 158.064 106.523 157.324 106.77C156.59 107.01 155.72 107.13 154.714 107.13H152.954V112H149.574V97.43H154.714ZM165.789 112H162.389V97.43H165.789V112ZM181.419 97.43V112H179.659C179.399 112 179.179 111.96 178.999 111.88C178.826 111.793 178.653 111.647 178.479 111.44L171.609 102.75C171.636 103.01 171.653 103.263 171.659 103.51C171.673 103.75 171.679 103.977 171.679 104.19V112H168.699V97.43H170.479C170.626 97.43 170.749 97.4367 170.849 97.45C170.949 97.4633 171.039 97.49 171.119 97.53C171.199 97.5633 171.276 97.6133 171.349 97.68C171.423 97.7467 171.506 97.8367 171.599 97.95L178.529 106.7C178.496 106.42 178.473 106.15 178.459 105.89C178.446 105.623 178.439 105.373 178.439 105.14V97.43H181.419Z" fill="#D5D5F2"/>
<path d="M79.7137 208.58C80.5937 208.58 81.227 208.37 81.6137 207.95C82.0003 207.53 82.1937 206.943 82.1937 206.19C82.1937 205.857 82.1437 205.553 82.0437 205.28C81.9437 205.007 81.7903 204.773 81.5837 204.58C81.3837 204.38 81.127 204.227 80.8137 204.12C80.507 204.013 80.1403 203.96 79.7137 203.96H77.9537V208.58H79.7137ZM79.7137 201.43C80.7403 201.43 81.6203 201.553 82.3537 201.8C83.0937 202.04 83.7003 202.373 84.1737 202.8C84.6537 203.227 85.007 203.73 85.2337 204.31C85.4603 204.89 85.5737 205.517 85.5737 206.19C85.5737 206.917 85.457 207.583 85.2237 208.19C84.9903 208.797 84.6337 209.317 84.1537 209.75C83.6737 210.183 83.0637 210.523 82.3237 210.77C81.5903 211.01 80.7203 211.13 79.7137 211.13H77.9537V216H74.5737V201.43H79.7137ZM90.7885 216H87.3885V201.43H90.7885V216ZM106.419 201.43V216H104.659C104.399 216 104.179 215.96 103.999 215.88C103.826 215.793 103.653 215.647 103.479 215.44L96.6095 206.75C96.6361 207.01 96.6528 207.263 96.6595 207.51C96.6728 207.75 96.6795 207.977 96.6795 208.19V216H93.6995V201.43H95.4795C95.6261 201.43 95.7495 201.437 95.8495 201.45C95.9495 201.463 96.0395 201.49 96.1195 201.53C96.1995 201.563 96.2761 201.613 96.3495 201.68C96.4228 201.747 96.5061 201.837 96.5995 201.95L103.529 210.7C103.496 210.42 103.473 210.15 103.459 209.89C103.446 209.623 103.439 209.373 103.439 209.14V201.43H106.419Z" fill="#A6A7D5"/>
<path d="M315.714 206.58C316.594 206.58 317.227 206.37 317.614 205.95C318 205.53 318.194 204.943 318.194 204.19C318.194 203.857 318.144 203.553 318.044 203.28C317.944 203.007 317.79 202.773 317.584 202.58C317.384 202.38 317.127 202.227 316.814 202.12C316.507 202.013 316.14 201.96 315.714 201.96H313.954V206.58H315.714ZM315.714 199.43C316.74 199.43 317.62 199.553 318.354 199.8C319.094 200.04 319.7 200.373 320.174 200.8C320.654 201.227 321.007 201.73 321.234 202.31C321.46 202.89 321.574 203.517 321.574 204.19C321.574 204.917 321.457 205.583 321.224 206.19C320.99 206.797 320.634 207.317 320.154 207.75C319.674 208.183 319.064 208.523 318.324 208.77C317.59 209.01 316.72 209.13 315.714 209.13H313.954V214H310.574V199.43H315.714ZM326.789 214H323.389V199.43H326.789V214ZM342.419 199.43V214H340.659C340.399 214 340.179 213.96 339.999 213.88C339.826 213.793 339.653 213.647 339.479 213.44L332.609 204.75C332.636 205.01 332.653 205.263 332.659 205.51C332.673 205.75 332.679 205.977 332.679 206.19V214H329.699V199.43H331.479C331.626 199.43 331.749 199.437 331.849 199.45C331.949 199.463 332.039 199.49 332.119 199.53C332.199 199.563 332.276 199.613 332.349 199.68C332.423 199.747 332.506 199.837 332.599 199.95L339.529 208.7C339.496 208.42 339.473 208.15 339.459 207.89C339.446 207.623 339.439 207.373 339.439 207.14V199.43H342.419Z" fill="#1F45EA"/>
<path d="M190.714 293.58C191.594 293.58 192.227 293.37 192.614 292.95C193 292.53 193.194 291.943 193.194 291.19C193.194 290.857 193.144 290.553 193.044 290.28C192.944 290.007 192.79 289.773 192.584 289.58C192.384 289.38 192.127 289.227 191.814 289.12C191.507 289.013 191.14 288.96 190.714 288.96H188.954V293.58H190.714ZM190.714 286.43C191.74 286.43 192.62 286.553 193.354 286.8C194.094 287.04 194.7 287.373 195.174 287.8C195.654 288.227 196.007 288.73 196.234 289.31C196.46 289.89 196.574 290.517 196.574 291.19C196.574 291.917 196.457 292.583 196.224 293.19C195.99 293.797 195.634 294.317 195.154 294.75C194.674 295.183 194.064 295.523 193.324 295.77C192.59 296.01 191.72 296.13 190.714 296.13H188.954V301H185.574V286.43H190.714ZM201.789 301H198.389V286.43H201.789V301ZM217.419 286.43V301H215.659C215.399 301 215.179 300.96 214.999 300.88C214.826 300.793 214.653 300.647 214.479 300.44L207.609 291.75C207.636 292.01 207.653 292.263 207.659 292.51C207.673 292.75 207.679 292.977 207.679 293.19V301H204.699V286.43H206.479C206.626 286.43 206.749 286.437 206.849 286.45C206.949 286.463 207.039 286.49 207.119 286.53C207.199 286.563 207.276 286.613 207.349 286.68C207.423 286.747 207.506 286.837 207.599 286.95L214.529 295.7C214.496 295.42 214.473 295.15 214.459 294.89C214.446 294.623 214.439 294.373 214.439 294.14V286.43H217.419Z" fill="#D5D5F2"/>
<path d="M52.1716 16.994C28.9895 32.9004 23.0711 64.6978 38.9775 87.8799C44.6918 96.2078 52.5479 102.448 61.5592 106.14L63.4631 95.9299C64.051 92.7529 68.2089 91.8609 70.044 94.5354L82.4066 112.553C83.5439 114.21 83.1217 116.479 81.4641 117.616L63.447 129.978C60.7845 131.805 57.2129 129.51 57.8085 126.31L60.2136 113.388C49.3176 109.258 39.7959 101.946 32.9718 92.0007C14.7934 65.5075 21.5575 29.1667 48.0507 10.9883C52.7472 7.76575 57.8909 5.25514 63.3373 3.52031C65.2457 2.9116 67.2907 3.95231 67.9158 5.88475C68.5233 7.79993 67.4678 9.84913 65.5486 10.4593C60.7782 11.9777 56.2795 14.1753 52.1716 16.994Z" fill="#D8E3E8"/>
<path d="M354.333 259.994C377.515 275.9 383.433 307.698 367.527 330.88C361.812 339.208 353.956 345.448 344.945 349.14L343.041 338.93C342.453 335.753 338.295 334.861 336.46 337.535L324.098 355.553C322.96 357.21 323.382 359.479 325.04 360.616L343.057 372.978C345.72 374.805 349.291 372.51 348.696 369.31L346.291 356.388C357.187 352.258 366.708 344.946 373.532 335.001C391.711 308.508 384.947 272.167 358.453 253.988C353.757 250.766 348.613 248.255 343.167 246.52C341.258 245.912 339.213 246.952 338.588 248.885C337.981 250.8 339.036 252.849 340.956 253.459C345.726 254.978 350.225 257.175 354.333 259.994Z" fill="#D8E3E8"/>
<path d="M161.09 180.798H150.056L179.923 150.932L173.889 144.898L144.023 174.765V163.732H135.49V185.065C135.49 187.423 137.398 189.332 139.756 189.332H161.09V180.798Z" fill="black"/>
<path d="M229.356 214.932V193.598H220.823V204.632L190.956 174.765L184.923 180.798L214.79 210.665H203.756V219.198H225.09C227.448 219.198 229.356 217.29 229.356 214.932Z" fill="black"/>
<path d="M200.29 164.182L218.723 174.924L223.019 167.553L213.488 161.996L254.335 151.245L252.164 142.99L211.317 153.742L216.872 144.211L209.502 139.915L198.752 158.344C198.186 159.324 198.027 160.486 198.315 161.582C198.602 162.673 199.315 163.611 200.29 164.182Z" fill="black"/>
<path d="M268.51 229.273L264.89 208.248C264.49 205.932 262.319 204.382 259.96 204.769L238.935 208.39L240.386 216.799L251.258 214.927L226.894 249.428L233.864 254.349L258.229 219.847L260.102 230.724L268.51 229.273Z" fill="black"/>
<path d="M198.89 219.469L190.736 221.982L193.985 232.526L156.64 212.782L152.652 220.327L189.992 240.069L179.452 243.319L181.965 251.473L202.353 245.19C204.603 244.494 205.865 242.107 205.173 239.853L198.89 219.469Z" fill="black"/>
<path d="M178.156 155.199C182.869 155.199 186.689 151.378 186.689 146.665C186.689 141.952 182.869 138.132 178.156 138.132C173.443 138.132 169.623 141.952 169.623 146.665C169.623 151.378 173.443 155.199 178.156 155.199Z" fill="#21B6AF"/>
<path d="M186.69 185.065C191.402 185.065 195.223 181.245 195.223 176.532C195.223 171.819 191.402 167.999 186.69 167.999C181.977 167.999 178.156 171.819 178.156 176.532C178.156 181.245 181.977 185.065 186.69 185.065Z" fill="#21B6AF"/>
<path d="M254.958 155.2C259.67 155.2 263.491 151.379 263.491 146.667C263.491 141.954 259.67 138.133 254.958 138.133C250.245 138.133 246.424 141.954 246.424 146.667C246.424 151.379 250.245 155.2 254.958 155.2Z" fill="#21B6AF"/>
<path d="M229.358 261.867C234.071 261.867 237.891 258.046 237.891 253.334C237.891 248.621 234.071 244.8 229.358 244.8C224.645 244.8 220.824 248.621 220.824 253.334C220.824 258.046 224.645 261.867 229.358 261.867Z" fill="#21B6AF"/>
<path d="M153.086 224.261C157.799 224.261 161.62 220.44 161.62 215.727C161.62 211.014 157.799 207.194 153.086 207.194C148.373 207.194 144.553 211.014 144.553 215.727C144.553 220.44 148.373 224.261 153.086 224.261Z" fill="#21B6AF"/>
</svg>
