<svg width="286" height="286" viewBox="0 0 286 286" fill="none" xmlns="http://www.w3.org/2000/svg">
<g clip-path="url(#clip0)">
<path d="M214.5 174.281C214.5 181.655 220.488 187.688 227.906 187.688V192.156C227.906 197.027 223.884 201.094 218.969 201.094H214.5H111.719C106.803 201.094 102.781 197.027 102.781 192.156V111.719V13.4062C102.781 8.49062 106.803 4.46875 111.719 4.46875H218.969C223.884 4.46875 227.906 8.49062 227.906 13.4062V79.8566V80.4375C220.488 80.4375 214.5 86.4256 214.5 93.8438C214.5 101.217 220.488 107.25 227.906 107.25C220.488 107.25 214.5 113.238 214.5 120.656C214.5 128.03 220.488 134.062 227.906 134.062C220.488 134.062 214.5 140.051 214.5 147.469C214.5 154.842 220.488 160.875 227.906 160.875C220.488 160.875 214.5 166.863 214.5 174.281Z" fill="#1F45EA"/>
<path d="M227.906 107.25H232.375H232.733C239.972 107.384 245.781 113.372 245.781 120.612C245.781 128.03 239.793 134.018 232.375 134.018H227.906V134.062C220.488 134.062 214.5 128.03 214.5 120.656C214.5 113.238 220.488 107.25 227.906 107.25Z" fill="#EAC6BB"/>
<path d="M232.375 107.25H227.906C220.488 107.25 214.5 101.217 214.5 93.8438C214.5 86.4256 220.488 80.4375 227.906 80.4375H232.375C239.793 80.4375 245.781 86.4256 245.781 93.8438C245.781 101.083 239.972 107.071 232.733 107.25C232.598 107.25 232.509 107.25 232.375 107.25Z" fill="#EAC6BB"/>
<path d="M227.906 134.018H232.375C239.793 134.018 245.781 140.051 245.781 147.424C245.781 154.395 240.508 160.071 233.76 160.736V160.96C233.313 160.92 232.822 160.875 232.375 160.875H227.906C220.488 160.875 214.5 154.842 214.5 147.469C214.5 140.051 220.488 134.063 227.906 134.063V134.018Z" fill="#EAC6BB"/>
<path d="M227.906 187.688C220.488 187.688 214.5 181.655 214.5 174.281C214.5 166.863 220.488 160.875 227.906 160.875H232.375C232.822 160.875 233.313 160.92 233.76 160.964C240.508 161.635 245.781 167.31 245.781 174.281C245.781 181.655 239.793 187.688 232.375 187.688H227.906Z" fill="#EAC6BB"/>
<path d="M165.344 187.688C170.259 187.688 174.281 183.666 174.281 178.75C174.281 173.79 170.259 169.812 165.344 169.812C160.428 169.812 156.406 173.79 156.406 178.75C156.406 183.666 160.428 187.688 165.344 187.688Z" fill="black"/>
<path d="M165.344 169.812C170.259 169.812 174.281 173.79 174.281 178.75C174.281 183.666 170.259 187.688 165.344 187.688C160.428 187.688 156.406 183.666 156.406 178.75C156.406 173.79 160.428 169.812 165.344 169.812Z" fill="#4A89DC"/>
<path d="M214.5 201.094L160.875 260.528L75.9688 230.99V84.9062C90.805 84.9062 102.781 96.8825 102.781 111.719V192.156C102.781 197.027 106.803 201.094 111.719 201.094H214.5Z" fill="#EAC6BB"/>
<path d="M67.0312 227.906L75.9688 230.99L160.875 260.528L169.812 263.656L160.875 281.531H40.2188L67.0312 227.906Z" fill="#656D78"/>
<path d="M71.6295 259.183C69.1583 259.183 67.1384 257.186 67.1384 254.714C67.1384 252.243 69.1136 250.246 71.5804 250.246H71.6295C74.0963 250.246 76.0983 252.243 76.0983 254.714C76.0983 257.186 74.0963 259.183 71.6295 259.183Z" fill="#FFCE54"/>
<path d="M152.072 26.8125C149.6 26.8125 147.581 24.815 147.581 22.3438C147.581 19.8725 149.556 17.875 152.023 17.875H152.072C154.538 17.875 156.54 19.8725 156.54 22.3438C156.54 24.815 154.538 26.8125 152.072 26.8125Z" fill="#4A89DC"/>
<path d="M178.75 26.8125H165.344C162.873 26.8125 160.875 24.815 160.875 22.3438C160.875 19.8725 162.873 17.875 165.344 17.875H178.75C181.221 17.875 183.219 19.8725 183.219 22.3438C183.219 24.815 181.221 26.8125 178.75 26.8125Z" fill="#4A89DC"/>
<g clip-path="url(#clip1)">
<path d="M161.866 60.8867L168.714 72.7502H155.018L161.866 60.8867Z" fill="white"/>
<path d="M155.018 72.7502L161.866 84.6138H148.169L155.018 72.7502Z" fill="white"/>
<path d="M168.715 72.7502L175.563 84.6138H161.866L168.715 72.7502Z" fill="white"/>
<path d="M175.563 84.6138L182.411 72.7502H168.715L175.563 84.6138Z" fill="#CCCDFF"/>
</g>
<path d="M154.686 116.43L153.336 112.44C153.236 112.187 153.129 111.89 153.016 111.55C152.902 111.203 152.789 110.83 152.676 110.43C152.576 110.837 152.469 111.213 152.356 111.56C152.242 111.907 152.136 112.207 152.036 112.46L150.696 116.43H154.686ZM160.056 122H157.436C157.142 122 156.906 121.933 156.726 121.8C156.546 121.66 156.409 121.483 156.316 121.27L155.456 118.73H149.916L149.056 121.27C148.982 121.457 148.849 121.627 148.656 121.78C148.469 121.927 148.236 122 147.956 122H145.316L150.956 107.43H154.416L160.056 122ZM166.445 114.58C167.325 114.58 167.958 114.37 168.345 113.95C168.731 113.53 168.925 112.943 168.925 112.19C168.925 111.857 168.875 111.553 168.775 111.28C168.675 111.007 168.521 110.773 168.315 110.58C168.115 110.38 167.858 110.227 167.545 110.12C167.238 110.013 166.871 109.96 166.445 109.96H164.685V114.58H166.445ZM166.445 107.43C167.471 107.43 168.351 107.553 169.085 107.8C169.825 108.04 170.431 108.373 170.905 108.8C171.385 109.227 171.738 109.73 171.965 110.31C172.191 110.89 172.305 111.517 172.305 112.19C172.305 112.917 172.188 113.583 171.955 114.19C171.721 114.797 171.365 115.317 170.885 115.75C170.405 116.183 169.795 116.523 169.055 116.77C168.321 117.01 167.451 117.13 166.445 117.13H164.685V122H161.305V107.43H166.445ZM179.259 114.58C180.139 114.58 180.773 114.37 181.159 113.95C181.546 113.53 181.739 112.943 181.739 112.19C181.739 111.857 181.689 111.553 181.589 111.28C181.489 111.007 181.336 110.773 181.129 110.58C180.929 110.38 180.673 110.227 180.359 110.12C180.053 110.013 179.686 109.96 179.259 109.96H177.499V114.58H179.259ZM179.259 107.43C180.286 107.43 181.166 107.553 181.899 107.8C182.639 108.04 183.246 108.373 183.719 108.8C184.199 109.227 184.553 109.73 184.779 110.31C185.006 110.89 185.119 111.517 185.119 112.19C185.119 112.917 185.003 113.583 184.769 114.19C184.536 114.797 184.179 115.317 183.699 115.75C183.219 116.183 182.609 116.523 181.869 116.77C181.136 117.01 180.266 117.13 179.259 117.13H177.499V122H174.119V107.43H179.259Z" fill="white"/>
</g>
<defs>
<clipPath id="clip0">
<rect width="286" height="286" fill="white"/>
</clipPath>
<clipPath id="clip1">
<rect x="148.027" y="60.8867" width="34.6328" height="47.4805" fill="white"/>
</clipPath>
</defs>
</svg>
