<svg width="328" height="188" viewBox="0 0 328 188" fill="none" xmlns="http://www.w3.org/2000/svg">
<path d="M163.166 159.403C229.772 173.849 286.501 204.688 319.51 126.359C340.182 65.5177 289.069 56.6584 252.862 58.8749C-47.8673 77.285 60.7152 -10.5579 22.5386 16.285C-2.3073 33.7547 -2.79031 124.767 22.5386 145.808C51.7791 170.097 96.5604 144.957 163.166 159.403Z" fill="#0026CA"/>
<path d="M83.0726 74.6859L82.4816 72.4065C82.4452 72.2863 82.4071 72.1458 82.3675 71.9851C82.3311 71.8247 82.2976 71.6512 82.2669 71.4645C82.2043 71.6465 82.1396 71.8149 82.0727 71.9697C82.0094 72.1215 81.9495 72.2535 81.8929 72.3657L80.9256 74.5004L83.0726 74.6859ZM85.3461 77.6476L84.1854 77.5473C84.0559 77.5361 83.9522 77.497 83.8743 77.4301C83.8001 77.3601 83.7472 77.2752 83.7157 77.1755L83.3467 75.7534L80.4674 75.5046L79.86 76.8423C79.8196 76.9225 79.7549 76.9938 79.6659 77.0564C79.5771 77.1156 79.4696 77.1398 79.3434 77.1289L78.1728 77.0278L81.6218 70.0437L83.1511 70.1759L85.3461 77.6476ZM90.708 76.8863L90.603 78.1018L86.314 77.7312L86.9385 70.5031L88.4329 70.6323L87.9134 76.6449L90.708 76.8863ZM94.5727 74.7862C95.041 74.8267 95.3928 74.7433 95.6282 74.5362C95.8669 74.3293 96.0032 74.0299 96.037 73.638C96.0525 73.4587 96.0383 73.2935 95.9945 73.1425C95.9543 72.9885 95.8822 72.8551 95.7782 72.7424C95.6777 72.6267 95.5453 72.5332 95.3808 72.4622C95.2163 72.3911 95.0178 72.3455 94.7854 72.3254L93.8389 72.2436L93.6263 74.7044L94.5727 74.7862ZM94.8835 71.1896C95.3783 71.2324 95.8 71.3274 96.1487 71.4746C96.5006 71.6221 96.7838 71.8105 96.9982 72.0398C97.2128 72.2658 97.3626 72.5263 97.4476 72.8214C97.5358 73.1168 97.5654 73.4322 97.5364 73.7676C97.5057 74.1229 97.4195 74.4433 97.2777 74.7289C97.1359 75.0144 96.938 75.2532 96.6838 75.4454C96.4297 75.6376 96.1181 75.7779 95.7491 75.8665C95.3804 75.9517 94.9553 75.9736 94.4737 75.932L93.5273 75.8502L93.3125 78.3359L91.8181 78.2068L92.4426 70.9787L94.8835 71.1896ZM105.18 72.0793L104.555 79.3073L103.051 79.1773L103.32 76.0639L100.137 75.7889L99.8676 78.9023L98.3632 78.7723L98.9877 71.5443L100.492 71.6742L100.227 74.7428L103.41 75.0178L103.675 71.9493L105.18 72.0793ZM110.421 77.0489L109.83 74.7696C109.793 74.6493 109.755 74.5088 109.716 74.3482C109.679 74.1878 109.646 74.0142 109.615 73.8276C109.552 74.0095 109.488 74.1779 109.421 74.3327C109.358 74.4845 109.298 74.6165 109.241 74.7287L108.274 76.8634L110.421 77.0489ZM112.694 80.0106L111.534 79.9103C111.404 79.8991 111.3 79.86 111.222 79.7931C111.148 79.7231 111.095 79.6382 111.064 79.5385L110.695 78.1164L107.816 77.8677L107.208 79.2053C107.168 79.2855 107.103 79.3569 107.014 79.4194C106.925 79.4787 106.818 79.5028 106.692 79.4919L105.521 79.3908L108.97 72.4068L110.499 72.5389L112.694 80.0106Z" fill="#1F45EA"/>
<path d="M150.414 79.6113C150.882 79.6517 151.234 79.5684 151.469 79.3612C151.708 79.1543 151.844 78.8549 151.878 78.4631C151.894 78.2837 151.88 78.1186 151.836 77.9676C151.796 77.8135 151.723 77.6802 151.619 77.5675C151.519 77.4517 151.387 77.3583 151.222 77.2872C151.058 77.2161 150.859 77.1705 150.627 77.1504L149.68 77.0687L149.468 79.5295L150.414 79.6113ZM150.725 76.0147C151.22 76.0574 151.641 76.1524 151.99 76.2996C152.342 76.4472 152.625 76.6356 152.839 76.8649C153.054 77.0909 153.204 77.3514 153.289 77.6465C153.377 77.9418 153.407 78.2572 153.378 78.5926C153.347 78.948 153.261 79.2684 153.119 79.5539C152.977 79.8394 152.779 80.0783 152.525 80.2705C152.271 80.4626 151.959 80.603 151.59 80.6915C151.222 80.7768 150.797 80.7986 150.315 80.757L149.369 80.6752L149.154 83.161L147.659 83.0318L148.284 75.8038L150.725 76.0147ZM161.021 76.9043L160.396 84.1324L158.892 84.0024L159.161 80.889L155.978 80.614L155.709 83.7274L154.204 83.5974L154.829 76.3693L156.333 76.4993L156.068 79.5679L159.251 79.8429L159.517 76.7743L161.021 76.9043ZM163.713 84.419L162.209 84.289L162.834 77.0609L164.338 77.1909L163.713 84.419ZM169.918 83.7306L169.813 84.946L165.524 84.5754L166.149 77.3474L167.643 77.4765L167.123 83.4891L169.918 83.7306ZM175.422 84.2061L175.317 85.4216L171.028 85.051L171.653 77.823L173.147 77.9521L172.628 83.9647L175.422 84.2061Z" fill="#1F45EA"/>
<path d="M214.776 85.1875C214.73 85.7155 214.598 86.1976 214.38 86.6338C214.165 87.0702 213.88 87.4387 213.527 87.7394C213.176 88.0403 212.765 88.2658 212.294 88.4158C211.823 88.5624 211.31 88.6118 210.755 88.5639C210.201 88.516 209.704 88.3794 209.265 88.1541C208.826 87.9255 208.459 87.6327 208.162 87.2758C207.864 86.9189 207.646 86.5069 207.505 86.0398C207.368 85.5729 207.323 85.0755 207.368 84.5474C207.414 84.0194 207.544 83.5388 207.759 83.1057C207.977 82.6695 208.263 82.3011 208.617 82.0005C208.971 81.6998 209.384 81.4762 209.855 81.3295C210.326 81.1795 210.839 81.1285 211.394 81.1764C211.948 81.2243 212.445 81.3626 212.883 81.5912C213.322 81.8165 213.688 82.1091 213.982 82.469C214.279 82.8259 214.496 83.2378 214.633 83.7047C214.774 84.1685 214.821 84.6628 214.776 85.1875ZM213.247 85.0553C213.279 84.6767 213.259 84.3337 213.185 84.0262C213.111 83.7154 212.989 83.4472 212.818 83.2216C212.65 82.993 212.437 82.8123 212.177 82.6794C211.921 82.5436 211.624 82.461 211.285 82.4317C210.946 82.4025 210.638 82.4327 210.359 82.5223C210.08 82.6087 209.837 82.75 209.63 82.9461C209.426 83.1393 209.261 83.3827 209.135 83.6763C209.01 83.9665 208.93 84.301 208.898 84.6796C208.865 85.0615 208.885 85.4078 208.959 85.7187C209.032 86.0262 209.153 86.2925 209.321 86.5178C209.492 86.7434 209.708 86.9243 209.967 87.0604C210.226 87.1933 210.525 87.2743 210.864 87.3036C211.203 87.3329 211.51 87.3042 211.785 87.2175C212.064 87.1279 212.305 86.9865 212.509 86.7933C212.717 86.6004 212.883 86.3589 213.008 86.0686C213.134 85.775 213.214 85.4372 213.247 85.0553ZM224.448 82.3847L223.824 89.6128L222.504 89.4987L222.887 85.0603C222.895 84.9673 222.906 84.8678 222.918 84.7618C222.934 84.6561 222.953 84.5491 222.976 84.4406L220.57 88.1824C220.438 88.3885 220.255 88.4813 220.019 88.461L219.81 88.4429C219.694 88.4329 219.593 88.3974 219.508 88.3365C219.423 88.2723 219.359 88.1848 219.315 88.0739L217.577 83.9591C217.577 84.0762 217.576 84.1898 217.573 84.3C217.571 84.4068 217.565 84.5067 217.557 84.5997L217.174 89.0382L215.854 88.9241L216.478 81.6961L217.614 81.7942C217.677 81.7996 217.733 81.8062 217.783 81.8138C217.832 81.8214 217.875 81.8351 217.91 81.8549C217.949 81.8716 217.981 81.8979 218.008 81.9337C218.039 81.9664 218.067 82.0123 218.092 82.0714L219.781 86.1017C219.834 86.2234 219.882 86.348 219.925 86.4755C219.97 86.6032 220.013 86.734 220.051 86.8678C220.113 86.7393 220.175 86.6142 220.239 86.4926C220.307 86.3713 220.377 86.2553 220.45 86.1445L222.789 82.4773C222.824 82.4234 222.859 82.3829 222.895 82.3559C222.931 82.3256 222.968 82.3053 223.006 82.2952C223.047 82.282 223.091 82.2758 223.138 82.2765C223.188 82.2775 223.246 82.2809 223.313 82.2866L224.448 82.3847ZM229.682 87.3537L229.091 85.0744C229.054 84.9541 229.016 84.8136 228.977 84.653C228.94 84.4926 228.907 84.319 228.876 84.1324C228.814 84.3143 228.749 84.4827 228.682 84.6375C228.619 84.7893 228.559 84.9213 228.502 85.0335L227.535 87.1682L229.682 87.3537ZM231.955 90.3154L230.795 90.2151C230.665 90.2039 230.561 90.1648 230.484 90.0979C230.409 90.0279 230.356 89.943 230.325 89.8433L229.956 88.4213L227.077 88.1725L226.469 89.5101C226.429 89.5903 226.364 89.6617 226.275 89.7242C226.186 89.7835 226.079 89.8076 225.953 89.7967L224.782 89.6956L228.231 82.7116L229.76 82.8437L231.955 90.3154ZM239.74 83.706L239.115 90.934L237.611 90.8041L237.88 87.6907L234.697 87.4156L234.428 90.529L232.923 90.399L233.548 83.171L235.052 83.3009L234.787 86.3695L237.97 86.6446L238.235 83.576L239.74 83.706ZM244.981 88.6756L244.39 86.3963C244.353 86.276 244.315 86.1355 244.276 85.9749C244.239 85.8145 244.206 85.6409 244.175 85.4543C244.112 85.6362 244.048 85.8046 243.981 85.9594C243.918 86.1112 243.858 86.2432 243.801 86.3554L242.834 88.4901L244.981 88.6756ZM247.254 91.6373L246.094 91.537C245.964 91.5258 245.86 91.4868 245.782 91.4198C245.708 91.3498 245.655 91.2649 245.624 91.1652L245.255 89.7432L242.376 89.4944L241.768 90.832C241.728 90.9122 241.663 90.9836 241.574 91.0461C241.485 91.1054 241.378 91.1295 241.252 91.1186L240.081 91.0175L243.53 84.0335L245.059 84.1656L247.254 91.6373Z" fill="#1F45EA"/>
<path d="M77.1131 111.199C77.06 111.271 77.0069 111.323 76.954 111.355C76.9046 111.385 76.8417 111.396 76.7654 111.389C76.6923 111.383 76.6147 111.351 76.5327 111.294C76.4543 111.234 76.3612 111.169 76.2534 111.099C76.1457 111.03 76.0209 110.964 75.8791 110.901C75.7376 110.835 75.5688 110.794 75.3729 110.777C75.0275 110.747 74.7617 110.803 74.5755 110.944C74.3897 111.082 74.286 111.275 74.2644 111.525C74.2507 111.684 74.2857 111.821 74.3695 111.935C74.4569 112.046 74.5737 112.147 74.7198 112.236C74.8693 112.326 75.0395 112.41 75.2302 112.486C75.421 112.563 75.6162 112.647 75.8158 112.738C76.0156 112.825 76.2094 112.926 76.397 113.039C76.5846 113.152 76.7485 113.288 76.8886 113.448C77.0321 113.607 77.1411 113.797 77.2158 114.018C77.294 114.235 77.32 114.495 77.2939 114.797C77.2655 115.126 77.1807 115.43 77.0395 115.709C76.9019 115.985 76.7159 116.221 76.4814 116.419C76.2471 116.612 75.9653 116.757 75.6359 116.852C75.3098 116.948 74.9458 116.978 74.544 116.944C74.3148 116.924 74.0877 116.881 73.8625 116.815C73.6407 116.749 73.4272 116.665 73.2218 116.563C73.0197 116.462 72.8307 116.346 72.6548 116.213C72.4789 116.081 72.3274 115.938 72.2002 115.783L72.6997 115.113C72.7408 115.063 72.7927 115.024 72.8553 114.996C72.9183 114.965 72.983 114.952 73.0494 114.958C73.139 114.965 73.2308 115.007 73.3247 115.082C73.4186 115.157 73.5269 115.24 73.6495 115.331C73.7721 115.422 73.9153 115.508 74.0789 115.589C74.2458 115.67 74.4489 115.721 74.688 115.742C75.0367 115.772 75.3126 115.715 75.5156 115.572C75.722 115.43 75.8388 115.2 75.8661 114.885C75.8819 114.702 75.8465 114.55 75.7599 114.429C75.6767 114.308 75.562 114.203 75.4159 114.113C75.2697 114.024 75.1009 113.944 74.9096 113.874C74.7185 113.8 74.5229 113.722 74.3228 113.637C74.1226 113.553 73.9286 113.456 73.7407 113.346C73.5528 113.236 73.389 113.098 73.2495 112.932C73.1099 112.766 73.0017 112.566 72.9249 112.332C72.8515 112.098 72.8292 111.814 72.8582 111.478C72.8814 111.209 72.9571 110.953 73.0852 110.71C73.2133 110.467 73.3887 110.256 73.6115 110.078C73.8344 109.9 74.1004 109.764 74.4096 109.67C74.7221 109.577 75.0727 109.547 75.4612 109.58C75.8963 109.618 76.2922 109.721 76.6491 109.889C77.0096 110.054 77.3073 110.267 77.5424 110.528L77.1131 111.199ZM84.1153 111.623L82.0032 111.44L81.4828 117.463L79.9834 117.333L80.5038 111.311L78.3917 111.128L78.4958 109.923L84.2195 110.417L84.1153 111.623ZM87.3811 114.138C87.6235 114.159 87.8353 114.148 88.0165 114.103C88.1979 114.055 88.3497 113.983 88.4718 113.886C88.5942 113.787 88.6883 113.666 88.754 113.524C88.8198 113.383 88.8601 113.226 88.8751 113.053C88.9046 112.711 88.813 112.435 88.6002 112.226C88.3907 112.017 88.0535 111.893 87.5886 111.853L86.8115 111.786L86.6139 114.072L87.3811 114.138ZM90.5542 118.247L89.2042 118.13C88.9518 118.108 88.7775 117.996 88.6812 117.794L87.4979 115.458C87.4489 115.367 87.3912 115.299 87.3249 115.253C87.262 115.207 87.1641 115.179 87.0312 115.167L86.5231 115.123L86.2851 117.878L84.7907 117.749L85.4152 110.521L87.6867 110.717C88.1915 110.761 88.6187 110.851 88.9681 110.988C89.3179 111.122 89.5993 111.292 89.8124 111.498C90.0255 111.704 90.174 111.941 90.2579 112.209C90.342 112.474 90.3708 112.761 90.3441 113.069C90.3234 113.309 90.2689 113.533 90.1805 113.743C90.0957 113.95 89.981 114.136 89.8362 114.3C89.6915 114.465 89.5186 114.607 89.3176 114.727C89.1165 114.847 88.8912 114.938 88.6416 115C88.7333 115.062 88.8174 115.134 88.8938 115.218C88.9705 115.298 89.0376 115.392 89.0951 115.501L90.5542 118.247ZM98.3761 111.641L97.7515 118.869L96.9794 118.802C96.8632 118.792 96.7668 118.765 96.6902 118.722C96.614 118.675 96.5417 118.602 96.4733 118.502L93.2677 113.608C93.2676 113.725 93.2644 113.84 93.2579 113.954C93.2548 114.067 93.2491 114.172 93.2408 114.268L92.8797 118.448L91.5596 118.334L92.1841 111.106L92.9712 111.174C93.0343 111.179 93.0871 111.187 93.1297 111.197C93.1759 111.205 93.2165 111.22 93.2513 111.243C93.2864 111.263 93.3192 111.289 93.3498 111.322C93.3805 111.355 93.4136 111.398 93.4491 111.451L96.6779 116.367C96.6755 116.24 96.676 116.118 96.6794 116.001C96.6831 115.881 96.6895 115.767 96.6987 115.661L97.056 111.527L98.3761 111.641ZM103.399 115.648L105.88 115.862L105.622 118.846C105.23 119.083 104.82 119.247 104.39 119.337C103.964 119.424 103.519 119.447 103.054 119.407C102.46 119.356 101.93 119.218 101.464 118.994C100.998 118.766 100.609 118.473 100.295 118.115C99.9816 117.757 99.7513 117.344 99.6043 116.876C99.4574 116.408 99.407 115.907 99.4532 115.372C99.5 114.831 99.6309 114.342 99.8459 113.906C100.064 113.469 100.352 113.103 100.709 112.806C101.066 112.509 101.484 112.289 101.965 112.146C102.449 112.004 102.98 111.958 103.558 112.008C103.857 112.034 104.134 112.083 104.388 112.155C104.643 112.224 104.877 112.311 105.089 112.416C105.301 112.518 105.493 112.635 105.665 112.767C105.838 112.899 105.993 113.042 106.131 113.194L105.639 113.824C105.564 113.925 105.472 113.982 105.364 113.996C105.255 114.01 105.141 113.973 105.022 113.886C104.909 113.803 104.796 113.728 104.685 113.661C104.577 113.592 104.46 113.53 104.335 113.475C104.209 113.421 104.071 113.376 103.92 113.339C103.769 113.303 103.594 113.276 103.395 113.259C103.059 113.23 102.75 113.262 102.468 113.354C102.186 113.447 101.939 113.591 101.728 113.787C101.52 113.983 101.352 114.226 101.223 114.516C101.095 114.806 101.014 115.136 100.982 115.504C100.948 115.903 100.974 116.265 101.059 116.59C101.145 116.912 101.282 117.19 101.469 117.423C101.656 117.657 101.888 117.843 102.164 117.98C102.443 118.118 102.759 118.202 103.111 118.233C103.35 118.253 103.564 118.248 103.754 118.218C103.948 118.185 104.138 118.134 104.324 118.067L104.429 116.851L103.612 116.78C103.516 116.772 103.442 116.741 103.39 116.686C103.341 116.628 103.32 116.56 103.327 116.48L103.399 115.648ZM109.11 113.747L108.949 115.606L111.36 115.814L111.263 116.945L108.852 116.736L108.688 118.634L111.786 118.902L111.685 120.073L107.082 119.675L107.707 112.447L112.31 112.845L112.208 114.015L109.11 113.747Z" fill="#1F45EA"/>
<path d="M151.573 117.632C151.52 117.705 151.467 117.757 151.414 117.789C151.365 117.818 151.302 117.83 151.225 117.823C151.152 117.817 151.075 117.785 150.993 117.728C150.914 117.667 150.821 117.602 150.714 117.533C150.606 117.463 150.481 117.397 150.339 117.335C150.198 117.269 150.029 117.228 149.833 117.211C149.488 117.181 149.222 117.237 149.036 117.378C148.85 117.516 148.746 117.709 148.724 117.958C148.711 118.118 148.746 118.254 148.83 118.369C148.917 118.48 149.034 118.58 149.18 118.67C149.329 118.76 149.5 118.843 149.69 118.92C149.881 118.997 150.076 119.08 150.276 119.171C150.476 119.259 150.669 119.359 150.857 119.472C151.045 119.586 151.209 119.722 151.349 119.881C151.492 120.041 151.601 120.231 151.676 120.452C151.754 120.669 151.78 120.929 151.754 121.231C151.726 121.56 151.641 121.864 151.5 122.143C151.362 122.419 151.176 122.655 150.941 122.852C150.707 123.046 150.425 123.191 150.096 123.286C149.77 123.382 149.406 123.412 149.004 123.377C148.775 123.358 148.548 123.315 148.323 123.248C148.101 123.182 147.887 123.099 147.682 122.997C147.48 122.896 147.291 122.779 147.115 122.647C146.939 122.515 146.787 122.371 146.66 122.216L147.16 121.547C147.201 121.497 147.253 121.458 147.315 121.43C147.378 121.398 147.443 121.386 147.509 121.391C147.599 121.399 147.691 121.441 147.785 121.516C147.879 121.591 147.987 121.674 148.11 121.764C148.232 121.855 148.375 121.941 148.539 122.022C148.706 122.104 148.909 122.155 149.148 122.175C149.497 122.205 149.773 122.149 149.976 122.006C150.182 121.863 150.299 121.634 150.326 121.319C150.342 121.136 150.307 120.984 150.22 120.863C150.137 120.742 150.022 120.637 149.876 120.547C149.73 120.457 149.561 120.378 149.37 120.307C149.179 120.234 148.983 120.155 148.783 120.071C148.583 119.987 148.389 119.89 148.201 119.78C148.013 119.67 147.849 119.532 147.71 119.366C147.57 119.2 147.462 119 147.385 118.766C147.312 118.532 147.289 118.247 147.318 117.912C147.342 117.643 147.417 117.387 147.545 117.144C147.673 116.9 147.849 116.69 148.072 116.512C148.294 116.334 148.56 116.198 148.87 116.104C149.182 116.01 149.533 115.98 149.921 116.014C150.356 116.052 150.752 116.154 151.109 116.322C151.47 116.487 151.767 116.701 152.002 116.962L151.573 117.632ZM154.443 123.767L152.939 123.637L153.564 116.409L155.068 116.539L154.443 123.767ZM163.047 120.867C163.002 121.395 162.87 121.874 162.652 122.303C162.438 122.73 162.155 123.088 161.802 123.379C161.452 123.67 161.042 123.886 160.571 124.026C160.101 124.166 159.588 124.212 159.034 124.164L156.254 123.924L156.879 116.695L159.658 116.936C160.213 116.984 160.71 117.117 161.149 117.336C161.589 117.554 161.956 117.838 162.25 118.188C162.548 118.535 162.766 118.937 162.904 119.394C163.045 119.851 163.093 120.342 163.047 120.867ZM161.513 120.734C161.546 120.356 161.525 120.011 161.452 119.7C161.378 119.39 161.258 119.121 161.09 118.896C160.922 118.671 160.708 118.49 160.449 118.354C160.193 118.218 159.896 118.136 159.557 118.106L158.282 117.996L157.86 122.883L159.135 122.993C159.474 123.022 159.781 122.994 160.056 122.907C160.334 122.817 160.576 122.676 160.78 122.483C160.984 122.286 161.149 122.041 161.275 121.748C161.401 121.454 161.48 121.116 161.513 120.734ZM166.16 118.677L165.999 120.535L168.41 120.743L168.313 121.874L165.902 121.666L165.738 123.564L168.836 123.831L168.735 125.002L164.132 124.604L164.757 117.376L169.36 117.774L169.258 118.945L166.16 118.677Z" fill="#1F45EA"/>
<path d="M219.535 123.324L217.423 123.141L216.903 129.164L215.403 129.034L215.924 123.012L213.812 122.829L213.916 121.624L219.639 122.118L219.535 123.324ZM227.293 126.418C227.247 126.946 227.115 127.428 226.897 127.865C226.682 128.301 226.397 128.669 226.044 128.97C225.693 129.271 225.282 129.497 224.811 129.647C224.34 129.793 223.827 129.843 223.272 129.795C222.718 129.747 222.221 129.61 221.782 129.385C221.343 129.156 220.976 128.863 220.679 128.507C220.382 128.15 220.163 127.738 220.023 127.271C219.886 126.804 219.84 126.306 219.886 125.778C219.931 125.25 220.061 124.77 220.276 124.336C220.494 123.9 220.781 123.532 221.134 123.231C221.488 122.931 221.901 122.707 222.372 122.56C222.843 122.41 223.356 122.359 223.911 122.407C224.465 122.455 224.962 122.593 225.4 122.822C225.839 123.047 226.206 123.34 226.499 123.7C226.796 124.057 227.013 124.469 227.15 124.935C227.291 125.399 227.338 125.894 227.293 126.418ZM225.764 126.286C225.796 125.907 225.776 125.564 225.702 125.257C225.628 124.946 225.506 124.678 225.335 124.452C225.167 124.224 224.954 124.043 224.694 123.91C224.438 123.774 224.141 123.692 223.802 123.662C223.463 123.633 223.155 123.663 222.876 123.753C222.597 123.839 222.354 123.981 222.147 124.177C221.943 124.37 221.778 124.613 221.652 124.907C221.527 125.197 221.448 125.532 221.415 125.91C221.382 126.292 221.402 126.639 221.476 126.949C221.549 127.257 221.67 127.523 221.838 127.749C222.009 127.974 222.225 128.155 222.484 128.291C222.743 128.424 223.043 128.505 223.381 128.534C223.72 128.564 224.027 128.535 224.302 128.448C224.581 128.359 224.822 128.217 225.026 128.024C225.234 127.831 225.4 127.59 225.526 127.299C225.651 127.006 225.731 126.668 225.764 126.286ZM231.125 126.734C231.594 126.775 231.945 126.691 232.181 126.484C232.42 126.277 232.556 125.978 232.59 125.586C232.605 125.407 232.591 125.242 232.547 125.091C232.507 124.937 232.435 124.803 232.331 124.69C232.23 124.575 232.098 124.481 231.933 124.41C231.769 124.339 231.571 124.294 231.338 124.273L230.392 124.192L230.179 126.653L231.125 126.734ZM231.436 123.138C231.931 123.18 232.353 123.275 232.701 123.423C233.053 123.57 233.336 123.759 233.551 123.988C233.766 124.214 233.915 124.474 234 124.769C234.088 125.065 234.118 125.38 234.089 125.716C234.058 126.071 233.972 126.391 233.83 126.677C233.689 126.962 233.491 127.201 233.237 127.393C232.982 127.586 232.671 127.726 232.302 127.815C231.933 127.9 231.508 127.922 231.026 127.88L230.08 127.798L229.865 130.284L228.371 130.155L228.995 122.927L231.436 123.138Z" fill="#1F45EA"/>
<path d="M84.4537 90.915C84.4471 90.9914 84.4271 91.0683 84.3937 91.1457C84.3638 91.2201 84.3228 91.2885 84.2705 91.3509L80.2665 96.1038L83.8781 96.4159L83.7769 97.5865L78.2475 97.1088L78.2979 96.5259C78.3039 96.4562 78.3214 96.3891 78.3504 96.3247C78.3797 96.257 78.4183 96.1967 78.4664 96.144L82.4821 91.372L79.025 91.0733L79.1261 89.9026L84.5011 90.3671L84.4537 90.915ZM87.2087 91.7804L87.0481 93.6385L89.4592 93.8468L89.3615 94.9776L86.9504 94.7693L86.7864 96.6672L89.8849 96.9349L89.7838 98.1056L85.1809 97.7078L85.8054 90.4798L90.4083 90.8775L90.3071 92.0481L87.2087 91.7804ZM96.837 92.6475L94.7248 92.465L94.2045 98.4875L92.7051 98.358L93.2254 92.3354L91.1133 92.1529L91.2175 90.9474L96.9411 91.442L96.837 92.6475ZM103.149 93.1928L101.036 93.0103L100.516 99.0329L99.0167 98.9033L99.5371 92.8808L97.4249 92.6983L97.5291 91.4928L103.253 91.9873L103.149 93.1928ZM107.167 96.8423L106.576 94.5629C106.539 94.4427 106.501 94.3022 106.462 94.1415C106.425 93.9811 106.392 93.8076 106.361 93.6209C106.298 93.8029 106.234 93.9713 106.167 94.1261C106.103 94.2779 106.044 94.4099 105.987 94.5221L105.02 96.6567L107.167 96.8423ZM109.44 99.804L108.279 99.7037C108.15 99.6925 108.046 99.6534 107.968 99.5865C107.894 99.5165 107.841 99.4316 107.81 99.3319L107.441 97.9098L104.561 97.661L103.954 98.9987C103.914 99.0789 103.849 99.1502 103.76 99.2128C103.671 99.272 103.564 99.2962 103.437 99.2853L102.267 99.1842L105.716 92.2001L107.245 92.3323L109.44 99.804Z" fill="#1F45EA"/>
<path d="M149.125 102.028C149.367 102.049 149.588 102.028 149.788 101.965C149.988 101.899 150.16 101.797 150.306 101.659C150.452 101.521 150.569 101.349 150.657 101.142C150.745 100.936 150.801 100.699 150.824 100.434L151.195 96.1298L152.69 96.2589L152.318 100.563C152.28 101.001 152.174 101.399 151.999 101.755C151.828 102.108 151.6 102.406 151.315 102.649C151.029 102.892 150.693 103.072 150.304 103.189C149.916 103.306 149.486 103.344 149.015 103.304C148.543 103.263 148.125 103.151 147.759 102.969C147.397 102.787 147.096 102.552 146.856 102.264C146.617 101.976 146.442 101.643 146.33 101.265C146.223 100.884 146.188 100.475 146.226 100.036L146.598 95.7325L148.092 95.8616L147.72 100.166C147.697 100.431 147.711 100.673 147.763 100.892C147.814 101.111 147.9 101.3 148.02 101.461C148.14 101.622 148.292 101.752 148.478 101.852C148.664 101.948 148.879 102.007 149.125 102.028ZM159.421 98.055L157.309 97.8725L156.789 103.895L155.29 103.766L155.81 97.743L153.698 97.5605L153.802 96.355L159.526 96.8495L159.421 98.055ZM163.439 101.704L162.848 99.4251C162.812 99.3049 162.774 99.1644 162.734 99.0038C162.698 98.8434 162.664 98.6698 162.634 98.4832C162.571 98.6651 162.506 98.8335 162.44 98.9883C162.376 99.1401 162.316 99.2721 162.26 99.3843L161.292 101.519L163.439 101.704ZM165.713 104.666L164.552 104.566C164.423 104.555 164.319 104.516 164.241 104.449C164.167 104.379 164.114 104.294 164.083 104.194L163.714 102.772L160.834 102.523L160.227 103.861C160.187 103.941 160.122 104.012 160.033 104.075C159.944 104.134 159.837 104.158 159.71 104.148L158.54 104.046L161.989 97.0624L163.518 97.1945L165.713 104.666ZM173.497 98.0568L172.873 105.285L171.368 105.155L171.637 102.041L168.454 101.766L168.185 104.88L166.681 104.75L167.305 97.5217L168.81 97.6517L168.545 100.72L171.728 100.995L171.993 97.9268L173.497 98.0568Z" fill="#1F45EA"/>
<path d="M208.929 107.246C209.169 107.267 209.367 107.255 209.525 107.212C209.686 107.166 209.817 107.099 209.918 107.01C210.02 106.922 210.094 106.818 210.141 106.698C210.189 106.575 210.218 106.447 210.229 106.315C210.242 106.168 210.232 106.035 210.199 105.915C210.166 105.795 210.104 105.691 210.015 105.603C209.926 105.512 209.805 105.438 209.653 105.381C209.504 105.325 209.316 105.287 209.09 105.268L207.82 105.158L207.649 107.135L208.929 107.246ZM208.077 102.189L207.908 104.142L208.889 104.226C209.098 104.245 209.286 104.244 209.451 104.225C209.617 104.202 209.758 104.158 209.875 104.091C209.991 104.024 210.082 103.931 210.149 103.813C210.22 103.692 210.263 103.544 210.278 103.368C210.294 103.188 210.282 103.034 210.243 102.903C210.208 102.773 210.143 102.665 210.05 102.58C209.957 102.495 209.836 102.43 209.686 102.383C209.536 102.333 209.357 102.3 209.148 102.281L208.077 102.189ZM209.246 101.146C209.731 101.188 210.14 101.27 210.474 101.392C210.812 101.512 211.081 101.666 211.282 101.854C211.487 102.039 211.629 102.255 211.708 102.503C211.787 102.75 211.814 103.022 211.788 103.318C211.774 103.484 211.735 103.641 211.672 103.789C211.613 103.938 211.525 104.076 211.411 104.203C211.299 104.328 211.16 104.438 210.991 104.533C210.822 104.629 210.624 104.706 210.399 104.763C210.88 104.922 211.227 105.143 211.441 105.426C211.654 105.708 211.742 106.059 211.706 106.477C211.68 106.783 211.595 107.062 211.453 107.314C211.314 107.566 211.123 107.779 210.881 107.952C210.638 108.125 210.346 108.252 210.005 108.333C209.667 108.411 209.284 108.431 208.855 108.394L206.056 108.152L206.68 100.924L209.246 101.146ZM214.465 108.879L212.961 108.749L213.585 101.521L215.09 101.651L214.465 108.879ZM221.912 103.455L219.8 103.272L219.28 109.295L217.78 109.165L218.301 103.143L216.189 102.96L216.293 101.755L222.016 102.249L221.912 103.455ZM231.182 103.041L230.558 110.269L229.238 110.155L229.621 105.717C229.629 105.624 229.64 105.524 229.652 105.418C229.668 105.313 229.687 105.205 229.71 105.097L227.304 108.839C227.172 109.045 226.989 109.138 226.753 109.117L226.544 109.099C226.427 109.089 226.327 109.054 226.242 108.993C226.157 108.929 226.093 108.841 226.049 108.73L224.311 104.615C224.311 104.733 224.31 104.846 224.307 104.956C224.304 105.063 224.299 105.163 224.291 105.256L223.908 109.695L222.588 109.581L223.212 102.352L224.348 102.451C224.411 102.456 224.467 102.463 224.517 102.47C224.566 102.478 224.609 102.492 224.644 102.511C224.682 102.528 224.715 102.554 224.742 102.59C224.773 102.623 224.801 102.669 224.826 102.728L226.515 106.758C226.568 106.88 226.616 107.004 226.658 107.132C226.704 107.26 226.747 107.39 226.785 107.524C226.846 107.396 226.909 107.271 226.973 107.149C227.041 107.028 227.111 106.912 227.184 106.801L229.523 103.134C229.558 103.08 229.593 103.039 229.629 103.012C229.665 102.982 229.702 102.962 229.74 102.952C229.781 102.938 229.825 102.932 229.872 102.933C229.922 102.934 229.98 102.937 230.047 102.943L231.182 103.041ZM236.416 108.01L235.825 105.731C235.788 105.61 235.75 105.47 235.711 105.309C235.674 105.149 235.641 104.975 235.61 104.789C235.548 104.971 235.483 105.139 235.416 105.294C235.353 105.446 235.293 105.578 235.236 105.69L234.269 107.825L236.416 108.01ZM238.689 110.972L237.529 110.872C237.399 110.86 237.295 110.821 237.218 110.754C237.143 110.684 237.09 110.599 237.059 110.5L236.69 109.078L233.811 108.829L233.203 110.167C233.163 110.247 233.098 110.318 233.009 110.381C232.92 110.44 232.813 110.464 232.687 110.453L231.516 110.352L234.965 103.368L236.494 103.5L238.689 110.972ZM242.412 107.635C242.88 107.675 243.232 107.592 243.467 107.385C243.706 107.178 243.842 106.879 243.876 106.487C243.892 106.307 243.877 106.142 243.834 105.991C243.793 105.837 243.721 105.704 243.617 105.591C243.517 105.475 243.384 105.382 243.22 105.311C243.055 105.24 242.857 105.194 242.624 105.174L241.678 105.092L241.465 107.553L242.412 107.635ZM242.723 104.038C243.217 104.081 243.639 104.176 243.988 104.323C244.34 104.471 244.623 104.659 244.837 104.888C245.052 105.114 245.202 105.375 245.287 105.67C245.375 105.965 245.405 106.281 245.376 106.616C245.345 106.972 245.259 107.292 245.117 107.578C244.975 107.863 244.777 108.102 244.523 108.294C244.269 108.486 243.957 108.627 243.588 108.715C243.22 108.8 242.794 108.822 242.313 108.781L241.366 108.699L241.152 111.185L239.657 111.055L240.282 103.827L242.723 104.038Z" fill="#1F45EA"/>
<path d="M81.3962 135.738C81.4792 135.745 81.5464 135.781 81.5977 135.846L82.1358 136.53C81.8114 136.877 81.4234 137.127 80.9717 137.282C80.5233 137.438 80.0003 137.49 79.4025 137.438C78.8612 137.391 78.3825 137.258 77.9666 137.038C77.5509 136.815 77.2062 136.525 76.9324 136.171C76.6586 135.816 76.4599 135.405 76.3362 134.94C76.2125 134.474 76.1737 133.974 76.2199 133.439C76.2509 133.08 76.3185 132.743 76.4227 132.428C76.5305 132.109 76.6709 131.82 76.8439 131.561C77.0169 131.301 77.2175 131.071 77.4456 130.87C77.6771 130.669 77.9323 130.504 78.2112 130.374C78.4903 130.241 78.7894 130.148 79.1085 130.095C79.4311 130.04 79.7702 130.027 80.1255 130.058C80.3912 130.081 80.6399 130.126 80.8717 130.193C81.1068 130.26 81.3237 130.344 81.5224 130.444C81.7211 130.545 81.9017 130.663 82.064 130.797C82.23 130.929 82.3767 131.07 82.5041 131.222L81.9416 131.866C81.908 131.906 81.8665 131.941 81.8171 131.971C81.7678 132 81.7032 132.011 81.6235 132.004C81.5438 131.997 81.4649 131.962 81.3867 131.898C81.3119 131.835 81.2177 131.763 81.1042 131.683C80.994 131.603 80.8517 131.527 80.6772 131.455C80.5061 131.384 80.2844 131.336 80.012 131.313C79.7098 131.287 79.4278 131.317 79.1659 131.405C78.9041 131.493 78.6728 131.634 78.4721 131.827C78.2749 132.017 78.1135 132.259 77.9878 132.553C77.862 132.847 77.7825 133.186 77.7492 133.571C77.7156 133.96 77.7388 134.311 77.8187 134.626C77.9021 134.938 78.0278 135.206 78.1957 135.432C78.3669 135.657 78.5724 135.836 78.812 135.967C79.0552 136.095 79.3196 136.171 79.6052 136.196C79.7745 136.21 79.928 136.215 80.0656 136.21C80.2065 136.206 80.3368 136.189 80.4565 136.159C80.5795 136.129 80.6952 136.088 80.8036 136.033C80.9153 135.979 81.0285 135.909 81.1431 135.822C81.1822 135.795 81.2225 135.773 81.2641 135.757C81.3057 135.74 81.3497 135.734 81.3962 135.738ZM87.5811 136.84L87.4761 138.055L83.1871 137.685L83.8116 130.457L85.3061 130.586L84.7866 136.598L87.5811 136.84ZM90.719 132.233L90.5584 134.091L92.9695 134.299L92.8718 135.43L90.4607 135.222L90.2967 137.12L93.3952 137.387L93.294 138.558L88.6912 138.16L89.3157 130.932L93.9186 131.33L93.8174 132.501L90.719 132.233ZM96.2154 138.81L94.711 138.68L95.3355 131.452L96.8399 131.582L96.2154 138.81ZM104.842 132.274L104.218 139.502L103.446 139.435C103.33 139.425 103.233 139.398 103.157 139.355C103.08 139.308 103.008 139.235 102.94 139.135L99.7341 134.241C99.734 134.358 99.7307 134.474 99.7243 134.587C99.7212 134.7 99.7155 134.805 99.7072 134.901L99.346 139.081L98.026 138.967L98.6505 131.739L99.4376 131.807C99.5007 131.812 99.5535 131.82 99.5961 131.83C99.6423 131.838 99.6828 131.853 99.7176 131.876C99.7527 131.896 99.7856 131.922 99.8162 131.955C99.8468 131.988 99.8799 132.031 99.9155 132.084L103.144 137C103.142 136.873 103.142 136.751 103.146 136.634C103.149 136.514 103.156 136.401 103.165 136.294L103.522 132.16L104.842 132.274Z" fill="#1F45EA"/>
<path d="M142.353 135.515L141.729 142.743L140.409 142.629L140.792 138.191C140.8 138.098 140.811 137.998 140.823 137.892C140.839 137.786 140.858 137.679 140.881 137.571L138.475 141.313C138.343 141.519 138.16 141.612 137.924 141.591L137.715 141.573C137.599 141.563 137.498 141.528 137.413 141.467C137.328 141.403 137.264 141.315 137.22 141.204L135.482 137.089C135.482 137.206 135.481 137.32 135.478 137.43C135.476 137.537 135.47 137.637 135.462 137.73L135.079 142.168L133.759 142.054L134.383 134.826L135.519 134.924C135.582 134.93 135.638 134.936 135.688 134.944C135.737 134.952 135.78 134.965 135.815 134.985C135.854 135.002 135.886 135.028 135.913 135.064C135.944 135.097 135.972 135.143 135.997 135.202L137.686 139.232C137.739 139.354 137.787 139.478 137.83 139.606C137.875 139.733 137.918 139.864 137.956 139.998C138.018 139.87 138.08 139.744 138.144 139.623C138.212 139.502 138.282 139.386 138.355 139.275L140.694 135.607C140.729 135.554 140.764 135.513 140.8 135.486C140.836 135.456 140.873 135.436 140.911 135.425C140.952 135.412 140.996 135.406 141.043 135.407C141.093 135.408 141.151 135.411 141.218 135.417L142.353 135.515ZM150.83 139.886C150.785 140.414 150.653 140.896 150.434 141.332C150.219 141.769 149.935 142.137 149.581 142.438C149.231 142.739 148.82 142.964 148.348 143.114C147.877 143.261 147.364 143.31 146.81 143.262C146.255 143.214 145.758 143.078 145.32 142.853C144.881 142.624 144.513 142.331 144.216 141.974C143.919 141.617 143.7 141.205 143.56 140.738C143.423 140.271 143.377 139.774 143.423 139.246C143.469 138.718 143.599 138.237 143.814 137.804C144.032 137.368 144.318 137 144.672 136.699C145.026 136.398 145.438 136.175 145.909 136.028C146.381 135.878 146.894 135.827 147.448 135.875C148.003 135.923 148.499 136.061 148.938 136.29C149.377 136.515 149.743 136.808 150.036 137.168C150.334 137.524 150.551 137.936 150.688 138.403C150.828 138.867 150.876 139.361 150.83 139.886ZM149.301 139.754C149.334 139.375 149.313 139.032 149.239 138.725C149.166 138.414 149.044 138.146 148.872 137.92C148.705 137.691 148.491 137.511 148.232 137.378C147.976 137.242 147.678 137.159 147.34 137.13C147.001 137.101 146.692 137.131 146.413 137.221C146.135 137.307 145.892 137.448 145.684 137.645C145.48 137.838 145.315 138.081 145.19 138.375C145.064 138.665 144.985 138.999 144.952 139.378C144.919 139.76 144.94 140.106 145.013 140.417C145.087 140.725 145.208 140.991 145.376 141.216C145.547 141.442 145.762 141.623 146.021 141.759C146.281 141.892 146.58 141.973 146.919 142.002C147.257 142.031 147.564 142.003 147.84 141.916C148.118 141.826 148.36 141.685 148.564 141.492C148.771 141.299 148.938 141.057 149.063 140.767C149.189 140.473 149.268 140.136 149.301 139.754ZM154.499 140.012C154.741 140.033 154.953 140.021 155.134 139.977C155.315 139.929 155.467 139.857 155.589 139.76C155.712 139.66 155.806 139.54 155.872 139.398C155.937 139.257 155.978 139.099 155.993 138.927C156.022 138.585 155.931 138.309 155.718 138.1C155.508 137.891 155.171 137.767 154.706 137.727L153.929 137.659L153.731 139.946L154.499 140.012ZM157.672 144.121L156.322 144.004C156.069 143.982 155.895 143.87 155.799 143.668L154.615 141.332C154.566 141.241 154.509 141.172 154.442 141.126C154.38 141.081 154.282 141.052 154.149 141.041L153.641 140.997L153.403 143.752L151.908 143.623L152.533 136.395L154.804 136.591C155.309 136.634 155.736 136.725 156.086 136.862C156.435 136.996 156.717 137.166 156.93 137.372C157.143 137.577 157.292 137.814 157.375 138.083C157.46 138.348 157.488 138.634 157.462 138.943C157.441 139.182 157.386 139.407 157.298 139.617C157.213 139.824 157.099 140.009 156.954 140.174C156.809 140.339 156.636 140.481 156.435 140.601C156.234 140.721 156.009 140.812 155.759 140.874C155.851 140.935 155.935 141.008 156.011 141.091C156.088 141.172 156.155 141.266 156.213 141.375L157.672 144.121ZM162.395 140.82L164.876 141.034L164.618 144.018C164.226 144.255 163.816 144.419 163.386 144.509C162.961 144.596 162.515 144.619 162.05 144.579C161.456 144.528 160.926 144.39 160.46 144.166C159.995 143.938 159.605 143.645 159.291 143.287C158.978 142.929 158.748 142.516 158.601 142.048C158.454 141.58 158.403 141.079 158.449 140.544C158.496 140.003 158.627 139.514 158.842 139.078C159.061 138.641 159.348 138.275 159.705 137.978C160.062 137.681 160.481 137.461 160.961 137.319C161.445 137.176 161.976 137.13 162.554 137.18C162.853 137.206 163.13 137.255 163.385 137.327C163.64 137.396 163.873 137.483 164.085 137.588C164.297 137.69 164.489 137.807 164.662 137.939C164.834 138.071 164.989 138.214 165.127 138.366L164.636 138.996C164.56 139.097 164.468 139.154 164.36 139.168C164.252 139.182 164.138 139.145 164.018 139.058C163.905 138.975 163.792 138.9 163.681 138.833C163.573 138.764 163.457 138.702 163.331 138.647C163.205 138.593 163.067 138.548 162.916 138.511C162.765 138.475 162.59 138.448 162.391 138.431C162.056 138.402 161.747 138.434 161.464 138.526C161.182 138.619 160.935 138.763 160.724 138.959C160.517 139.155 160.348 139.398 160.22 139.688C160.091 139.978 160.011 140.308 159.979 140.676C159.944 141.075 159.97 141.437 160.056 141.762C160.142 142.084 160.278 142.362 160.465 142.595C160.653 142.829 160.884 143.015 161.16 143.152C161.439 143.29 161.755 143.374 162.107 143.405C162.346 143.425 162.56 143.421 162.75 143.39C162.944 143.357 163.134 143.306 163.321 143.239L163.426 142.023L162.609 141.953C162.512 141.944 162.438 141.913 162.386 141.858C162.337 141.8 162.317 141.732 162.323 141.652L162.395 140.82ZM168.106 138.92L167.946 140.778L170.357 140.986L170.259 142.117L167.848 141.908L167.684 143.806L170.782 144.074L170.681 145.245L166.078 144.847L166.703 137.619L171.306 138.017L171.205 139.187L168.106 138.92ZM178.915 138.674L178.29 145.902L177.518 145.835C177.402 145.825 177.305 145.799 177.229 145.755C177.153 145.708 177.08 145.635 177.012 145.536L173.806 140.642C173.806 140.759 173.803 140.874 173.797 140.987C173.793 141.101 173.788 141.205 173.779 141.302L173.418 145.481L172.098 145.367L172.723 138.139L173.51 138.207C173.573 138.213 173.626 138.22 173.668 138.231C173.715 138.238 173.755 138.253 173.79 138.276C173.825 138.296 173.858 138.322 173.888 138.355C173.919 138.388 173.952 138.431 173.988 138.484L177.217 143.4C177.214 143.273 177.215 143.151 177.218 143.034C177.222 142.914 177.228 142.801 177.237 142.695L177.595 138.56L178.915 138.674Z" fill="#1F45EA"/>
<path d="M212.491 147.633L212.386 148.848L208.097 148.478L208.722 141.249L210.216 141.379L209.697 147.391L212.491 147.633ZM220.674 145.921C220.628 146.449 220.496 146.931 220.278 147.367C220.063 147.803 219.778 148.172 219.425 148.473C219.074 148.774 218.663 148.999 218.192 149.149C217.721 149.296 217.208 149.345 216.653 149.297C216.099 149.249 215.602 149.113 215.163 148.887C214.724 148.659 214.357 148.366 214.06 148.009C213.763 147.652 213.544 147.24 213.404 146.773C213.267 146.306 213.221 145.809 213.266 145.281C213.312 144.753 213.442 144.272 213.657 143.839C213.875 143.403 214.162 143.034 214.515 142.734C214.869 142.433 215.282 142.209 215.753 142.063C216.224 141.913 216.737 141.862 217.292 141.91C217.846 141.958 218.343 142.096 218.781 142.324C219.22 142.55 219.587 142.842 219.88 143.202C220.177 143.559 220.394 143.971 220.531 144.438C220.672 144.902 220.719 145.396 220.674 145.921ZM219.145 145.789C219.177 145.41 219.157 145.067 219.083 144.759C219.009 144.449 218.887 144.18 218.716 143.955C218.548 143.726 218.335 143.546 218.075 143.413C217.819 143.277 217.522 143.194 217.183 143.165C216.844 143.136 216.536 143.166 216.257 143.256C215.978 143.342 215.735 143.483 215.528 143.679C215.324 143.873 215.159 144.116 215.033 144.41C214.908 144.7 214.828 145.034 214.796 145.413C214.763 145.795 214.783 146.141 214.857 146.452C214.93 146.759 215.051 147.026 215.219 147.251C215.39 147.477 215.606 147.658 215.865 147.794C216.124 147.927 216.423 148.008 216.762 148.037C217.101 148.066 217.408 148.037 217.683 147.951C217.962 147.861 218.203 147.72 218.407 147.527C218.615 147.334 218.781 147.092 218.906 146.802C219.032 146.508 219.112 146.17 219.145 145.789ZM228.568 142.964L227.944 150.192L227.171 150.126C227.055 150.116 226.959 150.089 226.882 150.045C226.806 149.999 226.734 149.926 226.665 149.826L223.46 144.932C223.46 145.049 223.456 145.164 223.45 145.277C223.447 145.391 223.441 145.496 223.433 145.592L223.072 149.771L221.752 149.657L222.376 142.429L223.163 142.497C223.226 142.503 223.279 142.511 223.322 142.521C223.368 142.528 223.409 142.544 223.443 142.567C223.478 142.586 223.511 142.613 223.542 142.645C223.573 142.678 223.606 142.721 223.641 142.774L226.87 147.691C226.868 147.563 226.868 147.441 226.872 147.324C226.875 147.204 226.882 147.091 226.891 146.985L227.248 142.85L228.568 142.964ZM233.591 146.972L236.072 147.186L235.814 150.17C235.422 150.407 235.012 150.571 234.582 150.661C234.157 150.748 233.711 150.771 233.246 150.731C232.652 150.68 232.122 150.542 231.656 150.317C231.191 150.09 230.801 149.797 230.487 149.439C230.174 149.08 229.943 148.667 229.796 148.199C229.649 147.732 229.599 147.231 229.645 146.696C229.692 146.155 229.823 145.666 230.038 145.229C230.256 144.793 230.544 144.427 230.901 144.129C231.258 143.832 231.677 143.613 232.157 143.47C232.641 143.328 233.172 143.282 233.75 143.332C234.049 143.358 234.326 143.407 234.581 143.479C234.836 143.548 235.069 143.635 235.281 143.74C235.493 143.842 235.685 143.959 235.858 144.091C236.03 144.223 236.185 144.365 236.323 144.518L235.832 145.148C235.756 145.248 235.664 145.306 235.556 145.32C235.447 145.334 235.333 145.297 235.214 145.21C235.101 145.126 234.988 145.051 234.877 144.985C234.769 144.915 234.652 144.853 234.527 144.799C234.401 144.745 234.263 144.699 234.112 144.663C233.961 144.626 233.786 144.6 233.587 144.582C233.251 144.553 232.943 144.585 232.66 144.678C232.378 144.771 232.131 144.915 231.92 145.111C231.713 145.307 231.544 145.55 231.416 145.84C231.287 146.13 231.206 146.459 231.175 146.828C231.14 147.227 231.166 147.588 231.251 147.914C231.337 148.236 231.474 148.513 231.661 148.747C231.848 148.981 232.08 149.166 232.356 149.304C232.635 149.442 232.951 149.526 233.303 149.556C233.542 149.577 233.756 149.572 233.946 149.542C234.14 149.508 234.33 149.458 234.516 149.39L234.621 148.175L233.805 148.104C233.708 148.096 233.634 148.064 233.582 148.01C233.533 147.952 233.512 147.883 233.519 147.804L233.591 146.972Z" fill="#1F45EA"/>
<path d="M26.5869 69.0702L44.5026 80.2669L25.7976 90.1823L26.5869 69.0702Z" fill="#1F45EA"/>
<path d="M276.374 124.861L290.33 109L297.078 129.066L276.374 124.861Z" fill="#002AE0"/>
</svg>
