<svg width="157" height="157" viewBox="0 0 157 157" fill="none" xmlns="http://www.w3.org/2000/svg">
<g clip-path="url(#clip0)">
<path d="M144.853 19.7669L79.4419 0.143496C78.8308 -0.047832 78.1756 -0.047832 77.5645 0.143496L12.1533 19.7669C10.768 20.1805 9.81842 21.4545 9.81812 22.9002V94.8527C9.81812 123.771 53.9183 149.497 77.532 156.849C78.1707 157.05 78.8557 157.05 79.4943 156.849C103.082 149.497 147.182 123.771 147.182 94.8527V22.9002C147.182 21.4563 146.236 20.183 144.853 19.7669Z" fill="#21B6AF"/>
<path d="M78.5 138.043C98.3691 138.043 114.476 121.936 114.476 102.067C114.476 82.1979 98.3691 66.0908 78.5 66.0908C58.631 66.0908 42.5239 82.1979 42.5239 102.067C42.5239 121.936 58.631 138.043 78.5 138.043Z" fill="#1976D2"/>
<path d="M58.0339 33.5134C57.9089 33.7134 57.7756 33.8634 57.6339 33.9634C57.5006 34.0634 57.3256 34.1134 57.1089 34.1134C56.9173 34.1134 56.7089 34.055 56.4839 33.9384C56.2673 33.8134 56.0173 33.6759 55.7339 33.5259C55.4589 33.3759 55.1423 33.2425 54.7839 33.1259C54.4256 33.0009 54.0173 32.9384 53.5589 32.9384C52.7673 32.9384 52.1756 33.1092 51.7839 33.4509C51.4006 33.7842 51.2089 34.2384 51.2089 34.8134C51.2089 35.18 51.3256 35.4842 51.5589 35.7259C51.7923 35.9675 52.0964 36.1759 52.4714 36.3509C52.8548 36.5259 53.2881 36.6884 53.7714 36.8384C54.2631 36.98 54.7631 37.1425 55.2714 37.3259C55.7798 37.5009 56.2756 37.7092 56.7589 37.9509C57.2506 38.1925 57.6839 38.5009 58.0589 38.8759C58.4423 39.2509 58.7506 39.7092 58.9839 40.2509C59.2173 40.7842 59.3339 41.43 59.3339 42.1884C59.3339 43.03 59.1881 43.8175 58.8964 44.5509C58.6048 45.2842 58.1798 45.9259 57.6214 46.4759C57.0714 47.0175 56.3881 47.4467 55.5714 47.7634C54.7631 48.0717 53.8423 48.2259 52.8089 48.2259C52.2423 48.2259 51.6631 48.1675 51.0714 48.0509C50.4881 47.9342 49.9214 47.7717 49.3714 47.5634C48.8214 47.3467 48.3048 47.0925 47.8214 46.8009C47.3381 46.5092 46.9173 46.1842 46.5589 45.8259L47.8089 43.8509C47.9089 43.7092 48.0381 43.5925 48.1964 43.5009C48.3631 43.4009 48.5423 43.3509 48.7339 43.3509C48.9839 43.3509 49.2339 43.43 49.4839 43.5884C49.7423 43.7467 50.0298 43.9217 50.3464 44.1134C50.6714 44.305 51.0423 44.48 51.4589 44.6384C51.8756 44.7967 52.3673 44.8759 52.9339 44.8759C53.7006 44.8759 54.2964 44.7092 54.7214 44.3759C55.1464 44.0342 55.3589 43.4967 55.3589 42.7634C55.3589 42.3384 55.2423 41.9925 55.0089 41.7259C54.7756 41.4592 54.4673 41.2384 54.0839 41.0634C53.7089 40.8884 53.2798 40.7342 52.7964 40.6009C52.3131 40.4675 51.8173 40.3217 51.3089 40.1634C50.8006 39.9967 50.3048 39.7967 49.8214 39.5634C49.3381 39.3217 48.9048 39.0092 48.5214 38.6259C48.1464 38.2342 47.8423 37.7509 47.6089 37.1759C47.3756 36.5925 47.2589 35.8759 47.2589 35.0259C47.2589 34.3425 47.3964 33.6759 47.6714 33.0259C47.9464 32.3759 48.3506 31.7967 48.8839 31.2884C49.4173 30.78 50.0714 30.3759 50.8464 30.0759C51.6214 29.7675 52.5089 29.6134 53.5089 29.6134C54.0673 29.6134 54.6089 29.6592 55.1339 29.7509C55.6673 29.8342 56.1714 29.9634 56.6464 30.1384C57.1214 30.305 57.5631 30.5092 57.9714 30.7509C58.3881 30.9842 58.7589 31.2509 59.0839 31.5509L58.0339 33.5134ZM66.1892 33.0634V37.3134H71.9142V40.4384H66.1892V44.7759H73.6642V48.0259H61.9392V29.8134H73.6642V33.0634H66.1892ZM80.6453 33.0634V37.3134H86.3703V40.4384H80.6453V44.7759H88.1203V48.0259H76.3953V29.8134H88.1203V33.0634H80.6453ZM107.376 38.9134C107.376 40.23 107.147 41.4467 106.689 42.5634C106.239 43.6717 105.601 44.6342 104.776 45.4509C103.951 46.2592 102.955 46.8925 101.789 47.3509C100.63 47.8009 99.343 48.0259 97.9263 48.0259H90.8513V29.8134H97.9263C99.343 29.8134 100.63 30.0425 101.789 30.5009C102.955 30.9592 103.951 31.5925 104.776 32.4009C105.601 33.2092 106.239 34.1717 106.689 35.2884C107.147 36.3967 107.376 37.605 107.376 38.9134ZM103.051 38.9134C103.051 38.0134 102.935 37.2009 102.701 36.4759C102.468 35.7509 102.13 35.1384 101.689 34.6384C101.255 34.13 100.722 33.7425 100.089 33.4759C99.4555 33.2009 98.7346 33.0634 97.9263 33.0634H95.1013V44.7759H97.9263C98.7346 44.7759 99.4555 44.6425 100.089 44.3759C100.722 44.1009 101.255 43.7134 101.689 43.2134C102.13 42.705 102.468 42.0884 102.701 41.3634C102.935 40.6384 103.051 39.8217 103.051 38.9134Z" fill="#EAEAFC"/>
<path d="M75.1897 109.852C75.773 109.852 76.2339 110.015 76.5722 110.342C76.9105 110.657 77.0797 111.077 77.0797 111.602V114.752H59.1597V113.002C59.1597 112.664 59.2297 112.302 59.3697 111.917C59.5097 111.532 59.7547 111.182 60.1047 110.867L67.4547 103.464C68.0847 102.834 68.633 102.234 69.0997 101.662C69.5664 101.09 69.9514 100.53 70.2547 99.982C70.558 99.422 70.7855 98.8678 70.9372 98.3195C71.0889 97.7595 71.1647 97.1703 71.1647 96.552C71.1647 95.537 70.9197 94.7611 70.4297 94.2245C69.9514 93.6761 69.2164 93.402 68.2247 93.402C67.4197 93.402 66.7372 93.6178 66.1772 94.0495C65.6289 94.4695 65.2497 94.9945 65.0397 95.6245C64.7947 96.2661 64.4739 96.692 64.0772 96.902C63.6805 97.112 63.1147 97.1586 62.3797 97.042L59.5097 96.5345C59.6964 95.2628 60.0522 94.1545 60.5772 93.2095C61.1139 92.2645 61.773 91.477 62.5547 90.847C63.348 90.217 64.2522 89.7503 65.2672 89.447C66.2822 89.132 67.373 88.9745 68.5397 88.9745C69.7997 88.9745 70.9314 89.1611 71.9347 89.5345C72.9497 89.8961 73.813 90.4036 74.5247 91.057C75.2364 91.7103 75.7789 92.492 76.1522 93.402C76.5372 94.3003 76.7297 95.292 76.7297 96.377C76.7297 97.3103 76.5955 98.1736 76.3272 98.967C76.0705 99.7603 75.7147 100.519 75.2597 101.242C74.8047 101.954 74.2739 102.648 73.6672 103.324C73.0722 103.989 72.4364 104.666 71.7597 105.354L66.7722 110.464C67.4139 110.266 68.0497 110.114 68.6797 110.009C69.3097 109.904 69.893 109.852 70.4297 109.852H75.1897ZM90.7499 104.847V98.197C90.7499 97.7886 90.7616 97.3511 90.7849 96.8845C90.8199 96.4061 90.8666 95.9103 90.9249 95.397L84.1874 104.847H90.7499ZM98.0999 104.847V107.892C98.0999 108.16 98.0066 108.394 97.8199 108.592C97.6449 108.79 97.3883 108.889 97.0499 108.889H95.4749V114.752H90.7499V108.889H80.4949C80.1566 108.889 79.8474 108.784 79.5674 108.574C79.2991 108.364 79.1299 108.102 79.0599 107.787L78.4999 105.109L90.2949 89.2545H95.4749V104.847H98.0999Z" fill="#EAEAFC"/>
</g>
<defs>
<clipPath id="clip0">
<rect width="157" height="157" fill="white"/>
</clipPath>
</defs>
</svg>
