<svg width="118" height="118" viewBox="0 0 118 118" fill="none" xmlns="http://www.w3.org/2000/svg">
<path d="M101.941 104.559L96.9628 99.5625H84.8125V95.875H97.7187C97.9614 95.8736 98.2019 95.9201 98.4266 96.0119C98.6512 96.1036 98.8555 96.2388 99.0278 96.4097L104.559 101.941L101.941 104.559Z" fill="#88929F"/>
<path d="M90.3438 60.8438H108.781V64.5313H90.3438V60.8438Z" fill="#88929F"/>
<path d="M92.1875 79.2812H108.781V82.9688H92.1875V79.2812Z" fill="#88929F"/>
<path d="M35.0312 49.7817H20.2812C20.0386 49.7831 19.798 49.7366 19.5734 49.6449C19.3488 49.5531 19.1445 49.4179 18.9722 49.247L13.4409 43.7158L16.059 41.0977L21.0372 46.0942H35.0312V49.7817Z" fill="#88929F"/>
<path d="M16.059 104.559L13.4409 101.941L18.9722 96.4097C19.1445 96.2388 19.3488 96.1036 19.5734 96.0119C19.798 95.9201 20.0386 95.8736 20.2812 95.875H35.0312V99.5625H21.0372L16.059 104.559Z" fill="#88929F"/>
<path d="M9.21875 60.8438H27.6562V64.5313H9.21875V60.8438Z" fill="#88929F"/>
<path d="M9.21875 79.2812H27.6562V82.9688H9.21875V79.2812Z" fill="#88929F"/>
<path d="M63.2266 20.8208L76.1315 7.91584L78.7386 10.5229L65.8336 23.4279L63.2266 20.8208Z" fill="#88929F"/>
<path d="M39.2559 10.5254L41.8629 7.91833L54.7679 20.8233L52.1608 23.4303L39.2559 10.5254Z" fill="#88929F"/>
<path d="M97.7187 49.7817H82.9688V46.0942H96.9628L101.941 41.0977L104.559 43.7158L99.0278 49.247C98.8555 49.4179 98.6512 49.5531 98.4266 49.6449C98.2019 49.7366 97.9614 49.7831 97.7187 49.7817Z" fill="#88929F"/>
<path d="M105.094 44.25C107.13 44.25 108.781 42.5991 108.781 40.5625C108.781 38.5259 107.13 36.875 105.094 36.875C103.057 36.875 101.406 38.5259 101.406 40.5625C101.406 42.5991 103.057 44.25 105.094 44.25Z" fill="#C1C8D1"/>
<path d="M105.094 108.781C107.13 108.781 108.781 107.13 108.781 105.094C108.781 103.057 107.13 101.406 105.094 101.406C103.057 101.406 101.406 103.057 101.406 105.094C101.406 107.13 103.057 108.781 105.094 108.781Z" fill="#C1C8D1"/>
<path d="M110.625 66.375C112.662 66.375 114.312 64.7241 114.312 62.6875C114.312 60.6509 112.662 59 110.625 59C108.588 59 106.938 60.6509 106.938 62.6875C106.938 64.7241 108.588 66.375 110.625 66.375Z" fill="#C1C8D1"/>
<path d="M110.625 84.8125C112.662 84.8125 114.312 83.1616 114.312 81.125C114.312 79.0884 112.662 77.4375 110.625 77.4375C108.588 77.4375 106.938 79.0884 106.938 81.125C106.938 83.1616 108.588 84.8125 110.625 84.8125Z" fill="#C1C8D1"/>
<path d="M12.9062 44.25C14.9428 44.25 16.5938 42.5991 16.5938 40.5625C16.5938 38.5259 14.9428 36.875 12.9062 36.875C10.8697 36.875 9.21875 38.5259 9.21875 40.5625C9.21875 42.5991 10.8697 44.25 12.9062 44.25Z" fill="#C1C8D1"/>
<path d="M12.9062 108.781C14.9428 108.781 16.5938 107.13 16.5938 105.094C16.5938 103.057 14.9428 101.406 12.9062 101.406C10.8697 101.406 9.21875 103.057 9.21875 105.094C9.21875 107.13 10.8697 108.781 12.9062 108.781Z" fill="#C1C8D1"/>
<path d="M7.375 66.375C9.41155 66.375 11.0625 64.7241 11.0625 62.6875C11.0625 60.6509 9.41155 59 7.375 59C5.33845 59 3.6875 60.6509 3.6875 62.6875C3.6875 64.7241 5.33845 66.375 7.375 66.375Z" fill="#C1C8D1"/>
<path d="M7.375 84.8125C9.41155 84.8125 11.0625 83.1616 11.0625 81.125C11.0625 79.0884 9.41155 77.4375 7.375 77.4375C5.33845 77.4375 3.6875 79.0884 3.6875 81.125C3.6875 83.1616 5.33845 84.8125 7.375 84.8125Z" fill="#C1C8D1"/>
<path d="M38.3315 106.495C44.9137 88.5 58.9999 51.625 58.9999 51.625L79.4471 106.679C84.127 102.582 87.8565 97.5125 90.3754 91.8251C92.8942 86.1377 94.1419 79.9692 94.0312 73.75C94.0312 51.3484 78.3409 33.1875 58.9999 33.1875C39.659 33.1875 23.9687 51.3484 23.9687 73.75C23.861 79.9208 25.0888 86.0419 27.5679 91.6938C30.0469 97.3457 33.7187 102.395 38.3315 106.495Z" fill="#1F45EA"/>
<path d="M59 33.1875C64.1548 33.1989 69.225 34.4982 73.75 36.9672V33.1875C73.75 29.2756 72.196 25.5238 69.4298 22.7577C66.6637 19.9915 62.9119 18.4375 59 18.4375C55.0881 18.4375 51.3363 19.9915 48.5702 22.7577C45.804 25.5238 44.25 29.2756 44.25 33.1875V36.9672C48.775 34.4982 53.8452 33.1989 59 33.1875Z" fill="#C1C8D1"/>
<path d="M58.9999 51.625C58.9999 51.625 46.2781 84.8125 39.364 103.674C44.379 110.238 51.3299 114.312 58.9999 114.312C66.6699 114.312 73.4365 110.348 78.4331 103.932L58.9999 51.625Z" fill="#7A7CFF"/>
<path d="M79.2812 11.0625C81.3178 11.0625 82.9688 9.41155 82.9688 7.375C82.9688 5.33845 81.3178 3.6875 79.2812 3.6875C77.2447 3.6875 75.5938 5.33845 75.5938 7.375C75.5938 9.41155 77.2447 11.0625 79.2812 11.0625Z" fill="#C1C8D1"/>
<path d="M38.7188 11.0625C40.7553 11.0625 42.4062 9.41155 42.4062 7.375C42.4062 5.33845 40.7553 3.6875 38.7188 3.6875C36.6822 3.6875 35.0312 5.33845 35.0312 7.375C35.0312 9.41155 36.6822 11.0625 38.7188 11.0625Z" fill="#C1C8D1"/>
</svg>
