<svg width="342" height="297" viewBox="0 0 342 297" fill="none" xmlns="http://www.w3.org/2000/svg">
<path d="M332.802 175.866L315 164.966L333.391 155L332.802 175.866Z" fill="#F3F6FF"/>
<path d="M266.582 20.9841L261.063 0.480801L281.615 5.98926L266.582 20.9841Z" fill="#DFE5FF"/>
<g clip-path="url(#clip0)">
<path d="M214.5 185.281C214.5 192.655 220.488 198.688 227.906 198.688V203.156C227.906 208.027 223.884 212.094 218.969 212.094H214.5H111.719C106.803 212.094 102.781 208.027 102.781 203.156V122.719V24.4062C102.781 19.4906 106.803 15.4688 111.719 15.4688H218.969C223.884 15.4688 227.906 19.4906 227.906 24.4062V90.8566V91.4375C220.488 91.4375 214.5 97.4256 214.5 104.844C214.5 112.217 220.488 118.25 227.906 118.25C220.488 118.25 214.5 124.238 214.5 131.656C214.5 139.03 220.488 145.062 227.906 145.062C220.488 145.062 214.5 151.051 214.5 158.469C214.5 165.842 220.488 171.875 227.906 171.875C220.488 171.875 214.5 177.863 214.5 185.281Z" fill="#1F45EA"/>
<path d="M227.906 118.25H232.375H232.733C239.972 118.384 245.781 124.372 245.781 131.612C245.781 139.03 239.793 145.018 232.375 145.018H227.906V145.062C220.488 145.062 214.5 139.03 214.5 131.656C214.5 124.238 220.488 118.25 227.906 118.25Z" fill="#EAC6BB"/>
<path d="M232.375 118.25H227.906C220.488 118.25 214.5 112.217 214.5 104.844C214.5 97.4256 220.488 91.4375 227.906 91.4375H232.375C239.793 91.4375 245.781 97.4256 245.781 104.844C245.781 112.083 239.972 118.071 232.733 118.25C232.598 118.25 232.509 118.25 232.375 118.25Z" fill="#EAC6BB"/>
<path d="M227.906 145.018H232.375C239.793 145.018 245.781 151.051 245.781 158.424C245.781 165.395 240.508 171.071 233.76 171.736V171.96C233.313 171.92 232.822 171.875 232.375 171.875H227.906C220.488 171.875 214.5 165.842 214.5 158.469C214.5 151.051 220.488 145.063 227.906 145.063V145.018Z" fill="#EAC6BB"/>
<path d="M227.906 198.688C220.488 198.688 214.5 192.655 214.5 185.281C214.5 177.863 220.488 171.875 227.906 171.875H232.375C232.822 171.875 233.313 171.92 233.76 171.964C240.508 172.635 245.781 178.31 245.781 185.281C245.781 192.655 239.793 198.688 232.375 198.688H227.906Z" fill="#EAC6BB"/>
<path d="M165.344 198.688C170.259 198.688 174.281 194.666 174.281 189.75C174.281 184.79 170.259 180.812 165.344 180.812C160.428 180.812 156.406 184.79 156.406 189.75C156.406 194.666 160.428 198.688 165.344 198.688Z" fill="black"/>
<path d="M165.344 180.812C170.259 180.812 174.281 184.79 174.281 189.75C174.281 194.666 170.259 198.688 165.344 198.688C160.428 198.688 156.406 194.666 156.406 189.75C156.406 184.79 160.428 180.812 165.344 180.812Z" fill="#4A89DC"/>
<path d="M214.5 212.094L160.875 271.528L75.9688 241.99V95.9062C90.805 95.9062 102.781 107.882 102.781 122.719V203.156C102.781 208.027 106.803 212.094 111.719 212.094H214.5Z" fill="#EAC6BB"/>
<path d="M67.0312 238.906L75.9688 241.99L160.875 271.528L169.812 274.656L160.875 292.531H40.2188L67.0312 238.906Z" fill="#656D78"/>
<path d="M71.6295 270.183C69.1583 270.183 67.1384 268.186 67.1384 265.714C67.1384 263.243 69.1136 261.246 71.5804 261.246H71.6295C74.0963 261.246 76.0983 263.243 76.0983 265.714C76.0983 268.186 74.0963 270.183 71.6295 270.183Z" fill="#FFCE54"/>
<path d="M152.072 37.8125C149.6 37.8125 147.581 35.815 147.581 33.3438C147.581 30.8725 149.556 28.875 152.023 28.875H152.072C154.538 28.875 156.54 30.8725 156.54 33.3438C156.54 35.815 154.538 37.8125 152.072 37.8125Z" fill="#4A89DC"/>
<path d="M178.75 37.8125H165.344C162.873 37.8125 160.875 35.815 160.875 33.3438C160.875 30.8725 162.873 28.875 165.344 28.875H178.75C181.221 28.875 183.219 30.8725 183.219 33.3438C183.219 35.815 181.221 37.8125 178.75 37.8125Z" fill="#4A89DC"/>
<g clip-path="url(#clip1)">
<path d="M161.866 71.8867L168.714 83.7502H155.018L161.866 71.8867Z" fill="white"/>
<path d="M155.018 83.7502L161.866 95.6138H148.169L155.018 83.7502Z" fill="white"/>
<path d="M168.715 83.7502L175.563 95.6138H161.866L168.715 83.7502Z" fill="white"/>
<path d="M175.563 95.6138L182.411 83.7502H168.715L175.563 95.6138Z" fill="#CCCDFF"/>
</g>
<path d="M154.686 127.43L153.336 123.44C153.236 123.187 153.129 122.89 153.016 122.55C152.902 122.203 152.789 121.83 152.676 121.43C152.576 121.837 152.469 122.213 152.356 122.56C152.242 122.907 152.136 123.207 152.036 123.46L150.696 127.43H154.686ZM160.056 133H157.436C157.142 133 156.906 132.933 156.726 132.8C156.546 132.66 156.409 132.483 156.316 132.27L155.456 129.73H149.916L149.056 132.27C148.982 132.457 148.849 132.627 148.656 132.78C148.469 132.927 148.236 133 147.956 133H145.316L150.956 118.43H154.416L160.056 133ZM166.445 125.58C167.325 125.58 167.958 125.37 168.345 124.95C168.731 124.53 168.925 123.943 168.925 123.19C168.925 122.857 168.875 122.553 168.775 122.28C168.675 122.007 168.521 121.773 168.315 121.58C168.115 121.38 167.858 121.227 167.545 121.12C167.238 121.013 166.871 120.96 166.445 120.96H164.685V125.58H166.445ZM166.445 118.43C167.471 118.43 168.351 118.553 169.085 118.8C169.825 119.04 170.431 119.373 170.905 119.8C171.385 120.227 171.738 120.73 171.965 121.31C172.191 121.89 172.305 122.517 172.305 123.19C172.305 123.917 172.188 124.583 171.955 125.19C171.721 125.797 171.365 126.317 170.885 126.75C170.405 127.183 169.795 127.523 169.055 127.77C168.321 128.01 167.451 128.13 166.445 128.13H164.685V133H161.305V118.43H166.445ZM179.259 125.58C180.139 125.58 180.773 125.37 181.159 124.95C181.546 124.53 181.739 123.943 181.739 123.19C181.739 122.857 181.689 122.553 181.589 122.28C181.489 122.007 181.336 121.773 181.129 121.58C180.929 121.38 180.673 121.227 180.359 121.12C180.053 121.013 179.686 120.96 179.259 120.96H177.499V125.58H179.259ZM179.259 118.43C180.286 118.43 181.166 118.553 181.899 118.8C182.639 119.04 183.246 119.373 183.719 119.8C184.199 120.227 184.553 120.73 184.779 121.31C185.006 121.89 185.119 122.517 185.119 123.19C185.119 123.917 185.003 124.583 184.769 125.19C184.536 125.797 184.179 126.317 183.699 126.75C183.219 127.183 182.609 127.523 181.869 127.77C181.136 128.01 180.266 128.13 179.259 128.13H177.499V133H174.119V118.43H179.259Z" fill="white"/>
<path d="M17.802 40.8658L5.33874e-05 29.9656L18.3909 20L17.802 40.8658Z" fill="#F3F6FF"/>
</g>
<defs>
<clipPath id="clip0">
<rect y="11" width="286" height="286" fill="white"/>
</clipPath>
<clipPath id="clip1">
<rect x="148.027" y="71.8867" width="34.6328" height="47.4805" fill="white"/>
</clipPath>
</defs>
</svg>
