<svg width="334" height="177" viewBox="0 0 334 177" fill="none" xmlns="http://www.w3.org/2000/svg">
<path d="M164.831 154.329C230.876 171.155 286.463 204.008 322.259 126.913C345.1 66.852 294.337 56.1654 258.074 57.0821C-43.1216 64.6961 68.5411 -19.1966 29.4264 6.26006C3.97007 22.8275 0.223597 113.764 24.7817 135.699C53.1324 161.022 98.7863 137.504 164.831 154.329Z" fill="#AAABFF"/>
<path d="M43.8188 59.353L43.3099 57.0539C43.2778 56.9325 43.2448 56.7907 43.211 56.6287C43.1804 56.4671 43.1531 56.2925 43.1292 56.1049C43.0601 56.2845 42.9894 56.4504 42.917 56.6027C42.8482 56.7521 42.7836 56.8819 42.7231 56.992L41.6798 59.0906L43.8188 59.353ZM45.9846 62.3943L44.8283 62.2525C44.6992 62.2367 44.597 62.1939 44.5216 62.1242C44.4499 62.0516 44.4001 61.9649 44.3722 61.8641L44.0545 60.4297L41.186 60.0778L40.531 61.3929C40.4877 61.4715 40.4205 61.5405 40.3293 61.5998C40.2384 61.6559 40.1302 61.6762 40.0044 61.6607L38.8382 61.5177L42.5354 54.6618L44.059 54.8487L45.9846 62.3943ZM51.3704 61.8259L51.2218 63.0368L46.9489 62.5126L47.8322 55.3116L49.3211 55.4942L48.5863 61.4843L51.3704 61.8259ZM55.3079 59.8657C55.7745 59.9229 56.129 59.8522 56.3717 59.6536C56.6176 59.4554 56.7646 59.1611 56.8125 58.7707C56.8344 58.5921 56.8261 58.4265 56.7878 58.274C56.7531 58.1187 56.6858 57.9828 56.5859 57.8664C56.4897 57.7472 56.3607 57.649 56.1988 57.5721C56.037 57.4952 55.8403 57.4425 55.6087 57.4141L54.6658 57.2984L54.365 59.75L55.3079 59.8657ZM55.7475 56.2826C56.2405 56.343 56.6585 56.4531 57.0016 56.6127C57.348 56.7727 57.6243 56.9712 57.8303 57.208C58.0367 57.4416 58.1771 57.7073 58.2514 58.0052C58.329 58.3036 58.3473 58.6198 58.3063 58.954C58.2628 59.308 58.1652 59.6251 58.0132 59.9054C57.8613 60.1856 57.6549 60.4172 57.394 60.6002C57.1332 60.7831 56.8168 60.9122 56.4448 60.9875C56.0733 61.0594 55.6477 61.066 55.1679 61.0071L54.225 60.8915L53.9212 63.3679L52.4324 63.1853L53.3157 55.9842L55.7475 56.2826ZM66.0051 57.5409L65.1218 64.7419L63.623 64.558L64.0035 61.4563L60.8323 61.0673L60.4518 64.169L58.953 63.9852L59.8364 56.7841L61.3351 56.968L60.9601 60.0251L64.1314 60.4141L64.5064 57.357L66.0051 57.5409ZM71.0646 62.6952L70.5557 60.3962C70.5236 60.2747 70.4906 60.1329 70.4567 59.9709C70.4262 59.8094 70.3989 59.6347 70.3749 59.4471C70.3059 59.6267 70.2351 59.7926 70.1627 59.945C70.094 60.0944 70.0294 60.2241 69.9689 60.3342L68.9256 62.4328L71.0646 62.6952ZM73.2304 65.7366L72.074 65.5947C71.945 65.5789 71.8428 65.5361 71.7674 65.4664C71.6957 65.3938 71.6459 65.3071 71.6179 65.2063L71.3002 63.7719L68.4317 63.42L67.7767 64.7351C67.7335 64.8137 67.6663 64.8827 67.575 64.9421C67.4842 64.9981 67.3759 65.0184 67.2502 65.003L66.0839 64.8599L69.7812 58.0041L71.3048 58.191L73.2304 65.7366Z" fill="#8D8FFF"/>
<path d="M182.341 76.9839L181.832 74.6848C181.8 74.5633 181.767 74.4216 181.733 74.2596C181.702 74.098 181.675 73.9234 181.651 73.7357C181.582 73.9153 181.511 74.0813 181.439 74.2336C181.37 74.383 181.305 74.5128 181.245 74.6229L180.202 76.7215L182.341 76.9839ZM184.506 80.0252L183.35 79.8833C183.221 79.8675 183.119 79.8247 183.043 79.755C182.972 79.6824 182.922 79.5957 182.894 79.4949L182.576 78.0606L179.708 77.7087L179.053 79.0237C179.009 79.1024 178.942 79.1714 178.851 79.2307C178.76 79.2867 178.652 79.307 178.526 79.2916L177.36 79.1485L181.057 72.2927L182.581 72.4796L184.506 80.0252ZM189.892 79.4567L189.744 80.6676L185.471 80.1435L186.354 72.9424L187.843 73.1251L187.108 79.1152L189.892 79.4567ZM193.83 77.4966C194.296 77.5538 194.651 77.4831 194.893 77.2845C195.139 77.0863 195.286 76.792 195.334 76.4016C195.356 76.2229 195.348 76.0574 195.309 75.9049C195.275 75.7495 195.208 75.6136 195.108 75.4973C195.011 75.378 194.882 75.2799 194.721 75.203C194.559 75.126 194.362 75.0733 194.13 75.0449L193.187 74.9293L192.887 77.3809L193.83 77.4966ZM194.269 73.9134C194.762 73.9739 195.18 74.0839 195.523 74.2436C195.87 74.4036 196.146 74.602 196.352 74.8389C196.558 75.0724 196.699 75.3382 196.773 75.6361C196.851 75.9344 196.869 76.2507 196.828 76.5848C196.785 76.9388 196.687 77.256 196.535 77.5362C196.383 77.8165 196.177 78.0481 195.916 78.231C195.655 78.4139 195.338 78.543 194.967 78.6183C194.595 78.6903 194.169 78.6968 193.69 78.638L192.747 78.5223L192.443 80.9988L190.954 80.8161L191.837 73.6151L194.269 73.9134ZM204.527 75.1717L203.644 82.3727L202.145 82.1889L202.525 79.0871L199.354 78.6981L198.974 81.7999L197.475 81.616L198.358 74.415L199.857 74.5988L199.482 77.6559L202.653 78.0449L203.028 74.9879L204.527 75.1717ZM209.586 80.3261L209.077 78.027C209.045 77.9055 209.012 77.7638 208.978 77.6018C208.948 77.4402 208.921 77.2656 208.897 77.0779C208.828 77.2575 208.757 77.4235 208.684 77.5758C208.616 77.7252 208.551 77.855 208.491 77.9651L207.447 80.0637L209.586 80.3261ZM211.752 83.3674L210.596 83.2256C210.467 83.2097 210.365 83.167 210.289 83.0973C210.217 83.0247 210.168 82.938 210.14 82.8371L209.822 81.4028L206.953 81.0509L206.298 82.3659C206.255 82.4446 206.188 82.5136 206.097 82.5729C206.006 82.6289 205.898 82.6492 205.772 82.6338L204.606 82.4908L208.303 75.6349L209.827 75.8218L211.752 83.3674Z" fill="#8D8FFF"/>
<path d="M89.9529 64.285C90.4194 64.3422 90.774 64.2715 91.0166 64.0729C91.2626 63.8747 91.4095 63.5804 91.4574 63.19C91.4793 63.0114 91.4711 62.8458 91.4327 62.6933C91.398 62.538 91.3307 62.4021 91.2308 62.2857C91.1346 62.1665 91.0056 62.0684 90.8438 61.9914C90.6819 61.9145 90.4852 61.8618 90.2536 61.8334L89.3107 61.7177L89.0099 64.1693L89.9529 64.285ZM90.3924 60.7019C90.8854 60.7623 91.3034 60.8724 91.6466 61.032C91.993 61.1921 92.2692 61.3905 92.4752 61.6273C92.6817 61.8609 92.822 62.1266 92.8963 62.4245C92.9739 62.7229 92.9922 63.0391 92.9512 63.3733C92.9078 63.7273 92.8101 64.0444 92.6582 64.3247C92.5063 64.6049 92.2999 64.8365 92.039 65.0195C91.7781 65.2024 91.4617 65.3315 91.0898 65.4068C90.7182 65.4787 90.2926 65.4853 89.8129 65.4264L88.8699 65.3108L88.5661 67.7872L87.0773 67.6046L87.9607 60.4036L90.3924 60.7019ZM100.65 61.9602L99.7667 69.1612L98.268 68.9773L98.6484 65.8756L95.4772 65.4866L95.0967 68.5883L93.598 68.4045L94.4813 61.2034L95.9801 61.3873L95.6051 64.4444L98.7763 64.8334L99.1513 61.7763L100.65 61.9602ZM103.071 69.5666L101.573 69.3827L102.456 62.1817L103.955 62.3655L103.071 69.5666ZM109.297 69.1011L109.148 70.312L104.875 69.7878L105.758 62.5868L107.247 62.7694L106.513 68.7595L109.297 69.1011ZM114.78 69.7737L114.632 70.9847L110.359 70.4605L111.242 63.2595L112.731 63.4421L111.996 69.4322L114.78 69.7737Z" fill="#8D8FFF"/>
<path d="M227.953 82.285C228.419 82.3422 228.774 82.2715 229.017 82.0729C229.263 81.8747 229.41 81.5804 229.457 81.19C229.479 81.0114 229.471 80.8458 229.433 80.6933C229.398 80.538 229.331 80.4021 229.231 80.2857C229.135 80.1665 229.006 80.0684 228.844 79.9914C228.682 79.9145 228.485 79.8618 228.254 79.8334L227.311 79.7177L227.01 82.1693L227.953 82.285ZM228.392 78.7019C228.885 78.7623 229.303 78.8724 229.647 79.032C229.993 79.1921 230.269 79.3905 230.475 79.6273C230.682 79.8609 230.822 80.1266 230.896 80.4245C230.974 80.7229 230.992 81.0391 230.951 81.3733C230.908 81.7273 230.81 82.0444 230.658 82.3247C230.506 82.6049 230.3 82.8365 230.039 83.0195C229.778 83.2024 229.462 83.3315 229.09 83.4068C228.718 83.4787 228.293 83.4853 227.813 83.4264L226.87 83.3108L226.566 85.7872L225.077 85.6046L225.961 78.4036L228.392 78.7019ZM238.65 79.9602L237.767 87.1612L236.268 86.9773L236.648 83.8756L233.477 83.4866L233.097 86.5883L231.598 86.4045L232.481 79.2034L233.98 79.3873L233.605 82.4444L236.776 82.8334L237.151 79.7763L238.65 79.9602ZM241.071 87.5666L239.573 87.3827L240.456 80.1817L241.955 80.3655L241.071 87.5666ZM247.297 87.1011L247.148 88.312L242.875 87.7878L243.758 80.5868L245.247 80.7694L244.513 86.7595L247.297 87.1011ZM252.78 87.7737L252.632 88.9847L248.359 88.4605L249.242 81.2595L250.731 81.4421L249.996 87.4322L252.78 87.7737Z" fill="#8D8FFF"/>
<path d="M134.565 70.1298C134.5 70.6558 134.351 71.1329 134.117 71.5609C133.886 71.9894 133.589 72.3475 133.225 72.6353C132.863 72.9235 132.445 73.134 131.968 73.267C131.492 73.3967 130.978 73.4276 130.425 73.3599C129.873 73.2921 129.381 73.1378 128.951 72.8969C128.521 72.6527 128.164 72.3469 127.88 71.9796C127.596 71.6123 127.392 71.1927 127.268 70.7208C127.148 70.2494 127.12 69.7506 127.185 69.2245C127.249 68.6985 127.397 68.2229 127.627 67.7977C127.861 67.3697 128.16 67.0118 128.524 66.724C128.889 66.4362 129.309 66.2275 129.785 66.0978C130.261 65.9649 130.776 65.9323 131.328 66C131.881 66.0678 132.372 66.2238 132.802 66.468C133.233 66.7089 133.588 67.0144 133.869 67.3846C134.153 67.752 134.355 68.1713 134.475 68.6428C134.599 69.1114 134.629 69.607 134.565 70.1298ZM133.041 69.9429C133.087 69.5657 133.079 69.2222 133.016 68.9122C132.954 68.599 132.841 68.3266 132.678 68.095C132.519 67.8605 132.312 67.6722 132.057 67.5302C131.807 67.3852 131.512 67.2921 131.175 67.2507C130.837 67.2093 130.528 67.2284 130.246 67.308C129.965 67.3843 129.717 67.5168 129.502 67.7054C129.291 67.8911 129.118 68.1284 128.982 68.4173C128.846 68.7029 128.755 69.0343 128.708 69.4114C128.662 69.7919 128.67 70.1388 128.732 70.452C128.795 70.762 128.906 71.0325 129.066 71.2637C129.229 71.4953 129.437 71.6837 129.691 71.8291C129.946 71.9712 130.242 72.0629 130.579 72.1043C130.917 72.1457 131.225 72.128 131.503 72.0513C131.785 71.9717 132.031 71.839 132.242 71.6533C132.456 71.468 132.631 71.2326 132.767 70.947C132.903 70.6581 132.994 70.3234 133.041 69.9429ZM144.331 67.6757L143.448 74.8767L142.133 74.7154L142.675 70.2936C142.687 70.2009 142.701 70.1019 142.717 69.9964C142.737 69.8913 142.76 69.785 142.786 69.6775L140.248 73.3306C140.109 73.5318 139.922 73.618 139.687 73.5892L139.478 73.5636C139.363 73.5494 139.263 73.5104 139.181 73.4465C139.098 73.3793 139.037 73.2895 138.997 73.1771L137.408 69.0027C137.404 69.1197 137.399 69.2332 137.392 69.3432C137.385 69.4499 137.377 69.5495 137.365 69.6422L136.823 74.064L135.508 73.9027L136.391 66.7017L137.523 66.8405C137.585 66.8482 137.641 66.8567 137.691 66.8661C137.74 66.8755 137.782 66.8907 137.816 66.9117C137.854 66.9298 137.886 66.9573 137.912 66.994C137.941 67.0278 137.967 67.0747 137.99 67.1346L139.534 71.223C139.583 71.3465 139.626 71.4727 139.664 71.6016C139.705 71.7309 139.742 71.8631 139.776 71.9983C139.842 71.872 139.909 71.7493 139.978 71.63C140.049 71.5112 140.124 71.3978 140.201 71.2897L142.67 67.7087C142.707 67.6561 142.743 67.6169 142.78 67.5912C142.817 67.5622 142.855 67.5433 142.893 67.5345C142.935 67.5229 142.979 67.5182 143.026 67.5206C143.076 67.5234 143.134 67.5288 143.2 67.5369L144.331 67.6757ZM149.383 72.8292L148.874 70.5301C148.842 70.4086 148.809 70.2669 148.775 70.1049C148.745 69.9433 148.718 69.7687 148.694 69.581C148.625 69.7606 148.554 69.9266 148.481 70.0789C148.413 70.2283 148.348 70.3581 148.288 70.4682L147.244 72.5668L149.383 72.8292ZM151.549 75.8705L150.393 75.7286C150.264 75.7128 150.162 75.6701 150.086 75.6004C150.014 75.5278 149.965 75.441 149.937 75.3402L149.619 73.9059L146.75 73.554L146.095 74.869C146.052 74.9477 145.985 75.0167 145.894 75.076C145.803 75.132 145.695 75.1523 145.569 75.1369L144.403 74.9938L148.1 68.138L149.624 68.3249L151.549 75.8705ZM159.565 69.5445L158.682 76.7455L157.183 76.5616L157.564 73.4599L154.393 73.0709L154.012 76.1726L152.513 75.9888L153.397 68.7878L154.895 68.9716L154.52 72.0287L157.692 72.4177L158.067 69.3606L159.565 69.5445ZM164.625 74.6988L164.116 72.3998C164.084 72.2783 164.051 72.1366 164.017 71.9746C163.987 71.813 163.959 71.6384 163.935 71.4507C163.866 71.6303 163.795 71.7963 163.723 71.9486C163.654 72.098 163.59 72.2278 163.529 72.3379L162.486 74.4365L164.625 74.6988ZM166.791 77.7402L165.634 77.5983C165.505 77.5825 165.403 77.5397 165.328 77.47C165.256 77.3974 165.206 77.3107 165.178 77.2099L164.861 75.7755L161.992 75.4237L161.337 76.7387C161.294 76.8174 161.227 76.8864 161.135 76.9457C161.045 77.0017 160.936 77.022 160.811 77.0066L159.644 76.8635L163.342 70.0077L164.865 70.1946L166.791 77.7402Z" fill="#8D8FFF"/>
<path d="M272.043 87.4989C271.978 88.025 271.829 88.502 271.595 88.9301C271.365 89.3585 271.067 89.7166 270.703 90.0044C270.342 90.2926 269.923 90.5032 269.447 90.6362C268.971 90.7658 268.456 90.7968 267.904 90.729C267.351 90.6612 266.86 90.5069 266.429 90.266C265.999 90.0218 265.642 89.7161 265.358 89.3488C265.074 88.9814 264.87 88.5618 264.747 88.09C264.627 87.6185 264.599 87.1197 264.663 86.5937C264.728 86.0676 264.875 85.592 265.105 85.1669C265.339 84.7388 265.638 84.3809 266.003 84.0932C266.367 83.8054 266.787 83.5967 267.263 83.467C267.74 83.334 268.254 83.3014 268.807 83.3692C269.359 83.4369 269.851 83.5929 270.281 83.8371C270.711 84.078 271.067 84.3836 271.347 84.7538C271.631 85.1211 271.833 85.5405 271.953 86.012C272.077 86.4805 272.107 86.9762 272.043 87.4989ZM270.519 87.312C270.566 86.9349 270.557 86.5913 270.495 86.2814C270.432 85.9681 270.32 85.6957 270.157 85.4641C269.997 85.2297 269.79 85.0414 269.536 84.8993C269.285 84.7544 268.991 84.6612 268.653 84.6198C268.316 84.5784 268.006 84.5975 267.724 84.6771C267.443 84.7534 267.195 84.8859 266.98 85.0745C266.77 85.2602 266.596 85.4975 266.46 85.7864C266.324 86.072 266.233 86.4034 266.187 86.7806C266.14 87.161 266.148 87.5079 266.21 87.8212C266.273 88.1311 266.384 88.4017 266.544 88.6328C266.707 88.8644 266.916 89.0529 267.17 89.1982C267.424 89.3403 267.72 89.432 268.058 89.4734C268.395 89.5148 268.703 89.4972 268.981 89.4204C269.263 89.3408 269.509 89.2082 269.72 89.0225C269.934 88.8372 270.109 88.6017 270.245 88.3161C270.381 88.0272 270.473 87.6925 270.519 87.312ZM281.81 85.0449L280.927 92.2459L279.611 92.0846L280.154 87.6627C280.165 87.5701 280.179 87.471 280.195 87.3655C280.215 87.2605 280.238 87.1542 280.265 87.0466L277.726 90.6997C277.587 90.901 277.4 90.9872 277.165 90.9584L276.957 90.9328C276.841 90.9186 276.742 90.8795 276.659 90.8156C276.576 90.7484 276.515 90.6586 276.475 90.5463L274.887 86.3718C274.883 86.4888 274.877 86.6023 274.87 86.7123C274.864 86.819 274.855 86.9187 274.844 87.0113L274.301 91.4332L272.986 91.2718L273.869 84.0708L275.001 84.2096C275.064 84.2173 275.12 84.2259 275.169 84.2353C275.218 84.2447 275.26 84.2599 275.294 84.2809C275.332 84.299 275.364 84.3264 275.39 84.3631C275.42 84.397 275.446 84.4438 275.469 84.5037L277.012 88.5921C277.061 88.7156 277.104 88.8418 277.142 88.9707C277.183 89.1001 277.221 89.2323 277.255 89.3674C277.321 89.2411 277.388 89.1184 277.456 88.9992C277.528 88.8803 277.602 88.7669 277.679 88.6588L280.148 85.0778C280.185 85.0252 280.222 84.9861 280.259 84.9604C280.296 84.9313 280.333 84.9124 280.371 84.9037C280.413 84.892 280.457 84.8873 280.504 84.8897C280.554 84.8925 280.612 84.8979 280.678 84.9061L281.81 85.0449ZM286.862 90.1983L286.353 87.8992C286.321 87.7778 286.288 87.636 286.254 87.474C286.223 87.3124 286.196 87.1378 286.172 86.9502C286.103 87.1298 286.032 87.2957 285.96 87.448C285.891 87.5974 285.827 87.7272 285.766 87.8373L284.723 89.9359L286.862 90.1983ZM289.028 93.2396L287.871 93.0978C287.742 93.082 287.64 93.0392 287.565 92.9695C287.493 92.8969 287.443 92.8102 287.415 92.7094L287.097 91.275L284.229 90.9231L283.574 92.2382C283.531 92.3168 283.463 92.3858 283.372 92.4451C283.281 92.5012 283.173 92.5215 283.047 92.506L281.881 92.363L285.578 85.5071L287.102 85.694L289.028 93.2396ZM297.044 86.9136L296.161 94.1146L294.662 93.9308L295.042 90.829L291.871 90.44L291.491 93.5418L289.992 93.3579L290.875 86.1569L292.374 86.3407L291.999 89.3978L295.17 89.7868L295.545 86.7298L297.044 86.9136ZM302.103 92.068L301.594 89.7689C301.562 89.6474 301.529 89.5057 301.495 89.3437C301.465 89.1821 301.438 89.0075 301.414 88.8198C301.345 88.9994 301.274 89.1654 301.201 89.3177C301.133 89.4671 301.068 89.5969 301.008 89.707L299.964 91.8056L302.103 92.068ZM304.269 95.1093L303.113 94.9675C302.984 94.9516 302.882 94.9089 302.806 94.8392C302.734 94.7666 302.685 94.6799 302.657 94.579L302.339 93.1447L299.47 92.7928L298.815 94.1078C298.772 94.1865 298.705 94.2555 298.614 94.3148C298.523 94.3708 298.415 94.3912 298.289 94.3757L297.123 94.2327L300.82 87.3768L302.344 87.5637L304.269 95.1093Z" fill="#8D8FFF"/>
<path d="M36.5537 95.6286C36.4981 95.699 36.4432 95.7493 36.3891 95.7796C36.3388 95.8071 36.2755 95.8161 36.1994 95.8068C36.1266 95.7978 36.0503 95.7633 35.9703 95.7031C35.8941 95.64 35.8034 95.5718 35.6982 95.4984C35.593 95.4251 35.4707 95.3547 35.3312 95.2872C35.1921 95.2164 35.025 95.169 34.8298 95.1451C34.4857 95.1029 34.2181 95.149 34.027 95.2833C33.8363 95.4144 33.7257 95.6041 33.6953 95.8522C33.6758 96.011 33.7059 96.149 33.7855 96.2663C33.8689 96.3806 33.982 96.4851 34.1248 96.5799C34.271 96.6751 34.438 96.7644 34.6259 96.8479C34.8138 96.9314 35.0059 97.0221 35.2021 97.1201C35.3987 97.2147 35.5887 97.322 35.7721 97.4419C35.9556 97.5618 36.1145 97.7039 36.2488 97.8681C36.3864 98.0328 36.4886 98.2266 36.5553 98.4497C36.6256 98.6699 36.6424 98.9306 36.6054 99.2317C36.5653 99.5592 36.4696 99.8598 36.3185 100.133C36.1711 100.404 35.9767 100.634 35.7353 100.823C35.4942 101.008 35.2074 101.142 34.8748 101.226C34.5454 101.31 34.1806 101.327 33.7803 101.278C33.552 101.25 33.3265 101.199 33.1039 101.124C32.8846 101.05 32.6742 100.959 32.4726 100.851C32.2743 100.742 32.0896 100.619 31.9185 100.48C31.7475 100.342 31.6012 100.193 31.4797 100.034L32.0028 99.3824C32.0457 99.3339 32.099 99.2968 32.1626 99.271C32.2266 99.2419 32.2917 99.2314 32.3579 99.2396C32.4472 99.2505 32.5374 99.2952 32.6286 99.3735C32.7197 99.4519 32.8249 99.5386 32.9442 99.6339C33.0635 99.7291 33.2035 99.8202 33.3641 99.907C33.528 99.9943 33.7291 100.053 33.9673 100.082C34.3147 100.124 34.5924 100.078 34.8005 99.9422C35.0119 99.8069 35.1368 99.5821 35.1754 99.2678C35.1977 99.0858 35.1678 98.9327 35.0857 98.8085C35.0068 98.6846 34.896 98.5753 34.7531 98.4805C34.6102 98.3858 34.4445 98.3 34.2558 98.2231C34.0674 98.1429 33.8748 98.0571 33.6778 97.9658C33.4808 97.8745 33.2903 97.7705 33.1065 97.6539C32.9227 97.5373 32.764 97.3936 32.6305 97.2227C32.4969 97.0519 32.396 96.8481 32.3276 96.6113C32.2626 96.375 32.2506 96.0897 32.2916 95.7556C32.3245 95.4876 32.4092 95.2343 32.546 94.9959C32.6827 94.7574 32.8656 94.5532 33.0947 94.3831C33.3237 94.2131 33.5945 94.0868 33.9068 94.0042C34.2225 93.922 34.5739 93.9047 34.961 93.9522C35.3944 94.0053 35.7864 94.1223 36.137 94.303C36.4914 94.4808 36.7813 94.7044 37.0068 94.9739L36.5537 95.6286ZM43.5363 96.3038L41.4321 96.0456L40.6961 102.046L39.2023 101.862L39.9383 95.8624L37.834 95.6043L37.9814 94.4033L43.6836 95.1028L43.5363 96.3038ZM46.7097 98.9347C46.9513 98.9644 47.1633 98.9601 47.346 98.9221C47.5291 98.8807 47.6833 98.814 47.8088 98.722C47.9347 98.6266 48.033 98.5093 48.1038 98.3703C48.1746 98.2312 48.2206 98.0756 48.2417 97.9036C48.2835 97.5628 48.2018 97.2841 47.9966 97.0675C47.7948 96.8513 47.4623 96.7148 46.9991 96.658L46.2249 96.563L45.9455 98.841L46.7097 98.9347ZM49.7335 103.154L48.3885 102.989C48.1371 102.958 47.9669 102.84 47.8779 102.634L46.7791 100.258C46.7334 100.165 46.6783 100.095 46.6137 100.046C46.5524 99.9985 46.4556 99.9665 46.3232 99.9502L45.817 99.8881L45.4803 102.633L43.9915 102.45L44.8749 95.2489L47.1379 95.5265C47.6408 95.5882 48.0644 95.6939 48.4087 95.8436C48.7535 95.99 49.0286 96.1698 49.2342 96.3831C49.4397 96.5964 49.5796 96.8386 49.6539 97.1096C49.7285 97.3774 49.7469 97.6651 49.7092 97.9728C49.6799 98.211 49.6174 98.4334 49.5215 98.6399C49.4294 98.8435 49.3081 99.0251 49.1575 99.1846C49.007 99.3441 48.8291 99.4802 48.6239 99.5927C48.4186 99.7052 48.1902 99.788 47.9385 99.8411C48.028 99.9058 48.1094 99.9813 48.1828 100.068C48.2565 100.15 48.3202 100.247 48.3738 100.358L49.7335 103.154ZM57.7872 96.8328L56.9039 104.034L56.1346 103.94C56.0188 103.925 55.9235 103.895 55.8485 103.849C55.774 103.8 55.7044 103.724 55.6396 103.622L52.6116 98.6159C52.6073 98.733 52.5999 98.8479 52.5894 98.9608C52.5823 99.0741 52.5728 99.1787 52.561 99.2747L52.0502 103.438L50.7351 103.277L51.6184 96.0761L52.4026 96.1723C52.4654 96.18 52.518 96.1898 52.5602 96.2017C52.6061 96.2107 52.646 96.2274 52.68 96.2517C52.7143 96.2727 52.7462 96.3001 52.7757 96.3339C52.8051 96.3678 52.8366 96.4119 52.8702 96.4664L55.9206 101.495C55.9228 101.368 55.9277 101.246 55.9353 101.129C55.9433 101.009 55.9538 100.897 55.9668 100.791L56.4721 96.6715L57.7872 96.8328ZM62.6633 101.018L65.1348 101.321L64.7701 104.294C64.37 104.517 63.9538 104.665 63.5215 104.74C63.0929 104.812 62.647 104.819 62.1838 104.762C61.5916 104.69 61.0668 104.533 60.6094 104.292C60.1524 104.048 59.7736 103.741 59.473 103.372C59.1724 103.002 58.957 102.581 58.8269 102.109C58.6969 101.636 58.6645 101.133 58.7298 100.601C58.796 100.061 58.9443 99.5775 59.1749 99.149C59.4088 98.721 59.7093 98.3649 60.0767 98.0809C60.444 97.7968 60.8704 97.5922 61.3559 97.4671C61.8447 97.3423 62.377 97.3153 62.9527 97.3859C63.2504 97.4224 63.5253 97.4813 63.7773 97.5626C64.0297 97.6406 64.2598 97.736 64.4676 97.8488C64.6758 97.9583 64.8638 98.0821 65.0316 98.2202C65.1993 98.3583 65.3491 98.506 65.481 98.6632L64.9676 99.2753C64.8885 99.373 64.7945 99.427 64.6858 99.4372C64.5771 99.4473 64.4645 99.4067 64.3482 99.3152C64.238 99.2278 64.1284 99.1488 64.0195 99.0784C63.9144 99.005 63.7999 98.9389 63.6761 98.8801C63.5524 98.8213 63.4158 98.7709 63.2665 98.7291C63.1171 98.6873 62.9432 98.6542 62.7447 98.6298C62.4105 98.5888 62.1007 98.6096 61.8152 98.6921C61.5297 98.7746 61.278 98.91 61.0601 99.0982C60.8455 99.2868 60.6687 99.5237 60.5296 99.8089C60.3905 100.094 60.2985 100.42 60.2534 100.788C60.2047 101.185 60.2173 101.547 60.2913 101.875C60.3656 102.2 60.4921 102.483 60.6709 102.723C60.8496 102.963 61.0744 103.157 61.3451 103.304C61.6192 103.452 61.9315 103.547 62.2822 103.59C62.5205 103.62 62.735 103.622 62.926 103.599C63.1207 103.572 63.3124 103.529 63.5012 103.468L63.6498 102.257L62.8359 102.157C62.7399 102.145 62.6669 102.111 62.6167 102.055C62.5703 101.995 62.5519 101.926 62.5617 101.846L62.6633 101.018ZM68.4387 99.3233L68.2116 101.174L70.6136 101.469L70.4754 102.596L68.0734 102.301L67.8415 104.192L70.9283 104.57L70.7853 105.737L66.1996 105.174L67.083 97.9732L71.6686 98.5357L71.5256 99.7019L68.4387 99.3233Z" fill="#8D8FFF"/>
<path d="M175.075 113.259C175.02 113.33 174.965 113.38 174.911 113.411C174.86 113.438 174.797 113.447 174.721 113.438C174.648 113.429 174.572 113.394 174.492 113.334C174.416 113.271 174.325 113.203 174.22 113.129C174.115 113.056 173.992 112.986 173.853 112.918C173.714 112.847 173.547 112.8 173.352 112.776C173.007 112.734 172.74 112.78 172.549 112.914C172.358 113.045 172.247 113.235 172.217 113.483C172.198 113.642 172.228 113.78 172.307 113.897C172.391 114.011 172.504 114.116 172.647 114.211C172.793 114.306 172.96 114.395 173.148 114.479C173.336 114.562 173.528 114.653 173.724 114.751C173.92 114.846 174.11 114.953 174.294 115.073C174.477 115.193 174.636 115.335 174.771 115.499C174.908 115.664 175.01 115.857 175.077 116.081C175.147 116.301 175.164 116.561 175.127 116.863C175.087 117.19 174.991 117.491 174.84 117.764C174.693 118.035 174.498 118.265 174.257 118.453C174.016 118.639 173.729 118.773 173.396 118.857C173.067 118.941 172.702 118.958 172.302 118.909C172.074 118.881 171.848 118.83 171.626 118.755C171.406 118.681 171.196 118.59 170.994 118.481C170.796 118.373 170.611 118.25 170.44 118.111C170.269 117.973 170.123 117.824 170.001 117.664L170.525 117.013C170.567 116.965 170.621 116.928 170.684 116.902C170.748 116.873 170.813 116.862 170.88 116.87C170.969 116.881 171.059 116.926 171.15 117.004C171.241 117.083 171.347 117.17 171.466 117.265C171.585 117.36 171.725 117.451 171.886 117.538C172.05 117.625 172.251 117.683 172.489 117.713C172.836 117.755 173.114 117.709 173.322 117.573C173.534 117.438 173.659 117.213 173.697 116.899C173.719 116.717 173.69 116.564 173.607 116.439C173.529 116.315 173.418 116.206 173.275 116.111C173.132 116.017 172.966 115.931 172.777 115.854C172.589 115.774 172.397 115.688 172.2 115.597C172.002 115.505 171.812 115.401 171.628 115.285C171.444 115.168 171.286 115.024 171.152 114.854C171.019 114.683 170.918 114.479 170.849 114.242C170.784 114.006 170.772 113.721 170.813 113.386C170.846 113.118 170.931 112.865 171.068 112.627C171.204 112.388 171.387 112.184 171.616 112.014C171.845 111.844 172.116 111.718 172.429 111.635C172.744 111.553 173.096 111.536 173.483 111.583C173.916 111.636 174.308 111.753 174.659 111.934C175.013 112.112 175.303 112.335 175.529 112.605L175.075 113.259ZM182.058 113.935L179.954 113.676L179.218 119.677L177.724 119.493L178.46 113.493L176.356 113.235L176.503 112.034L182.205 112.734L182.058 113.935ZM185.231 116.566C185.473 116.595 185.685 116.591 185.868 116.553C186.051 116.512 186.205 116.445 186.331 116.353C186.456 116.257 186.555 116.14 186.626 116.001C186.696 115.862 186.742 115.706 186.763 115.534C186.805 115.194 186.724 114.915 186.518 114.698C186.317 114.482 185.984 114.346 185.521 114.289L184.747 114.194L184.467 116.472L185.231 116.566ZM188.255 120.785L186.91 120.62C186.659 120.589 186.489 120.471 186.4 120.265L185.301 117.889C185.255 117.796 185.2 117.725 185.135 117.677C185.074 117.629 184.977 117.597 184.845 117.581L184.339 117.519L184.002 120.263L182.513 120.081L183.397 112.88L185.66 113.157C186.163 113.219 186.586 113.325 186.93 113.474C187.275 113.621 187.55 113.801 187.756 114.014C187.961 114.227 188.101 114.469 188.176 114.74C188.25 115.008 188.269 115.296 188.231 115.604C188.202 115.842 188.139 116.064 188.043 116.271C187.951 116.474 187.83 116.656 187.679 116.815C187.529 116.975 187.351 117.111 187.146 117.224C186.94 117.336 186.712 117.419 186.46 117.472C186.55 117.537 186.631 117.612 186.704 117.698C186.778 117.781 186.842 117.878 186.896 117.989L188.255 120.785ZM196.309 114.464L195.426 121.665L194.656 121.57C194.541 121.556 194.445 121.526 194.37 121.48C194.296 121.43 194.226 121.355 194.161 121.253L191.133 116.247C191.129 116.364 191.122 116.479 191.111 116.592C191.104 116.705 191.095 116.81 191.083 116.906L190.572 121.069L189.257 120.908L190.14 113.707L190.924 113.803C190.987 113.811 191.04 113.821 191.082 113.833C191.128 113.842 191.168 113.858 191.202 113.883C191.236 113.904 191.268 113.931 191.297 113.965C191.327 113.999 191.358 114.043 191.392 114.097L194.442 119.126C194.445 118.999 194.449 118.877 194.457 118.76C194.465 118.64 194.476 118.527 194.489 118.422L194.994 114.302L196.309 114.464ZM201.185 118.649L203.657 118.952L203.292 121.924C202.892 122.147 202.476 122.296 202.043 122.371C201.615 122.442 201.169 122.45 200.706 122.393C200.113 122.32 199.589 122.164 199.131 121.923C198.674 121.679 198.295 121.372 197.995 121.003C197.694 120.633 197.479 120.212 197.349 119.74C197.219 119.267 197.186 118.764 197.252 118.232C197.318 117.692 197.466 117.208 197.697 116.78C197.93 116.352 198.231 115.996 198.598 115.712C198.966 115.428 199.392 115.223 199.878 115.098C200.366 114.973 200.899 114.946 201.474 115.017C201.772 115.053 202.047 115.112 202.299 115.193C202.551 115.271 202.782 115.367 202.989 115.48C203.198 115.589 203.386 115.713 203.553 115.851C203.721 115.989 203.871 116.137 204.003 116.294L203.489 116.906C203.41 117.004 203.316 117.058 203.208 117.068C203.099 117.078 202.986 117.038 202.87 116.946C202.76 116.859 202.65 116.78 202.541 116.709C202.436 116.636 202.322 116.57 202.198 116.511C202.074 116.452 201.938 116.402 201.788 116.36C201.639 116.318 201.465 116.285 201.266 116.261C200.932 116.22 200.622 116.24 200.337 116.323C200.051 116.405 199.8 116.541 199.582 116.729C199.367 116.918 199.19 117.155 199.051 117.44C198.912 117.725 198.82 118.051 198.775 118.418C198.726 118.815 198.739 119.178 198.813 119.506C198.887 119.831 199.014 120.113 199.193 120.354C199.371 120.594 199.596 120.788 199.867 120.935C200.141 121.083 200.453 121.178 200.804 121.221C201.042 121.251 201.257 121.253 201.448 121.23C201.642 121.203 201.834 121.16 202.023 121.099L202.171 119.888L201.358 119.788C201.262 119.776 201.189 119.742 201.138 119.686C201.092 119.626 201.074 119.557 201.083 119.477L201.185 118.649ZM206.96 116.954L206.733 118.805L209.135 119.1L208.997 120.226L206.595 119.932L206.363 121.823L209.45 122.201L209.307 123.368L204.721 122.805L205.605 115.604L210.19 116.167L210.047 117.333L206.96 116.954Z" fill="#8D8FFF"/>
<path d="M89.7478 102.323C89.6922 102.393 89.6373 102.444 89.5832 102.474C89.5328 102.501 89.4696 102.51 89.3935 102.501C89.3207 102.492 89.2444 102.457 89.1644 102.397C89.0882 102.334 88.9975 102.266 88.8923 102.193C88.7871 102.119 88.6648 102.049 88.5253 101.981C88.3862 101.911 88.2191 101.863 88.0239 101.839C87.6798 101.797 87.4122 101.843 87.2211 101.978C87.0304 102.109 86.9198 102.298 86.8894 102.546C86.8699 102.705 86.9 102.843 86.9796 102.96C87.063 103.075 87.1761 103.179 87.3189 103.274C87.4651 103.369 87.6321 103.459 87.82 103.542C88.0079 103.626 88.2 103.716 88.3962 103.814C88.5928 103.909 88.7828 104.016 88.9662 104.136C89.1497 104.256 89.3086 104.398 89.4429 104.562C89.5805 104.727 89.6827 104.921 89.7494 105.144C89.8197 105.364 89.8365 105.625 89.7995 105.926C89.7593 106.253 89.6637 106.554 89.5126 106.828C89.3652 107.098 89.1708 107.328 88.9294 107.517C88.6883 107.702 88.4015 107.837 88.0689 107.92C87.7395 108.004 87.3747 108.021 86.9744 107.972C86.7461 107.944 86.5206 107.893 86.298 107.819C86.0787 107.745 85.8683 107.653 85.6667 107.545C85.4684 107.436 85.2837 107.313 85.1126 107.175C84.9416 107.036 84.7953 106.887 84.6738 106.728L85.1969 106.077C85.2398 106.028 85.2931 105.991 85.3567 105.965C85.4207 105.936 85.4858 105.926 85.552 105.934C85.6413 105.945 85.7315 105.989 85.8227 106.068C85.9138 106.146 86.019 106.233 86.1383 106.328C86.2576 106.423 86.3976 106.514 86.5582 106.601C86.7221 106.689 86.9232 106.747 87.1614 106.776C87.5088 106.819 87.7865 106.772 87.9946 106.636C88.206 106.501 88.3309 106.276 88.3695 105.962C88.3918 105.78 88.3619 105.627 88.2797 105.503C88.2009 105.379 88.0901 105.27 87.9472 105.175C87.8043 105.08 87.6386 104.994 87.4499 104.917C87.2615 104.837 87.0689 104.751 86.8719 104.66C86.6749 104.569 86.4844 104.465 86.3006 104.348C86.1168 104.232 85.9581 104.088 85.8246 103.917C85.691 103.746 85.5901 103.542 85.5217 103.306C85.4567 103.069 85.4447 102.784 85.4857 102.45C85.5185 102.182 85.6033 101.929 85.7401 101.69C85.8768 101.452 86.0597 101.247 86.2888 101.077C86.5178 100.907 86.7886 100.781 87.1009 100.698C87.4166 100.616 87.768 100.599 88.1551 100.646C88.5885 100.7 88.9805 100.816 89.3311 100.997C89.6855 101.175 89.9754 101.399 90.2009 101.668L89.7478 102.323ZM92.3963 108.557L90.8976 108.373L91.7809 101.172L93.2797 101.356L92.3963 108.557ZM101.099 105.967C101.034 106.493 100.885 106.967 100.652 107.388C100.423 107.807 100.127 108.155 99.7636 108.433C99.4037 108.711 98.9862 108.912 98.511 109.035C98.0358 109.158 97.5219 109.185 96.9694 109.118L94.2002 108.778L95.0835 101.577L97.8528 101.917C98.4053 101.984 98.8972 102.135 99.3286 102.37C99.7599 102.604 100.116 102.901 100.398 103.261C100.683 103.619 100.887 104.028 101.008 104.49C101.133 104.952 101.163 105.444 101.099 105.967ZM99.5702 105.779C99.6165 105.402 99.6085 105.057 99.5461 104.744C99.4838 104.431 99.3728 104.158 99.2131 103.927C99.0534 103.696 98.8464 103.508 98.5922 103.362C98.3413 103.217 98.0472 103.124 97.7097 103.083L96.4392 102.927L95.842 107.796L97.1125 107.951C97.45 107.993 97.7577 107.975 98.0358 107.898C98.3176 107.819 98.5639 107.686 98.7748 107.5C98.986 107.311 99.1597 107.072 99.2959 106.784C99.4321 106.495 99.5235 106.16 99.5702 105.779ZM104.288 103.89L104.061 105.741L106.463 106.036L106.325 107.162L103.923 106.867L103.691 108.758L106.777 109.137L106.634 110.303L102.049 109.741L102.932 102.54L107.518 103.102L107.375 104.268L104.288 103.89Z" fill="#8D8FFF"/>
<path d="M227.748 120.323C227.692 120.393 227.637 120.444 227.583 120.474C227.533 120.501 227.469 120.51 227.393 120.501C227.321 120.492 227.244 120.457 227.164 120.397C227.088 120.334 226.997 120.266 226.892 120.193C226.787 120.119 226.665 120.049 226.525 119.981C226.386 119.911 226.219 119.863 226.024 119.839C225.68 119.797 225.412 119.843 225.221 119.978C225.03 120.109 224.92 120.298 224.889 120.546C224.87 120.705 224.9 120.843 224.979 120.96C225.063 121.075 225.176 121.179 225.319 121.274C225.465 121.369 225.632 121.459 225.82 121.542C226.008 121.626 226.2 121.716 226.396 121.814C226.593 121.909 226.783 122.016 226.966 122.136C227.15 122.256 227.308 122.398 227.443 122.562C227.58 122.727 227.683 122.921 227.749 123.144C227.82 123.364 227.836 123.625 227.799 123.926C227.759 124.253 227.664 124.554 227.512 124.828C227.365 125.098 227.171 125.328 226.929 125.517C226.688 125.702 226.401 125.837 226.069 125.92C225.739 126.004 225.375 126.021 224.974 125.972C224.746 125.944 224.521 125.893 224.298 125.819C224.079 125.745 223.868 125.653 223.667 125.545C223.468 125.436 223.284 125.313 223.113 125.175C222.941 125.036 222.795 124.887 222.674 124.728L223.197 124.077C223.24 124.028 223.293 123.991 223.357 123.965C223.421 123.936 223.486 123.926 223.552 123.934C223.641 123.945 223.731 123.989 223.823 124.068C223.914 124.146 224.019 124.233 224.138 124.328C224.257 124.423 224.397 124.514 224.558 124.601C224.722 124.689 224.923 124.747 225.161 124.776C225.509 124.819 225.786 124.772 225.994 124.636C226.206 124.501 226.331 124.276 226.369 123.962C226.392 123.78 226.362 123.627 226.28 123.503C226.201 123.379 226.09 123.27 225.947 123.175C225.804 123.08 225.638 122.994 225.45 122.917C225.261 122.837 225.069 122.751 224.872 122.66C224.675 122.569 224.484 122.465 224.3 122.348C224.117 122.232 223.958 122.088 223.824 121.917C223.691 121.746 223.59 121.542 223.522 121.306C223.457 121.069 223.445 120.784 223.486 120.45C223.518 120.182 223.603 119.929 223.74 119.69C223.877 119.452 224.06 119.247 224.289 119.077C224.518 118.907 224.788 118.781 225.101 118.698C225.416 118.616 225.768 118.599 226.155 118.646C226.588 118.7 226.98 118.816 227.331 118.997C227.685 119.175 227.975 119.399 228.201 119.668L227.748 120.323ZM230.396 126.557L228.897 126.373L229.781 119.172L231.28 119.356L230.396 126.557ZM239.099 123.967C239.034 124.493 238.885 124.967 238.652 125.388C238.423 125.807 238.127 126.155 237.763 126.433C237.404 126.711 236.986 126.912 236.511 127.035C236.036 127.158 235.522 127.185 234.969 127.118L232.2 126.778L233.083 119.577L235.853 119.917C236.405 119.984 236.897 120.135 237.328 120.37C237.76 120.604 238.116 120.901 238.398 121.261C238.683 121.619 238.886 122.028 239.008 122.49C239.132 122.952 239.163 123.444 239.099 123.967ZM237.57 123.779C237.616 123.402 237.608 123.057 237.546 122.744C237.484 122.431 237.373 122.158 237.213 121.927C237.053 121.696 236.846 121.508 236.592 121.362C236.341 121.217 236.047 121.124 235.71 121.083L234.439 120.927L233.842 125.796L235.112 125.951C235.45 125.993 235.758 125.975 236.036 125.898C236.317 125.819 236.564 125.686 236.775 125.5C236.986 125.311 237.16 125.072 237.296 124.784C237.432 124.495 237.523 124.16 237.57 123.779ZM242.288 121.89L242.061 123.741L244.463 124.036L244.324 125.162L241.922 124.867L241.69 126.758L244.777 127.137L244.634 128.303L240.049 127.741L240.932 120.54L245.518 121.102L245.375 122.268L242.288 121.89Z" fill="#8D8FFF"/>
<path d="M137.953 108.413L135.849 108.155L135.113 114.155L133.619 113.972L134.355 107.972L132.251 107.713L132.398 106.512L138.101 107.212L137.953 108.413ZM145.595 111.783C145.53 112.31 145.381 112.787 145.147 113.215C144.917 113.643 144.619 114.001 144.255 114.289C143.894 114.577 143.475 114.788 142.999 114.921C142.523 115.05 142.008 115.081 141.456 115.014C140.903 114.946 140.412 114.791 139.981 114.551C139.551 114.306 139.194 114.001 138.91 113.633C138.626 113.266 138.422 112.846 138.299 112.374C138.179 111.903 138.151 111.404 138.215 110.878C138.28 110.352 138.427 109.877 138.657 109.451C138.891 109.023 139.19 108.665 139.555 108.378C139.919 108.09 140.339 107.881 140.815 107.752C141.292 107.619 141.806 107.586 142.359 107.654C142.911 107.721 143.403 107.877 143.833 108.122C144.263 108.363 144.619 108.668 144.899 109.038C145.183 109.406 145.385 109.825 145.505 110.296C145.629 110.765 145.659 111.261 145.595 111.783ZM144.071 111.597C144.118 111.219 144.109 110.876 144.047 110.566C143.984 110.253 143.872 109.98 143.709 109.749C143.549 109.514 143.342 109.326 143.088 109.184C142.837 109.039 142.543 108.946 142.205 108.904C141.868 108.863 141.558 108.882 141.276 108.962C140.995 109.038 140.747 109.17 140.533 109.359C140.322 109.545 140.148 109.782 140.012 110.071C139.876 110.357 139.785 110.688 139.739 111.065C139.692 111.446 139.7 111.792 139.762 112.106C139.825 112.416 139.936 112.686 140.096 112.917C140.259 113.149 140.468 113.337 140.722 113.483C140.976 113.625 141.273 113.717 141.61 113.758C141.947 113.799 142.255 113.782 142.533 113.705C142.815 113.625 143.061 113.493 143.272 113.307C143.486 113.122 143.661 112.886 143.797 112.601C143.933 112.312 144.025 111.977 144.071 111.597ZM149.414 112.237C149.88 112.294 150.235 112.223 150.477 112.025C150.723 111.827 150.87 111.532 150.918 111.142C150.94 110.963 150.932 110.798 150.894 110.645C150.859 110.49 150.792 110.354 150.692 110.237C150.595 110.118 150.466 110.02 150.305 109.943C150.143 109.866 149.946 109.814 149.714 109.785L148.772 109.669L148.471 112.121L149.414 112.237ZM149.853 108.654C150.346 108.714 150.764 108.824 151.107 108.984C151.454 109.144 151.73 109.342 151.936 109.579C152.143 109.813 152.283 110.078 152.357 110.376C152.435 110.675 152.453 110.991 152.412 111.325C152.369 111.679 152.271 111.996 152.119 112.276C151.967 112.557 151.761 112.788 151.5 112.971C151.239 113.154 150.923 113.283 150.551 113.359C150.179 113.431 149.753 113.437 149.274 113.378L148.331 113.263L148.027 115.739L146.538 115.556L147.421 108.355L149.853 108.654Z" fill="#8D8FFF"/>
<path d="M275.432 125.782L273.327 125.524L272.591 131.524L271.097 131.341L271.833 125.341L269.729 125.083L269.877 123.882L275.579 124.581L275.432 125.782ZM283.073 129.153C283.009 129.679 282.86 130.156 282.626 130.584C282.395 131.012 282.098 131.37 281.733 131.658C281.372 131.946 280.953 132.157 280.477 132.29C280.001 132.419 279.487 132.45 278.934 132.383C278.382 132.315 277.89 132.161 277.46 131.92C277.029 131.675 276.672 131.37 276.388 131.002C276.104 130.635 275.901 130.215 275.777 129.744C275.657 129.272 275.629 128.773 275.694 128.247C275.758 127.721 275.905 127.246 276.136 126.821C276.369 126.392 276.669 126.035 277.033 125.747C277.397 125.459 277.818 125.25 278.294 125.121C278.77 124.988 279.285 124.955 279.837 125.023C280.39 125.091 280.881 125.247 281.311 125.491C281.742 125.732 282.097 126.037 282.377 126.407C282.661 126.775 282.864 127.194 282.984 127.666C283.108 128.134 283.137 128.63 283.073 129.153ZM281.55 128.966C281.596 128.589 281.588 128.245 281.525 127.935C281.463 127.622 281.35 127.349 281.187 127.118C281.028 126.883 280.821 126.695 280.566 126.553C280.315 126.408 280.021 126.315 279.684 126.273C279.346 126.232 279.037 126.251 278.755 126.331C278.473 126.407 278.225 126.54 278.011 126.728C277.8 126.914 277.626 127.151 277.49 127.44C277.354 127.726 277.263 128.057 277.217 128.434C277.171 128.815 277.178 129.162 277.241 129.475C277.303 129.785 277.415 130.055 277.574 130.286C277.737 130.518 277.946 130.707 278.2 130.852C278.455 130.994 278.751 131.086 279.088 131.127C279.426 131.168 279.733 131.151 280.012 131.074C280.293 130.994 280.54 130.862 280.751 130.676C280.965 130.491 281.14 130.255 281.275 129.97C281.412 129.681 281.503 129.346 281.55 128.966ZM286.892 129.606C287.358 129.663 287.713 129.592 287.956 129.394C288.202 129.196 288.349 128.901 288.397 128.511C288.418 128.332 288.41 128.167 288.372 128.014C288.337 127.859 288.27 127.723 288.17 127.607C288.074 127.487 287.945 127.389 287.783 127.312C287.621 127.235 287.424 127.183 287.193 127.154L286.25 127.039L285.949 129.49L286.892 129.606ZM287.332 126.023C287.825 126.083 288.243 126.193 288.586 126.353C288.932 126.513 289.208 126.711 289.414 126.948C289.621 127.182 289.761 127.448 289.835 127.745C289.913 128.044 289.931 128.36 289.89 128.694C289.847 129.048 289.749 129.365 289.597 129.646C289.445 129.926 289.239 130.157 288.978 130.34C288.717 130.523 288.401 130.652 288.029 130.728C287.657 130.8 287.232 130.806 286.752 130.747L285.809 130.632L285.505 133.108L284.016 132.925L284.9 125.724L287.332 126.023Z" fill="#8D8FFF"/>
<path d="M44.6171 75.6211C44.6078 75.6972 44.585 75.7733 44.5488 75.8495C44.5163 75.9227 44.4729 75.9896 44.4184 76.0501L40.2465 80.6564L43.8446 81.0978L43.7015 82.264L38.1928 81.5883L38.264 81.0076C38.2725 80.9382 38.2924 80.8718 38.3237 80.8084C38.3554 80.7418 38.3962 80.683 38.4461 80.632L42.6304 76.0071L39.1862 75.5846L39.3292 74.4183L44.6841 75.0752L44.6171 75.6211ZM47.3393 76.5847L47.1122 78.4358L49.5142 78.7305L49.376 79.857L46.974 79.5624L46.7421 81.4532L49.8289 81.8319L49.6859 82.9981L45.1002 82.4356L45.9836 75.2346L50.5692 75.7971L50.4261 76.9634L47.3393 76.5847ZM56.9303 77.7965L54.8261 77.5384L54.09 83.5384L52.5962 83.3552L53.3323 77.3551L51.228 77.097L51.3753 75.896L57.0776 76.5955L56.9303 77.7965ZM63.2183 78.5678L61.1141 78.3097L60.3781 84.3097L58.8843 84.1265L59.6203 78.1265L57.516 77.8684L57.6634 76.6674L63.3656 77.3668L63.2183 78.5678ZM67.1029 82.359L66.594 80.06C66.5619 79.9385 66.5289 79.7967 66.495 79.6347C66.4645 79.4732 66.4372 79.2985 66.4132 79.1109C66.3442 79.2905 66.2734 79.4564 66.201 79.6088C66.1323 79.7582 66.0677 79.8879 66.0072 79.9981L64.9639 82.0966L67.1029 82.359ZM69.2687 85.4004L68.1123 85.2585C67.9833 85.2427 67.8811 85.1999 67.8057 85.1302C67.734 85.0576 67.6842 84.9709 67.6562 84.8701L67.3385 83.4357L64.47 83.0839L63.815 84.3989C63.7718 84.4775 63.7046 84.5465 63.6133 84.6059C63.5225 84.6619 63.4142 84.6822 63.2885 84.6668L62.1222 84.5237L65.8195 77.6679L67.3431 77.8548L69.2687 85.4004Z" fill="#8D8FFF"/>
<path d="M183.139 93.252C183.13 93.3281 183.107 93.4042 183.071 93.4803C183.038 93.5536 182.995 93.6205 182.94 93.681L178.768 98.2873L182.366 98.7286L182.223 99.8949L176.715 99.2192L176.786 98.6385C176.794 98.569 176.814 98.5026 176.845 98.4393C176.877 98.3727 176.918 98.3138 176.968 98.2629L181.152 93.6379L177.708 93.2154L177.851 92.0492L183.206 92.7061L183.139 93.252ZM185.861 94.2156L185.634 96.0667L188.036 96.3613L187.898 97.4879L185.496 97.1933L185.264 99.0841L188.351 99.4627L188.208 100.629L183.622 100.066L184.505 92.8655L189.091 93.428L188.948 94.5942L185.861 94.2156ZM195.452 95.4274L193.348 95.1692L192.612 101.169L191.118 100.986L191.854 94.986L189.75 94.7279L189.897 93.5269L195.599 94.2264L195.452 95.4274ZM201.74 96.1987L199.636 95.9406L198.9 101.941L197.406 101.757L198.142 95.7573L196.038 95.4992L196.185 94.2982L201.887 94.9977L201.74 96.1987ZM205.625 99.9899L205.116 97.6908C205.084 97.5693 205.051 97.4276 205.017 97.2656C204.986 97.104 204.959 96.9294 204.935 96.7417C204.866 96.9213 204.795 97.0873 204.723 97.2396C204.654 97.389 204.589 97.5188 204.529 97.6289L203.486 99.7275L205.625 99.9899ZM207.79 103.031L206.634 102.889C206.505 102.874 206.403 102.831 206.327 102.761C206.256 102.688 206.206 102.602 206.178 102.501L205.86 101.067L202.992 100.715L202.337 102.03C202.294 102.108 202.226 102.177 202.135 102.237C202.044 102.293 201.936 102.313 201.81 102.298L200.644 102.155L204.341 95.2987L205.865 95.4856L207.79 103.031Z" fill="#8D8FFF"/>
<path d="M87.8609 86.641C88.1024 86.6706 88.324 86.6575 88.5256 86.6016C88.7277 86.5425 88.904 86.4466 89.0546 86.3139C89.2052 86.1813 89.3282 86.0133 89.4237 85.8101C89.5192 85.6069 89.5831 85.3729 89.6156 85.1082L90.1416 80.8204L91.6304 81.003L91.1044 85.2909C91.0509 85.7276 90.9304 86.1209 90.7431 86.4707C90.5595 86.8176 90.3208 87.1073 90.0269 87.3399C89.7331 87.5725 89.3901 87.7404 88.998 87.8434C88.6058 87.9464 88.1749 87.9691 87.7051 87.9115C87.2352 87.8538 86.8209 87.7275 86.462 87.5323C86.1064 87.3376 85.8141 87.0918 85.5852 86.7951C85.3563 86.4983 85.193 86.1593 85.0954 85.7779C85.0015 85.3936 84.9813 84.9831 85.0349 84.5463L85.5609 80.2585L87.0498 80.4411L86.5238 84.729C86.4913 84.9937 86.4968 85.2361 86.5403 85.4564C86.5838 85.6767 86.6626 85.8694 86.7767 86.0345C86.8908 86.1996 87.0387 86.3353 87.2204 86.4415C87.4026 86.5445 87.6161 86.611 87.8609 86.641ZM98.2932 83.0394L96.189 82.7813L95.453 88.7813L93.9592 88.5981L94.6952 82.598L92.591 82.3399L92.7383 81.1389L98.4405 81.8384L98.2932 83.0394ZM102.178 86.8306L101.669 84.5315C101.637 84.41 101.604 84.2683 101.57 84.1063C101.539 83.9447 101.512 83.7701 101.488 83.5825C101.419 83.762 101.348 83.928 101.276 84.0803C101.207 84.2297 101.143 84.3595 101.082 84.4696L100.039 86.5682L102.178 86.8306ZM104.344 89.8719L103.187 89.7301C103.058 89.7142 102.956 89.6715 102.881 89.6018C102.809 89.5292 102.759 89.4425 102.731 89.3416L102.413 87.9073L99.5449 87.5554L98.89 88.8705C98.8467 88.9491 98.7795 89.0181 98.6883 89.0774C98.5974 89.1335 98.4891 89.1538 98.3634 89.1383L97.1972 88.9953L100.894 82.1394L102.418 82.3263L104.344 89.8719ZM112.36 83.5459L111.477 90.7469L109.978 90.5631L110.358 87.4613L107.187 87.0723L106.807 90.1741L105.308 89.9902L106.191 82.7892L107.69 82.973L107.315 86.0301L110.486 86.4191L110.861 83.362L112.36 83.5459Z" fill="#8D8FFF"/>
<path d="M225.861 104.641C226.102 104.671 226.324 104.658 226.526 104.602C226.728 104.542 226.904 104.447 227.055 104.314C227.205 104.181 227.328 104.013 227.424 103.81C227.519 103.607 227.583 103.373 227.616 103.108L228.142 98.8204L229.63 99.003L229.104 103.291C229.051 103.728 228.93 104.121 228.743 104.471C228.559 104.818 228.321 105.107 228.027 105.34C227.733 105.573 227.39 105.74 226.998 105.843C226.606 105.946 226.175 105.969 225.705 105.911C225.235 105.854 224.821 105.727 224.462 105.532C224.106 105.338 223.814 105.092 223.585 104.795C223.356 104.498 223.193 104.159 223.095 103.778C223.002 103.394 222.981 102.983 223.035 102.546L223.561 98.2585L225.05 98.4411L224.524 102.729C224.491 102.994 224.497 103.236 224.54 103.456C224.584 103.677 224.663 103.869 224.777 104.034C224.891 104.2 225.039 104.335 225.22 104.442C225.403 104.544 225.616 104.611 225.861 104.641ZM236.293 101.039L234.189 100.781L233.453 106.781L231.959 106.598L232.695 100.598L230.591 100.34L230.738 99.1389L236.441 99.8384L236.293 101.039ZM240.178 104.831L239.669 102.532C239.637 102.41 239.604 102.268 239.57 102.106C239.539 101.945 239.512 101.77 239.488 101.582C239.419 101.762 239.348 101.928 239.276 102.08C239.207 102.23 239.143 102.359 239.082 102.47L238.039 104.568L240.178 104.831ZM242.344 107.872L241.187 107.73C241.058 107.714 240.956 107.671 240.881 107.602C240.809 107.529 240.759 107.442 240.731 107.342L240.413 105.907L237.545 105.555L236.89 106.87C236.847 106.949 236.779 107.018 236.688 107.077C236.597 107.133 236.489 107.154 236.363 107.138L235.197 106.995L238.894 100.139L240.418 100.326L242.344 107.872ZM250.36 101.546L249.477 108.747L247.978 108.563L248.358 105.461L245.187 105.072L244.807 108.174L243.308 107.99L244.191 100.789L245.69 100.973L245.315 104.03L248.486 104.419L248.861 101.362L250.36 101.546Z" fill="#8D8FFF"/>
<path d="M127.931 91.9649C128.169 91.9941 128.368 91.99 128.527 91.9524C128.69 91.9119 128.823 91.8494 128.928 91.7648C129.032 91.6802 129.11 91.5789 129.161 91.461C129.213 91.3397 129.247 91.2129 129.263 91.0806C129.281 90.935 129.276 90.8017 129.247 90.6806C129.218 90.5595 129.161 90.4534 129.074 90.3622C128.989 90.2678 128.871 90.1895 128.72 90.1274C128.574 90.0657 128.388 90.0211 128.163 89.9935L126.897 89.8382L126.655 91.8085L127.931 91.9649ZM127.26 86.8804L127.021 88.8258L127.999 88.9457C128.207 88.9713 128.395 88.9775 128.561 88.9643C128.727 88.9478 128.87 88.9082 128.989 88.8455C129.107 88.7828 129.202 88.6937 129.273 88.5782C129.348 88.4597 129.396 88.3129 129.418 88.1375C129.44 87.9588 129.434 87.8036 129.399 87.6718C129.369 87.5404 129.308 87.4305 129.218 87.3423C129.128 87.254 129.009 87.184 128.861 87.1322C128.713 87.0772 128.535 87.0369 128.327 87.0113L127.26 86.8804ZM128.466 85.8798C128.949 85.939 129.355 86.0359 129.684 86.1703C130.018 86.3019 130.281 86.4652 130.476 86.6603C130.674 86.8525 130.808 87.0738 130.878 87.3242C130.948 87.5746 130.965 87.847 130.929 88.1415C130.908 88.3069 130.864 88.4627 130.796 88.6088C130.731 88.7553 130.639 88.8901 130.519 89.0131C130.404 89.1333 130.26 89.2382 130.088 89.3279C129.916 89.4176 129.716 89.4871 129.488 89.5365C129.964 89.7123 130.303 89.9453 130.506 90.2355C130.708 90.5257 130.784 90.8793 130.733 91.2961C130.696 91.6005 130.602 91.8761 130.45 92.1229C130.302 92.37 130.104 92.5758 129.856 92.7401C129.607 92.9044 129.311 93.0208 128.967 93.0894C128.626 93.1551 128.242 93.1618 127.816 93.1094L125.027 92.7673L125.91 85.5662L128.466 85.8798ZM133.405 93.795L131.906 93.6111L132.789 86.4101L134.288 86.594L133.405 93.795ZM141.041 88.6415L138.937 88.3833L138.201 94.3834L136.707 94.2001L137.443 88.2001L135.339 87.942L135.486 86.741L141.189 87.4405L141.041 88.6415ZM150.32 88.5607L149.437 95.7617L148.122 95.6003L148.664 91.1785C148.676 91.0859 148.689 90.9868 148.706 90.8813C148.725 90.7763 148.748 90.67 148.775 90.5624L146.236 94.2155C146.097 94.4167 145.911 94.503 145.676 94.4741L145.467 94.4486C145.351 94.4344 145.252 94.3953 145.169 94.3314C145.087 94.2642 145.026 94.1744 144.986 94.0621L143.397 89.8876C143.393 90.0046 143.387 90.1181 143.381 90.2281C143.374 90.3348 143.365 90.4345 143.354 90.5271L142.812 94.9489L141.496 94.7876L142.38 87.5866L143.511 87.7254C143.574 87.7331 143.63 87.7417 143.679 87.7511C143.729 87.7605 143.77 87.7757 143.805 87.7967C143.843 87.8148 143.875 87.8422 143.9 87.8789C143.93 87.9128 143.956 87.9596 143.979 88.0195L145.523 92.1079C145.571 92.2314 145.615 92.3576 145.653 92.4865C145.694 92.6158 145.731 92.7481 145.765 92.8832C145.831 92.7569 145.898 92.6342 145.966 92.515C146.038 92.3961 146.112 92.2827 146.19 92.1746L148.659 88.5936C148.696 88.541 148.732 88.5019 148.769 88.4761C148.806 88.4471 148.844 88.4282 148.882 88.4195C148.923 88.4078 148.968 88.4031 149.014 88.4055C149.064 88.4083 149.123 88.4137 149.189 88.4218L150.32 88.5607ZM155.372 93.7141L154.863 91.415C154.831 91.2935 154.798 91.1518 154.764 90.9898C154.734 90.8282 154.706 90.6536 154.682 90.466C154.613 90.6455 154.543 90.8115 154.47 90.9638C154.402 91.1132 154.337 91.243 154.276 91.3531L153.233 93.4517L155.372 93.7141ZM157.538 96.7554L156.382 96.6136C156.253 96.5977 156.15 96.555 156.075 96.4853C156.003 96.4127 155.953 96.326 155.925 96.2251L155.608 94.7908L152.739 94.4389L152.084 95.7539C152.041 95.8326 151.974 95.9016 151.883 95.9609C151.792 96.017 151.683 96.0373 151.558 96.0218L150.391 95.8788L154.089 89.0229L155.612 89.2098L157.538 96.7554ZM161.378 93.5541C161.844 93.6114 162.199 93.5407 162.441 93.3421C162.687 93.1439 162.834 92.8496 162.882 92.4592C162.904 92.2805 162.896 92.1149 162.858 91.9625C162.823 91.8071 162.756 91.6712 162.656 91.5548C162.559 91.4356 162.43 91.3375 162.269 91.2605C162.107 91.1836 161.91 91.1309 161.678 91.1025L160.736 90.9868L160.435 93.4385L161.378 93.5541ZM161.817 89.971C162.31 90.0315 162.728 90.1415 163.071 90.3011C163.418 90.4612 163.694 90.6596 163.9 90.8965C164.107 91.13 164.247 91.3957 164.321 91.6937C164.399 91.992 164.417 92.3082 164.376 92.6424C164.333 92.9964 164.235 93.3136 164.083 93.5938C163.931 93.8741 163.725 94.1057 163.464 94.2886C163.203 94.4715 162.887 94.6006 162.515 94.6759C162.143 94.7479 161.717 94.7544 161.238 94.6956L160.295 94.5799L159.991 97.0563L158.502 96.8737L159.386 89.6727L161.817 89.971Z" fill="#8D8FFF"/>
<path d="M265.409 109.334C265.647 109.363 265.846 109.359 266.005 109.322C266.168 109.281 266.301 109.219 266.406 109.134C266.51 109.049 266.588 108.948 266.64 108.83C266.691 108.709 266.725 108.582 266.742 108.45C266.76 108.304 266.754 108.171 266.725 108.05C266.696 107.929 266.639 107.823 266.553 107.731C266.467 107.637 266.349 107.559 266.199 107.497C266.052 107.435 265.866 107.39 265.641 107.363L264.375 107.207L264.134 109.178L265.409 109.334ZM264.738 104.25L264.5 106.195L265.477 106.315C265.686 106.34 265.873 106.347 266.039 106.333C266.206 106.317 266.348 106.277 266.467 106.215C266.585 106.152 266.68 106.063 266.751 105.947C266.826 105.829 266.875 105.682 266.896 105.507C266.918 105.328 266.912 105.173 266.878 105.041C266.847 104.91 266.786 104.8 266.697 104.711C266.607 104.623 266.488 104.553 266.339 104.501C266.192 104.446 266.014 104.406 265.805 104.38L264.738 104.25ZM265.944 103.249C266.427 103.308 266.833 103.405 267.163 103.539C267.496 103.671 267.76 103.834 267.954 104.029C268.152 104.222 268.286 104.443 268.356 104.693C268.426 104.944 268.443 105.216 268.407 105.511C268.387 105.676 268.342 105.832 268.274 105.978C268.209 106.124 268.117 106.259 267.998 106.382C267.882 106.502 267.738 106.607 267.566 106.697C267.394 106.787 267.194 106.856 266.966 106.906C267.442 107.081 267.781 107.314 267.984 107.605C268.187 107.895 268.263 108.248 268.211 108.665C268.174 108.97 268.08 109.245 267.929 109.492C267.781 109.739 267.583 109.945 267.334 110.109C267.086 110.273 266.789 110.39 266.445 110.459C266.104 110.524 265.721 110.531 265.294 110.479L262.505 110.136L263.388 102.935L265.944 103.249ZM270.883 111.164L269.384 110.98L270.267 103.779L271.766 103.963L270.883 111.164ZM278.519 106.011L276.415 105.752L275.679 111.753L274.185 111.569L274.921 105.569L272.817 105.311L272.965 104.11L278.667 104.81L278.519 106.011ZM287.799 105.93L286.915 113.131L285.6 112.969L286.142 108.548C286.154 108.455 286.168 108.356 286.184 108.25C286.204 108.145 286.227 108.039 286.253 107.932L283.715 111.585C283.576 111.786 283.389 111.872 283.154 111.843L282.946 111.818C282.83 111.804 282.73 111.764 282.648 111.701C282.565 111.633 282.504 111.544 282.464 111.431L280.875 107.257C280.871 107.374 280.866 107.487 280.859 107.597C280.853 107.704 280.844 107.804 280.832 107.896L280.29 112.318L278.975 112.157L279.858 104.956L280.99 105.095C281.052 105.102 281.108 105.111 281.158 105.12C281.207 105.13 281.249 105.145 281.283 105.166C281.321 105.184 281.353 105.211 281.379 105.248C281.408 105.282 281.434 105.329 281.457 105.389L283.001 109.477C283.05 109.601 283.093 109.727 283.131 109.856C283.172 109.985 283.21 110.117 283.243 110.252C283.309 110.126 283.376 110.003 283.445 109.884C283.516 109.765 283.591 109.652 283.668 109.544L286.137 105.963C286.174 105.91 286.211 105.871 286.247 105.845C286.284 105.816 286.322 105.797 286.36 105.789C286.402 105.777 286.446 105.772 286.493 105.775C286.543 105.777 286.601 105.783 286.667 105.791L287.799 105.93ZM292.85 111.083L292.342 108.784C292.309 108.663 292.276 108.521 292.243 108.359C292.212 108.197 292.185 108.023 292.161 107.835C292.092 108.015 292.021 108.181 291.949 108.333C291.88 108.482 291.815 108.612 291.755 108.722L290.711 110.821L292.85 111.083ZM295.016 114.125L293.86 113.983C293.731 113.967 293.629 113.924 293.553 113.854C293.481 113.782 293.432 113.695 293.404 113.594L293.086 112.16L290.218 111.808L289.563 113.123C289.519 113.202 289.452 113.271 289.361 113.33C289.27 113.386 289.162 113.406 289.036 113.391L287.87 113.248L291.567 106.392L293.091 106.579L295.016 114.125ZM298.856 110.923C299.323 110.98 299.677 110.91 299.92 110.711C300.166 110.513 300.313 110.219 300.361 109.828C300.382 109.65 300.374 109.484 300.336 109.332C300.301 109.176 300.234 109.04 300.134 108.924C300.038 108.805 299.909 108.707 299.747 108.63C299.585 108.553 299.388 108.5 299.157 108.472L298.214 108.356L297.913 110.808L298.856 110.923ZM299.296 107.34C299.789 107.401 300.207 107.511 300.55 107.67C300.896 107.83 301.172 108.029 301.378 108.266C301.585 108.499 301.725 108.765 301.799 109.063C301.877 109.361 301.895 109.677 301.854 110.012C301.811 110.366 301.713 110.683 301.561 110.963C301.409 111.243 301.203 111.475 300.942 111.658C300.681 111.841 300.365 111.97 299.993 112.045C299.621 112.117 299.196 112.124 298.716 112.065L297.773 111.949L297.469 114.425L295.98 114.243L296.864 107.042L299.296 107.34Z" fill="#8D8FFF"/>
<path d="M39.9541 120.306C40.0368 120.316 40.1026 120.355 40.1515 120.421L40.6648 121.124C40.3282 121.459 39.9314 121.695 39.4745 121.834C39.0208 121.973 38.4962 122.006 37.9007 121.933C37.3614 121.867 36.8878 121.717 36.4801 121.482C36.0727 121.244 35.7385 120.943 35.4776 120.578C35.2167 120.214 35.0328 119.796 34.9259 119.327C34.819 118.857 34.7982 118.355 34.8635 117.823C34.9074 117.465 34.987 117.131 35.1025 116.819C35.2217 116.505 35.3723 116.221 35.5545 115.968C35.7367 115.715 35.9454 115.492 36.1806 115.299C36.4191 115.107 36.6801 114.951 36.9634 114.831C37.2472 114.708 37.5494 114.626 37.8702 114.585C38.1946 114.541 38.5339 114.54 38.8879 114.584C39.1526 114.616 39.3995 114.67 39.6287 114.745C39.8613 114.821 40.075 114.912 40.27 115.02C40.465 115.128 40.6412 115.252 40.7986 115.392C40.9598 115.53 41.1013 115.676 41.2232 115.832L40.638 116.456C40.6029 116.495 40.5602 116.528 40.5098 116.556C40.4594 116.583 40.3945 116.592 40.3151 116.582C40.2357 116.573 40.1581 116.535 40.0823 116.468C40.0098 116.402 39.9183 116.327 39.8077 116.243C39.7004 116.159 39.5609 116.078 39.3891 116C39.2207 115.922 39.0008 115.867 38.7295 115.834C38.4284 115.797 38.1455 115.817 37.8806 115.896C37.6158 115.974 37.3796 116.106 37.172 116.292C36.9682 116.476 36.7982 116.712 36.662 117.001C36.5258 117.29 36.4342 117.626 36.3871 118.01C36.3396 118.397 36.3502 118.749 36.4187 119.066C36.4909 119.381 36.6069 119.654 36.7666 119.885C36.9297 120.116 37.1285 120.302 37.3633 120.442C37.6017 120.578 37.8632 120.664 38.1478 120.699C38.3165 120.72 38.4697 120.73 38.6074 120.73C38.7484 120.731 38.8792 120.718 38.9999 120.693C39.1239 120.668 39.241 120.63 39.3513 120.58C39.4648 120.53 39.5805 120.463 39.6981 120.38C39.7381 120.355 39.7792 120.335 39.8214 120.32C39.8635 120.305 39.9077 120.3 39.9541 120.306ZM46.0955 121.629L45.947 122.84L41.674 122.315L42.5573 115.114L44.0462 115.297L43.3114 121.287L46.0955 121.629ZM49.3966 117.137L49.1695 118.988L51.5715 119.283L51.4333 120.41L49.0313 120.115L48.7993 122.006L51.8862 122.384L51.7431 123.551L47.1575 122.988L48.0409 115.787L52.6265 116.35L52.4834 117.516L49.3966 117.137ZM54.6535 123.908L53.1547 123.724L54.0381 116.523L55.5369 116.707L54.6535 123.908ZM63.5094 117.685L62.6261 124.886L61.8569 124.791C61.7411 124.777 61.6457 124.747 61.5707 124.701C61.4962 124.651 61.4266 124.576 61.3618 124.474L58.3338 119.468C58.3295 119.585 58.3222 119.7 58.3117 119.813C58.3045 119.926 58.295 120.03 58.2832 120.126L57.7725 124.29L56.4573 124.129L57.3407 116.928L58.1248 117.024C58.1877 117.032 58.2402 117.042 58.2824 117.053C58.3283 117.062 58.3682 117.079 58.4022 117.103C58.4366 117.124 58.4685 117.152 58.4979 117.186C58.5273 117.22 58.5589 117.264 58.5925 117.318L61.6429 122.347C61.6451 122.22 61.6499 122.098 61.6575 121.981C61.6655 121.861 61.676 121.748 61.689 121.642L62.1943 117.523L63.5094 117.685Z" fill="#8D8FFF"/>
<path d="M178.476 137.937C178.559 137.947 178.624 137.985 178.673 138.052L179.187 138.755C178.85 139.089 178.453 139.326 177.996 139.465C177.543 139.604 177.018 139.637 176.422 139.564C175.883 139.498 175.41 139.347 175.002 139.113C174.594 138.875 174.26 138.573 173.999 138.209C173.738 137.844 173.555 137.427 173.448 136.957C173.341 136.488 173.32 135.986 173.385 135.454C173.429 135.096 173.509 134.762 173.624 134.45C173.743 134.136 173.894 133.852 174.076 133.599C174.258 133.346 174.467 133.123 174.702 132.93C174.941 132.738 175.202 132.582 175.485 132.462C175.769 132.339 176.071 132.257 176.392 132.216C176.716 132.171 177.056 132.171 177.41 132.215C177.674 132.247 177.921 132.301 178.15 132.376C178.383 132.451 178.597 132.543 178.792 132.651C178.987 132.759 179.163 132.883 179.32 133.023C179.482 133.161 179.623 133.307 179.745 133.463L179.16 134.087C179.125 134.126 179.082 134.159 179.032 134.187C178.981 134.214 178.916 134.223 178.837 134.213C178.757 134.203 178.68 134.165 178.604 134.099C178.532 134.033 178.44 133.958 178.329 133.874C178.222 133.79 178.083 133.709 177.911 133.631C177.742 133.553 177.523 133.498 177.251 133.465C176.95 133.428 176.667 133.448 176.402 133.527C176.138 133.605 175.901 133.737 175.694 133.923C175.49 134.107 175.32 134.343 175.184 134.632C175.048 134.92 174.956 135.257 174.909 135.641C174.861 136.028 174.872 136.38 174.94 136.697C175.013 137.012 175.129 137.285 175.288 137.516C175.451 137.747 175.65 137.933 175.885 138.072C176.123 138.209 176.385 138.295 176.67 138.33C176.838 138.351 176.991 138.361 177.129 138.361C177.27 138.362 177.401 138.349 177.522 138.324C177.646 138.299 177.763 138.261 177.873 138.211C177.987 138.161 178.102 138.094 178.22 138.011C178.26 137.986 178.301 137.966 178.343 137.951C178.385 137.936 178.429 137.931 178.476 137.937ZM184.617 139.26L184.469 140.47L180.196 139.946L181.079 132.745L182.568 132.928L181.833 138.918L184.617 139.26ZM187.918 134.768L187.691 136.619L190.093 136.914L189.955 138.04L187.553 137.746L187.321 139.637L190.408 140.015L190.265 141.181L185.679 140.619L186.563 133.418L191.148 133.98L191.005 135.147L187.918 134.768ZM193.175 141.538L191.676 141.355L192.56 134.154L194.059 134.337L193.175 141.538ZM202.031 135.315L201.148 142.516L200.379 142.422C200.263 142.408 200.167 142.378 200.092 142.332C200.018 142.282 199.948 142.206 199.884 142.104L196.856 137.099C196.851 137.216 196.844 137.331 196.833 137.443C196.826 137.557 196.817 137.661 196.805 137.757L196.294 141.921L194.979 141.76L195.862 134.559L196.647 134.655C196.709 134.663 196.762 134.672 196.804 134.684C196.85 134.693 196.89 134.71 196.924 134.734C196.958 134.755 196.99 134.783 197.02 134.817C197.049 134.85 197.081 134.895 197.114 134.949L200.165 139.978C200.167 139.851 200.172 139.729 200.179 139.612C200.187 139.492 200.198 139.379 200.211 139.273L200.716 135.154L202.031 135.315Z" fill="#8D8FFF"/>
<path d="M79.8929 119.863L79.0096 127.064L77.6944 126.903L78.2368 122.481C78.2482 122.388 78.262 122.289 78.2783 122.184C78.2979 122.079 78.3211 121.973 78.3477 121.865L75.809 125.518C75.6701 125.719 75.4832 125.806 75.2483 125.777L75.0399 125.751C74.9241 125.737 74.8248 125.698 74.7419 125.634C74.6595 125.567 74.5983 125.477 74.5584 125.365L72.9698 121.19C72.9656 121.307 72.96 121.421 72.9532 121.531C72.9469 121.637 72.938 121.737 72.9266 121.83L72.3842 126.252L71.0691 126.09L71.9524 118.889L73.0839 119.028C73.1468 119.036 73.2028 119.044 73.2521 119.054C73.3013 119.063 73.3431 119.078 73.3774 119.099C73.4155 119.117 73.4474 119.145 73.4731 119.182C73.5026 119.215 73.5287 119.262 73.5516 119.322L75.0953 123.411C75.144 123.534 75.1873 123.66 75.2252 123.789C75.2664 123.918 75.3039 124.051 75.3377 124.186C75.4036 124.06 75.4707 123.937 75.539 123.818C75.6107 123.699 75.6851 123.585 75.7621 123.477L78.2315 119.896C78.2682 119.844 78.3049 119.804 78.3417 119.779C78.3788 119.75 78.4164 119.731 78.4544 119.722C78.4961 119.71 78.5404 119.706 78.5871 119.708C78.6371 119.711 78.6952 119.716 78.7614 119.724L79.8929 119.863ZM88.2076 124.535C88.1431 125.061 87.9939 125.538 87.76 125.967C87.5295 126.395 87.232 126.753 86.8676 127.041C86.5065 127.329 86.0877 127.54 85.6113 127.673C85.1353 127.802 84.6211 127.833 84.0685 127.765C83.516 127.698 83.0245 127.543 82.5939 127.302C82.1638 127.058 81.8067 126.753 81.5227 126.385C81.2386 126.018 81.0348 125.598 80.9114 125.126C80.7912 124.655 80.7634 124.156 80.8279 123.63C80.8925 123.104 81.0398 122.628 81.2699 122.203C81.5038 121.775 81.8029 121.417 82.1674 121.13C82.5318 120.842 82.952 120.633 83.428 120.503C83.9044 120.37 84.4188 120.338 84.9714 120.406C85.5239 120.473 86.0152 120.629 86.4454 120.874C86.8759 121.114 87.2313 121.42 87.5117 121.79C87.7957 122.158 87.9978 122.577 88.118 123.048C88.2419 123.517 88.2717 124.013 88.2076 124.535ZM86.684 124.348C86.7303 123.971 86.7221 123.628 86.6593 123.318C86.597 123.005 86.4844 122.732 86.3213 122.501C86.162 122.266 85.9551 122.078 85.7005 121.936C85.4496 121.791 85.1554 121.698 84.818 121.656C84.4805 121.615 84.1709 121.634 83.8891 121.714C83.6077 121.79 83.3597 121.922 83.1451 122.111C82.9343 122.297 82.7608 122.534 82.6246 122.823C82.4888 123.108 82.3978 123.44 82.3515 123.817C82.3048 124.198 82.3127 124.544 82.375 124.858C82.4377 125.168 82.5489 125.438 82.7086 125.669C82.8717 125.901 83.0803 126.089 83.3345 126.235C83.5891 126.377 83.8851 126.468 84.2226 126.51C84.56 126.551 84.8678 126.534 85.1459 126.457C85.4277 126.377 85.674 126.245 85.8848 126.059C86.099 125.874 86.274 125.638 86.4097 125.353C86.5459 125.064 86.6374 124.729 86.684 124.348ZM91.8689 124.793C92.1105 124.823 92.3226 124.819 92.5052 124.78C92.6883 124.739 92.8426 124.672 92.968 124.58C93.0939 124.485 93.1923 124.368 93.263 124.229C93.3338 124.09 93.3798 123.934 93.4009 123.762C93.4427 123.421 93.361 123.142 93.1559 122.926C92.954 122.71 92.6215 122.573 92.1583 122.516L91.3841 122.421L91.1047 124.699L91.8689 124.793ZM94.8927 129.013L93.5478 128.848C93.2963 128.817 93.1261 128.699 93.0372 128.493L91.9383 126.116C91.8927 126.023 91.8375 125.953 91.7729 125.905C91.7116 125.857 91.6148 125.825 91.4824 125.809L90.9762 125.746L90.6396 128.491L89.1507 128.308L90.0341 121.107L92.2971 121.385C92.8 121.447 93.2236 121.552 93.568 121.702C93.9127 121.848 94.1878 122.028 94.3934 122.241C94.599 122.455 94.7389 122.697 94.8131 122.968C94.8877 123.236 94.9061 123.523 94.8684 123.831C94.8392 124.069 94.7766 124.292 94.6808 124.498C94.5886 124.702 94.4673 124.883 94.3167 125.043C94.1662 125.203 93.9883 125.339 93.7831 125.451C93.5779 125.564 93.3494 125.646 93.0977 125.699C93.1872 125.764 93.2686 125.84 93.342 125.926C93.4158 126.009 93.4795 126.106 93.533 126.216L94.8927 129.013ZM99.7316 125.884L102.203 126.187L101.838 129.159C101.438 129.382 101.022 129.531 100.59 129.606C100.161 129.677 99.7153 129.685 99.2522 129.628C98.6599 129.555 98.1351 129.399 97.6777 129.158C97.2207 128.914 96.8419 128.607 96.5413 128.238C96.2407 127.868 96.0253 127.447 95.8953 126.975C95.7652 126.502 95.7328 125.999 95.7981 125.467C95.8643 124.927 96.0127 124.443 96.2432 124.015C96.4771 123.587 96.7776 123.231 97.145 122.947C97.5123 122.663 97.9387 122.458 98.4242 122.333C98.913 122.208 99.4453 122.181 100.021 122.252C100.319 122.288 100.594 122.347 100.846 122.428C101.098 122.506 101.328 122.602 101.536 122.715C101.744 122.824 101.932 122.948 102.1 123.086C102.268 123.224 102.417 123.372 102.549 123.529L102.036 124.141C101.957 124.239 101.863 124.293 101.754 124.303C101.645 124.313 101.533 124.273 101.416 124.181C101.306 124.094 101.197 124.015 101.088 123.944C100.983 123.871 100.868 123.805 100.744 123.746C100.621 123.687 100.484 123.637 100.335 123.595C100.185 123.553 100.011 123.52 99.813 123.496C99.4788 123.455 99.169 123.475 98.8835 123.558C98.598 123.64 98.3463 123.776 98.1284 123.964C97.9139 124.153 97.737 124.39 97.5979 124.675C97.4588 124.96 97.3668 125.286 97.3217 125.653C97.273 126.05 97.2856 126.413 97.3596 126.741C97.4339 127.066 97.5605 127.348 97.7392 127.589C97.918 127.829 98.1427 128.023 98.4134 128.17C98.6875 128.318 98.9998 128.413 99.3505 128.456C99.5888 128.486 99.8034 128.488 99.9943 128.465C100.189 128.438 100.381 128.395 100.57 128.334L100.718 127.123L99.9042 127.023C99.8082 127.011 99.7352 126.977 99.685 126.921C99.6386 126.861 99.6202 126.792 99.63 126.712L99.7316 125.884ZM105.507 124.189L105.28 126.04L107.682 126.335L107.544 127.461L105.142 127.167L104.91 129.058L107.997 129.436L107.854 130.603L103.268 130.04L104.151 122.839L108.737 123.402L108.594 124.568L105.507 124.189ZM116.317 124.331L115.434 131.532L114.665 131.438C114.549 131.424 114.454 131.394 114.379 131.348C114.304 131.298 114.234 131.222 114.17 131.12L111.142 126.115C111.137 126.232 111.13 126.346 111.12 126.459C111.112 126.573 111.103 126.677 111.091 126.773L110.58 130.937L109.265 130.776L110.149 123.575L110.933 123.671C110.996 123.679 111.048 123.688 111.09 123.7C111.136 123.709 111.176 123.726 111.21 123.75C111.244 123.771 111.276 123.799 111.306 123.833C111.335 123.866 111.367 123.911 111.4 123.965L114.451 128.994C114.453 128.866 114.458 128.745 114.465 128.628C114.473 128.508 114.484 128.395 114.497 128.289L115.002 124.17L116.317 124.331Z" fill="#8D8FFF"/>
<path d="M217.893 137.863L217.009 145.064L215.694 144.903L216.237 140.481C216.248 140.388 216.262 140.289 216.278 140.184C216.298 140.079 216.321 139.973 216.348 139.865L213.809 143.518C213.67 143.719 213.483 143.806 213.248 143.777L213.04 143.751C212.924 143.737 212.825 143.698 212.742 143.634C212.659 143.567 212.598 143.477 212.558 143.365L210.97 139.19C210.965 139.307 210.96 139.421 210.953 139.531C210.947 139.637 210.938 139.737 210.927 139.83L210.384 144.252L209.069 144.09L209.952 136.889L211.084 137.028C211.147 137.036 211.203 137.044 211.252 137.054C211.301 137.063 211.343 137.078 211.377 137.099C211.415 137.117 211.447 137.145 211.473 137.182C211.502 137.215 211.529 137.262 211.551 137.322L213.095 141.411C213.144 141.534 213.187 141.66 213.225 141.789C213.266 141.918 213.304 142.051 213.338 142.186C213.403 142.06 213.471 141.937 213.539 141.818C213.611 141.699 213.685 141.585 213.762 141.477L216.231 137.896C216.268 137.844 216.305 137.804 216.342 137.779C216.379 137.75 216.416 137.731 216.454 137.722C216.496 137.71 216.54 137.706 216.587 137.708C216.637 137.711 216.695 137.716 216.761 137.724L217.893 137.863ZM226.207 142.535C226.143 143.061 225.994 143.538 225.76 143.967C225.529 144.395 225.232 144.753 224.867 145.041C224.506 145.329 224.088 145.54 223.611 145.673C223.135 145.802 222.621 145.833 222.068 145.765C221.516 145.698 221.024 145.543 220.594 145.302C220.164 145.058 219.807 144.753 219.523 144.385C219.238 144.018 219.035 143.598 218.911 143.126C218.791 142.655 218.763 142.156 218.828 141.63C218.892 141.104 219.04 140.628 219.27 140.203C219.504 139.775 219.803 139.417 220.167 139.13C220.532 138.842 220.952 138.633 221.428 138.503C221.904 138.37 222.419 138.338 222.971 138.406C223.524 138.473 224.015 138.629 224.445 138.874C224.876 139.114 225.231 139.42 225.512 139.79C225.796 140.158 225.998 140.577 226.118 141.048C226.242 141.517 226.272 142.013 226.207 142.535ZM224.684 142.348C224.73 141.971 224.722 141.628 224.659 141.318C224.597 141.005 224.484 140.732 224.321 140.501C224.162 140.266 223.955 140.078 223.7 139.936C223.449 139.791 223.155 139.698 222.818 139.656C222.48 139.615 222.171 139.634 221.889 139.714C221.608 139.79 221.36 139.922 221.145 140.111C220.934 140.297 220.761 140.534 220.624 140.823C220.489 141.108 220.398 141.44 220.351 141.817C220.305 142.198 220.313 142.544 220.375 142.858C220.438 143.168 220.549 143.438 220.709 143.669C220.872 143.901 221.08 144.089 221.334 144.235C221.589 144.377 221.885 144.468 222.222 144.51C222.56 144.551 222.868 144.534 223.146 144.457C223.428 144.377 223.674 144.245 223.885 144.059C224.099 143.874 224.274 143.638 224.41 143.353C224.546 143.064 224.637 142.729 224.684 142.348ZM229.869 142.793C230.11 142.823 230.322 142.819 230.505 142.78C230.688 142.739 230.842 142.672 230.968 142.58C231.094 142.485 231.192 142.368 231.263 142.229C231.334 142.09 231.38 141.934 231.401 141.762C231.443 141.421 231.361 141.142 231.156 140.926C230.954 140.71 230.621 140.573 230.158 140.516L229.384 140.421L229.105 142.699L229.869 142.793ZM232.893 147.013L231.548 146.848C231.296 146.817 231.126 146.699 231.037 146.493L229.938 144.116C229.893 144.023 229.837 143.953 229.773 143.905C229.711 143.857 229.615 143.825 229.482 143.809L228.976 143.746L228.639 146.491L227.151 146.308L228.034 139.107L230.297 139.385C230.8 139.447 231.223 139.552 231.568 139.702C231.913 139.848 232.188 140.028 232.393 140.241C232.599 140.455 232.739 140.697 232.813 140.968C232.888 141.236 232.906 141.523 232.868 141.831C232.839 142.069 232.777 142.292 232.681 142.498C232.588 142.702 232.467 142.883 232.317 143.043C232.166 143.203 231.988 143.339 231.783 143.451C231.578 143.564 231.349 143.646 231.098 143.699C231.187 143.764 231.268 143.84 231.342 143.926C231.416 144.009 231.479 144.106 231.533 144.216L232.893 147.013ZM237.732 143.884L240.203 144.187L239.838 147.159C239.438 147.382 239.022 147.531 238.59 147.606C238.161 147.677 237.715 147.685 237.252 147.628C236.66 147.555 236.135 147.399 235.678 147.158C235.221 146.914 234.842 146.607 234.541 146.238C234.241 145.868 234.025 145.447 233.895 144.975C233.765 144.502 233.733 143.999 233.798 143.467C233.864 142.927 234.013 142.443 234.243 142.015C234.477 141.587 234.778 141.231 235.145 140.947C235.512 140.663 235.939 140.458 236.424 140.333C236.913 140.208 237.445 140.181 238.021 140.252C238.319 140.288 238.594 140.347 238.845 140.428C239.098 140.506 239.328 140.602 239.536 140.715C239.744 140.824 239.932 140.948 240.1 141.086C240.268 141.224 240.417 141.372 240.549 141.529L240.036 142.141C239.957 142.239 239.863 142.293 239.754 142.303C239.645 142.313 239.533 142.273 239.416 142.181C239.306 142.094 239.197 142.015 239.088 141.944C238.983 141.871 238.868 141.805 238.744 141.746C238.621 141.687 238.484 141.637 238.335 141.595C238.185 141.553 238.011 141.52 237.813 141.496C237.479 141.455 237.169 141.475 236.883 141.558C236.598 141.64 236.346 141.776 236.128 141.964C235.914 142.153 235.737 142.39 235.598 142.675C235.459 142.96 235.367 143.286 235.322 143.653C235.273 144.05 235.286 144.413 235.359 144.741C235.434 145.066 235.56 145.348 235.739 145.589C235.918 145.829 236.143 146.023 236.413 146.17C236.687 146.318 237 146.413 237.35 146.456C237.589 146.486 237.803 146.488 237.994 146.465C238.189 146.438 238.381 146.395 238.569 146.334L238.718 145.123L237.904 145.023C237.808 145.011 237.735 144.977 237.685 144.921C237.638 144.861 237.62 144.792 237.63 144.712L237.732 143.884ZM243.507 142.189L243.28 144.04L245.682 144.335L245.544 145.461L243.142 145.167L242.91 147.058L245.997 147.436L245.853 148.603L241.268 148.04L242.151 140.839L246.737 141.402L246.594 142.568L243.507 142.189ZM254.317 142.331L253.434 149.532L252.665 149.438C252.549 149.424 252.453 149.394 252.378 149.348C252.304 149.298 252.234 149.222 252.17 149.12L249.142 144.115C249.137 144.232 249.13 144.346 249.119 144.459C249.112 144.573 249.103 144.677 249.091 144.773L248.58 148.937L247.265 148.776L248.148 141.575L248.933 141.671C248.995 141.679 249.048 141.688 249.09 141.7C249.136 141.709 249.176 141.726 249.21 141.75C249.244 141.771 249.276 141.799 249.306 141.833C249.335 141.866 249.367 141.911 249.4 141.965L252.451 146.994C252.453 146.866 252.458 146.745 252.465 146.628C252.473 146.508 252.484 146.395 252.497 146.289L253.002 142.17L254.317 142.331Z" fill="#8D8FFF"/>
<path d="M130.042 132.452L129.893 133.663L125.62 133.139L126.504 125.938L127.993 126.121L127.258 132.111L130.042 132.452ZM138.281 131.035C138.216 131.561 138.067 132.038 137.833 132.466C137.603 132.895 137.305 133.253 136.941 133.541C136.58 133.829 136.161 134.039 135.685 134.172C135.209 134.302 134.694 134.333 134.142 134.265C133.589 134.197 133.098 134.043 132.667 133.802C132.237 133.558 131.88 133.252 131.596 132.885C131.312 132.518 131.108 132.098 130.985 131.626C130.864 131.155 130.837 130.656 130.901 130.13C130.966 129.604 131.113 129.128 131.343 128.703C131.577 128.275 131.876 127.917 132.241 127.629C132.605 127.341 133.025 127.133 133.501 127.003C133.978 126.87 134.492 126.837 135.045 126.905C135.597 126.973 136.088 127.129 136.519 127.373C136.949 127.614 137.305 127.92 137.585 128.29C137.869 128.657 138.071 129.077 138.191 129.548C138.315 130.017 138.345 130.512 138.281 131.035ZM136.757 130.848C136.803 130.471 136.795 130.127 136.733 129.817C136.67 129.504 136.558 129.232 136.395 129C136.235 128.766 136.028 128.577 135.774 128.435C135.523 128.29 135.229 128.197 134.891 128.156C134.554 128.115 134.244 128.134 133.962 128.213C133.681 128.29 133.433 128.422 133.218 128.611C133.007 128.796 132.834 129.034 132.698 129.323C132.562 129.608 132.471 129.94 132.425 130.317C132.378 130.697 132.386 131.044 132.448 131.357C132.511 131.667 132.622 131.938 132.782 132.169C132.945 132.401 133.153 132.589 133.408 132.734C133.662 132.876 133.958 132.968 134.296 133.01C134.633 133.051 134.941 133.033 135.219 132.957C135.501 132.877 135.747 132.744 135.958 132.559C136.172 132.373 136.347 132.138 136.483 131.852C136.619 131.563 136.711 131.229 136.757 130.848ZM146.276 128.364L145.393 135.565L144.623 135.47C144.508 135.456 144.412 135.426 144.337 135.38C144.263 135.33 144.193 135.255 144.128 135.153L141.1 130.147C141.096 130.264 141.089 130.379 141.078 130.492C141.071 130.605 141.062 130.71 141.05 130.805L140.539 134.969L139.224 134.808L140.107 127.607L140.891 127.703C140.954 127.711 141.007 127.721 141.049 127.733C141.095 127.742 141.135 127.758 141.169 127.782C141.203 127.803 141.235 127.831 141.264 127.865C141.294 127.899 141.325 127.943 141.359 127.997L144.409 133.026C144.412 132.899 144.417 132.777 144.424 132.66C144.432 132.54 144.443 132.427 144.456 132.321L144.961 128.202L146.276 128.364ZM151.152 132.548L153.624 132.852L153.259 135.824C152.859 136.047 152.443 136.196 152.01 136.271C151.582 136.342 151.136 136.35 150.673 136.293C150.08 136.22 149.556 136.064 149.098 135.823C148.641 135.579 148.262 135.272 147.962 134.903C147.661 134.533 147.446 134.112 147.316 133.639C147.186 133.167 147.153 132.664 147.219 132.131C147.285 131.592 147.433 131.108 147.664 130.68C147.898 130.252 148.198 129.896 148.565 129.612C148.933 129.328 149.359 129.123 149.845 128.998C150.334 128.873 150.866 128.846 151.441 128.917C151.739 128.953 152.014 129.012 152.266 129.093C152.518 129.171 152.749 129.267 152.956 129.38C153.165 129.489 153.353 129.613 153.52 129.751C153.688 129.889 153.838 130.037 153.97 130.194L153.456 130.806C153.377 130.904 153.283 130.958 153.175 130.968C153.066 130.978 152.953 130.937 152.837 130.846C152.727 130.759 152.617 130.68 152.508 130.609C152.403 130.536 152.289 130.47 152.165 130.411C152.041 130.352 151.905 130.302 151.755 130.26C151.606 130.218 151.432 130.185 151.233 130.161C150.899 130.12 150.589 130.14 150.304 130.223C150.018 130.305 149.767 130.441 149.549 130.629C149.334 130.818 149.158 131.054 149.018 131.34C148.879 131.625 148.787 131.951 148.742 132.318C148.694 132.715 148.706 133.078 148.78 133.406C148.854 133.731 148.981 134.013 149.16 134.254C149.338 134.494 149.563 134.688 149.834 134.835C150.108 134.983 150.42 135.078 150.771 135.121C151.009 135.15 151.224 135.153 151.415 135.13C151.609 135.103 151.801 135.06 151.99 134.999L152.139 133.788L151.325 133.688C151.229 133.676 151.156 133.642 151.106 133.586C151.059 133.526 151.041 133.457 151.05 133.377L151.152 132.548Z" fill="#8D8FFF"/>
<path d="M267.52 149.822L267.372 151.033L263.099 150.508L263.982 143.307L265.471 143.49L264.736 149.48L267.52 149.822ZM275.759 148.404C275.694 148.93 275.545 149.407 275.311 149.835C275.081 150.264 274.783 150.622 274.419 150.91C274.058 151.198 273.639 151.408 273.163 151.541C272.687 151.671 272.172 151.702 271.62 151.634C271.067 151.566 270.576 151.412 270.145 151.171C269.715 150.927 269.358 150.621 269.074 150.254C268.79 149.887 268.586 149.467 268.463 148.995C268.343 148.524 268.315 148.025 268.379 147.499C268.444 146.973 268.591 146.497 268.821 146.072C269.055 145.644 269.354 145.286 269.719 144.998C270.083 144.711 270.503 144.502 270.979 144.372C271.456 144.239 271.97 144.207 272.523 144.274C273.075 144.342 273.567 144.498 273.997 144.742C274.427 144.983 274.783 145.289 275.063 145.659C275.347 146.026 275.549 146.446 275.669 146.917C275.793 147.386 275.823 147.881 275.759 148.404ZM274.235 148.217C274.282 147.84 274.273 147.497 274.211 147.187C274.148 146.873 274.036 146.601 273.873 146.369C273.713 146.135 273.506 145.947 273.252 145.805C273.001 145.66 272.707 145.566 272.369 145.525C272.032 145.484 271.722 145.503 271.44 145.582C271.159 145.659 270.911 145.791 270.696 145.98C270.486 146.165 270.312 146.403 270.176 146.692C270.04 146.977 269.949 147.309 269.903 147.686C269.856 148.066 269.864 148.413 269.926 148.726C269.989 149.036 270.1 149.307 270.26 149.538C270.423 149.77 270.632 149.958 270.886 150.103C271.14 150.246 271.436 150.337 271.774 150.379C272.111 150.42 272.419 150.402 272.697 150.326C272.979 150.246 273.225 150.113 273.436 149.928C273.65 149.742 273.825 149.507 273.961 149.221C274.097 148.932 274.189 148.598 274.235 148.217ZM283.754 145.733L282.871 152.934L282.102 152.839C281.986 152.825 281.89 152.795 281.815 152.749C281.741 152.699 281.671 152.624 281.607 152.522L278.579 147.516C278.574 147.633 278.567 147.748 278.556 147.861C278.549 147.974 278.54 148.079 278.528 148.175L278.017 152.338L276.702 152.177L277.585 144.976L278.37 145.072C278.432 145.08 278.485 145.09 278.527 145.102C278.573 145.111 278.613 145.127 278.647 145.152C278.681 145.173 278.713 145.2 278.743 145.234C278.772 145.268 278.804 145.312 278.837 145.366L281.888 150.395C281.89 150.268 281.895 150.146 281.902 150.029C281.91 149.909 281.921 149.796 281.934 149.691L282.439 145.571L283.754 145.733ZM288.63 149.918L291.102 150.221L290.737 153.194C290.337 153.416 289.921 153.565 289.488 153.64C289.06 153.711 288.614 153.719 288.151 153.662C287.559 153.589 287.034 153.433 286.576 153.192C286.119 152.948 285.741 152.641 285.44 152.272C285.139 151.902 284.924 151.481 284.794 151.009C284.664 150.536 284.631 150.033 284.697 149.501C284.763 148.961 284.911 148.477 285.142 148.049C285.376 147.621 285.676 147.265 286.044 146.981C286.411 146.697 286.837 146.492 287.323 146.367C287.812 146.242 288.344 146.215 288.92 146.286C289.217 146.322 289.492 146.381 289.744 146.463C289.997 146.541 290.227 146.636 290.435 146.749C290.643 146.858 290.831 146.982 290.999 147.12C291.166 147.258 291.316 147.406 291.448 147.563L290.935 148.175C290.855 148.273 290.761 148.327 290.653 148.337C290.544 148.347 290.431 148.307 290.315 148.215C290.205 148.128 290.095 148.049 289.986 147.978C289.881 147.905 289.767 147.839 289.643 147.78C289.519 147.721 289.383 147.671 289.233 147.629C289.084 147.587 288.91 147.554 288.712 147.53C288.377 147.489 288.068 147.51 287.782 147.592C287.497 147.675 287.245 147.81 287.027 147.998C286.813 148.187 286.636 148.424 286.497 148.709C286.357 148.994 286.265 149.32 286.22 149.687C286.172 150.085 286.184 150.447 286.258 150.775C286.333 151.1 286.459 151.382 286.638 151.623C286.817 151.863 287.041 152.057 287.312 152.204C287.586 152.352 287.898 152.447 288.249 152.49C288.487 152.52 288.702 152.522 288.893 152.499C289.088 152.472 289.279 152.429 289.468 152.368L289.617 151.157L288.803 151.057C288.707 151.045 288.634 151.011 288.584 150.955C288.537 150.895 288.519 150.826 288.529 150.746L288.63 149.918Z" fill="#8D8FFF"/>
<path d="M31.0492 61.0841L48.5518 72.9161L29.5033 82.1543L31.0492 61.0841Z" fill="#C0C1FF"/>
<path d="M279.205 123.868L293.721 108.518L299.745 128.813L279.205 123.868Z" fill="#C0C1FF"/>
</svg>
