<svg width="284" height="232" viewBox="0 0 284 232" fill="none" xmlns="http://www.w3.org/2000/svg">
<path d="M37.7481 29.9223L0.952114 33.9797L15.9077 0.0322266L37.7481 29.9223Z" fill="#DFE5FF"/>
<path d="M142.069 128.214H106.549C104.81 128.214 103.4 126.804 103.4 125.064C103.4 123.325 104.81 121.915 106.549 121.915H142.069C143.809 121.915 145.218 123.325 145.218 125.064C145.218 126.804 143.808 128.214 142.069 128.214Z" fill="#7A7CFF"/>
<path d="M116.499 76.3022H89.9338C88.1941 76.3022 86.7844 74.8921 86.7844 73.1528C86.7844 71.4135 88.1941 70.0034 89.9338 70.0034H116.499C118.239 70.0034 119.648 71.4135 119.648 73.1528C119.648 74.8921 118.238 76.3022 116.499 76.3022Z" fill="#7A7CFF"/>
<path d="M123.737 102.258H72.1494C70.4097 102.258 69 100.848 69 99.1084C69 97.3691 70.4097 95.959 72.1494 95.959H123.737C125.477 95.959 126.886 97.3691 126.886 99.1084C126.886 100.848 125.476 102.258 123.737 102.258Z" fill="#7A7CFF"/>
<path d="M246.451 128.214H210.819C209.079 128.214 207.669 126.804 207.669 125.064C207.669 123.325 209.079 121.915 210.819 121.915H246.451C248.19 121.915 249.6 123.325 249.6 125.064C249.6 126.804 248.19 128.214 246.451 128.214Z" fill="#7A7CFF"/>
<path d="M263.066 76.3022H236.501C234.761 76.3022 233.352 74.8921 233.352 73.1528C233.352 71.4135 234.761 70.0034 236.501 70.0034H263.066C264.806 70.0034 266.215 71.4135 266.215 73.1528C266.215 74.8921 264.806 76.3022 263.066 76.3022Z" fill="#7A7CFF"/>
<path d="M280.851 102.258H229.263C227.523 102.258 226.114 100.848 226.114 99.1084C226.114 97.3691 227.523 95.959 229.263 95.959H280.851C282.59 95.959 284 97.3691 284 99.1084C284 100.848 282.59 102.258 280.851 102.258Z" fill="#7A7CFF"/>
<path d="M236.536 186.132H116.594L124.039 163.758C124.922 161.115 127.465 159.324 130.333 159.324H222.909C225.777 159.324 228.321 161.115 229.203 163.758L236.536 186.132Z" fill="#1F45EA"/>
<path d="M229.082 163.758C228.2 161.115 225.656 159.324 222.788 159.324H209.81C212.678 159.324 215.222 161.115 216.105 163.758L223.437 186.132H236.415L229.082 163.758Z" fill="#0026CA"/>
<path d="M227.546 232H125.454C120.198 232 115.937 227.739 115.937 222.483V189.605C115.937 184.349 120.198 180.088 125.454 180.088H227.547C232.803 180.088 237.064 184.349 237.064 189.605V222.483C237.063 227.739 232.802 232 227.546 232Z" fill="#A9DBF5"/>
<path d="M227.546 180.088H214.568C219.825 180.088 224.085 184.349 224.085 189.605V222.483C224.085 227.739 219.825 232 214.568 232H227.546C232.802 232 237.063 227.739 237.063 222.483V189.605C237.063 184.349 232.802 180.088 227.546 180.088Z" fill="#88C3E0"/>
<path d="M128.915 217.292V194.797C128.915 193.841 129.689 193.066 130.645 193.066H222.355C223.311 193.066 224.086 193.841 224.086 194.797V217.292C224.086 218.247 223.311 219.022 222.355 219.022H130.645C129.689 219.022 128.915 218.247 128.915 217.292Z" fill="#7A7CFF"/>
<path d="M148.811 206.91C145.227 206.91 142.322 204.005 142.322 200.42V193.066H155.299V200.42C155.3 204.004 152.395 206.91 148.811 206.91Z" fill="#21B6AF"/>
<path d="M170.443 206.91C166.86 206.91 163.954 204.005 163.954 200.42V193.066H176.932V200.42C176.932 204.004 174.027 206.91 170.443 206.91Z" fill="#21B6AF"/>
<path d="M176.5 17C169.738 17 147.682 47.4914 113.294 48.4706C112.352 48.4975 111.599 49.2727 111.611 50.2108C112.5 123.043 169.767 163.217 176.5 163.217C183.233 163.217 240.496 122.689 241.389 50.2108C241.401 49.2727 240.648 48.4971 239.706 48.4706C205.318 47.4914 183.262 17 176.5 17V17Z" fill="#F3F3F3"/>
<path d="M176.482 149.046C170.926 145.499 159.945 136.671 149.461 122.63C139.557 109.366 127.893 88.3434 125.168 60.6105C125.146 60.388 125.299 60.1851 125.518 60.1427C147.55 55.9108 163.785 42.5463 174.092 34.061C174.776 33.4987 175.508 32.8957 176.228 32.3099C176.387 32.1806 176.613 32.1806 176.773 32.3099C177.493 32.8957 178.225 33.4983 178.908 34.061C189.215 42.5455 205.448 55.9087 227.477 60.1415C227.697 60.1839 227.849 60.3867 227.828 60.6093C225.092 88.1977 213.436 109.206 203.538 122.49C193.025 136.598 182.036 145.478 176.482 149.046Z" fill="#21B6AF"/>
<path d="M227.477 60.1414C223.532 59.3835 219.777 58.3286 216.205 57.0659C212.221 91.2177 200.549 109.595 190.94 122.491C183.57 132.381 175.969 139.698 170.167 144.421C172.654 146.436 174.814 147.981 176.482 149.046C182.036 145.478 193.026 136.599 203.538 122.491C213.436 109.207 225.092 88.1981 227.828 60.6096C227.849 60.3867 227.697 60.1838 227.477 60.1414Z" fill="#14AAA3"/>
<path d="M185.985 98.0772C186.198 101.988 184.106 105.427 180.958 107.125C180.519 107.362 180.25 107.83 180.25 108.334V122.201C180.25 124.299 178.571 126 176.5 126C174.429 126 172.75 124.299 172.75 122.201V108.349C172.75 107.841 172.484 107.363 172.041 107.125C169.041 105.506 167 102.306 167 98.6236C167 93.2125 171.406 88.8458 176.783 89.0042C181.675 89.1483 185.715 93.1272 185.985 98.0772Z" fill="#2B6181"/>
<path d="M161.201 65.39C161.101 65.55 160.994 65.67 160.881 65.75C160.774 65.83 160.634 65.87 160.461 65.87C160.307 65.87 160.141 65.8233 159.961 65.73C159.787 65.63 159.587 65.52 159.361 65.4C159.141 65.28 158.887 65.1733 158.601 65.08C158.314 64.98 157.987 64.93 157.621 64.93C156.987 64.93 156.514 65.0667 156.201 65.34C155.894 65.6067 155.741 65.97 155.741 66.43C155.741 66.7233 155.834 66.9667 156.021 67.16C156.207 67.3533 156.451 67.52 156.751 67.66C157.057 67.8 157.404 67.93 157.791 68.05C158.184 68.1633 158.584 68.2933 158.991 68.44C159.397 68.58 159.794 68.7467 160.181 68.94C160.574 69.1333 160.921 69.38 161.221 69.68C161.527 69.98 161.774 70.3467 161.961 70.78C162.147 71.2067 162.241 71.7233 162.241 72.33C162.241 73.0033 162.124 73.6333 161.891 74.22C161.657 74.8067 161.317 75.32 160.871 75.76C160.431 76.1933 159.884 76.5367 159.231 76.79C158.584 77.0367 157.847 77.16 157.021 77.16C156.567 77.16 156.104 77.1133 155.631 77.02C155.164 76.9267 154.711 76.7967 154.271 76.63C153.831 76.4567 153.417 76.2533 153.031 76.02C152.644 75.7867 152.307 75.5267 152.021 75.24L153.021 73.66C153.101 73.5467 153.204 73.4533 153.331 73.38C153.464 73.3 153.607 73.26 153.761 73.26C153.961 73.26 154.161 73.3233 154.361 73.45C154.567 73.5767 154.797 73.7167 155.051 73.87C155.311 74.0233 155.607 74.1633 155.941 74.29C156.274 74.4167 156.667 74.48 157.121 74.48C157.734 74.48 158.211 74.3467 158.551 74.08C158.891 73.8067 159.061 73.3767 159.061 72.79C159.061 72.45 158.967 72.1733 158.781 71.96C158.594 71.7467 158.347 71.57 158.041 71.43C157.741 71.29 157.397 71.1667 157.011 71.06C156.624 70.9533 156.227 70.8367 155.821 70.71C155.414 70.5767 155.017 70.4167 154.631 70.23C154.244 70.0367 153.897 69.7867 153.591 69.48C153.291 69.1667 153.047 68.78 152.861 68.32C152.674 67.8533 152.581 67.28 152.581 66.6C152.581 66.0533 152.691 65.52 152.911 65C153.131 64.48 153.454 64.0167 153.881 63.61C154.307 63.2033 154.831 62.88 155.451 62.64C156.071 62.3933 156.781 62.27 157.581 62.27C158.027 62.27 158.461 62.3067 158.881 62.38C159.307 62.4467 159.711 62.55 160.091 62.69C160.471 62.8233 160.824 62.9867 161.151 63.18C161.484 63.3667 161.781 63.58 162.041 63.82L161.201 65.39ZM167.725 65.03V68.43H172.305V70.93H167.725V74.4H173.705V77H164.325V62.43H173.705V65.03H167.725ZM179.29 65.03V68.43H183.87V70.93H179.29V74.4H185.27V77H175.89V62.43H185.27V65.03H179.29ZM200.675 69.71C200.675 70.7633 200.491 71.7367 200.125 72.63C199.765 73.5167 199.255 74.2867 198.595 74.94C197.935 75.5867 197.138 76.0933 196.205 76.46C195.278 76.82 194.248 77 193.115 77H187.455V62.43H193.115C194.248 62.43 195.278 62.6133 196.205 62.98C197.138 63.3467 197.935 63.8533 198.595 64.5C199.255 65.1467 199.765 65.9167 200.125 66.81C200.491 67.6967 200.675 68.6633 200.675 69.71ZM197.215 69.71C197.215 68.99 197.121 68.34 196.935 67.76C196.748 67.18 196.478 66.69 196.125 66.29C195.778 65.8833 195.351 65.5733 194.845 65.36C194.338 65.14 193.761 65.03 193.115 65.03H190.855V74.4H193.115C193.761 74.4 194.338 74.2933 194.845 74.08C195.351 73.86 195.778 73.55 196.125 73.15C196.478 72.7433 196.748 72.25 196.935 71.67C197.121 71.09 197.215 70.4367 197.215 69.71Z" fill="#EAEAFC"/>
</svg>
