<svg width="215" height="215" viewBox="0 0 215 215" fill="none" xmlns="http://www.w3.org/2000/svg">
<path d="M73.0688 111.214H37.5493C35.8096 111.214 34.3999 109.804 34.3999 108.064C34.3999 106.325 35.8096 104.915 37.5493 104.915H73.0688C74.8086 104.915 76.2182 106.325 76.2182 108.064C76.2182 109.804 74.8082 111.214 73.0688 111.214Z" fill="#7A7CFF"/>
<path d="M47.4985 59.3022H20.9338C19.1941 59.3022 17.7844 57.8921 17.7844 56.1528C17.7844 54.4135 19.1941 53.0034 20.9338 53.0034H47.4989C49.2387 53.0034 50.6483 54.4135 50.6483 56.1528C50.6483 57.8921 49.2383 59.3022 47.4985 59.3022Z" fill="#7A7CFF"/>
<path d="M54.7368 85.2578H3.14941C1.40968 85.2578 0 83.8477 0 82.1084C0 80.3691 1.40968 78.959 3.14941 78.959H54.7368C56.4766 78.959 57.8862 80.3691 57.8862 82.1084C57.8862 83.8477 56.4761 85.2578 54.7368 85.2578Z" fill="#7A7CFF"/>
<path d="M177.451 111.214H141.819C140.079 111.214 138.669 109.804 138.669 108.064C138.669 106.325 140.079 104.915 141.819 104.915H177.451C179.19 104.915 180.6 106.325 180.6 108.064C180.6 109.804 179.19 111.214 177.451 111.214Z" fill="#7A7CFF"/>
<path d="M194.066 59.3022H167.501C165.761 59.3022 164.352 57.8921 164.352 56.1528C164.352 54.4135 165.761 53.0034 167.501 53.0034H194.066C195.806 53.0034 197.215 54.4135 197.215 56.1528C197.215 57.8921 195.806 59.3022 194.066 59.3022Z" fill="#7A7CFF"/>
<path d="M211.851 85.2578H160.263C158.523 85.2578 157.114 83.8477 157.114 82.1084C157.114 80.3691 158.523 78.959 160.263 78.959H211.851C213.59 78.959 215 80.3691 215 82.1084C215 83.8477 213.59 85.2578 211.851 85.2578Z" fill="#7A7CFF"/>
<path d="M167.536 169.132H47.5942L55.039 146.758C55.9217 144.115 58.4652 142.324 61.3332 142.324H153.909C156.777 142.324 159.321 144.115 160.203 146.758L167.536 169.132Z" fill="#1F45EA"/>
<path d="M160.082 146.758C159.2 144.115 156.656 142.324 153.788 142.324H140.81C143.678 142.324 146.222 144.115 147.105 146.758L154.437 169.132H167.415L160.082 146.758Z" fill="#0026CA"/>
<path d="M158.546 215H56.4539C51.1977 215 46.9368 210.739 46.9368 205.483V172.605C46.9368 167.349 51.1977 163.088 56.4539 163.088H158.547C163.803 163.088 168.064 167.349 168.064 172.605V205.483C168.063 210.739 163.802 215 158.546 215Z" fill="#A9DBF5"/>
<path d="M158.546 163.088H145.568C150.825 163.088 155.085 167.349 155.085 172.605V205.483C155.085 210.739 150.825 215 145.568 215H158.546C163.802 215 168.063 210.739 168.063 205.483V172.605C168.063 167.349 163.802 163.088 158.546 163.088Z" fill="#88C3E0"/>
<path d="M59.9146 200.292V177.797C59.9146 176.841 60.6893 176.066 61.645 176.066H153.355C154.311 176.066 155.086 176.841 155.086 177.797V200.292C155.086 201.247 154.311 202.022 153.355 202.022H61.645C60.6893 202.022 59.9146 201.247 59.9146 200.292Z" fill="#7A7CFF"/>
<path d="M79.8108 189.91C76.2272 189.91 73.3218 187.005 73.3218 183.42V176.066H86.2995V183.42C86.2999 187.004 83.3949 189.91 79.8108 189.91Z" fill="#21B6AF"/>
<path d="M101.443 189.91C97.8598 189.91 94.9543 187.005 94.9543 183.42V176.066H107.932V183.42C107.932 187.004 105.027 189.91 101.443 189.91Z" fill="#21B6AF"/>
<path d="M107.5 0C100.738 0 78.6816 30.4914 44.2938 31.4706C43.3519 31.4975 42.599 32.2727 42.6107 33.2108C43.4997 106.043 100.767 146.217 107.5 146.217C114.233 146.217 171.496 105.689 172.389 33.2108C172.401 32.2727 171.648 31.4971 170.706 31.4706C136.318 30.4914 114.262 0 107.5 0V0Z" fill="#F3F3F3"/>
<path d="M107.482 132.046C101.926 128.499 90.9447 119.671 80.4605 105.63C70.5566 92.366 58.8929 71.3434 56.1676 43.6105C56.1458 43.388 56.2986 43.1851 56.5182 43.1427C78.5499 38.9108 94.7849 25.5463 105.092 17.061C105.776 16.4987 106.508 15.8957 107.228 15.3099C107.387 15.1806 107.613 15.1806 107.773 15.3099C108.493 15.8957 109.225 16.4983 109.908 17.061C120.215 25.5455 136.448 38.9087 158.477 43.1415C158.697 43.1839 158.849 43.3867 158.828 43.6093C156.092 71.1977 144.436 92.2064 134.538 105.49C124.025 119.598 113.036 128.478 107.482 132.046Z" fill="#21B6AF"/>
<path d="M158.477 43.1414C154.532 42.3835 150.777 41.3286 147.205 40.0659C143.221 74.2177 131.549 92.5948 121.94 105.491C114.57 115.381 106.969 122.698 101.167 127.421C103.654 129.436 105.814 130.981 107.482 132.046C113.036 128.478 124.026 119.599 134.538 105.491C144.436 92.2068 156.092 71.1981 158.828 43.6096C158.849 43.3867 158.697 43.1838 158.477 43.1414Z" fill="#14AAA3"/>
<path d="M116.985 81.0772C117.198 84.9883 115.106 88.4274 111.958 90.1253C111.519 90.362 111.25 90.8304 111.25 91.3339V105.201C111.25 107.299 109.571 109 107.5 109C105.429 109 103.75 107.299 103.75 105.201V91.3489C103.75 90.841 103.484 90.3635 103.041 90.1246C100.041 88.5062 98 85.3062 98 81.6236C98 76.2125 102.406 71.8458 107.783 72.0042C112.675 72.1483 116.715 76.1272 116.985 81.0772Z" fill="#2B6181"/>
<path d="M92.2006 48.39C92.1006 48.55 91.994 48.67 91.8806 48.75C91.774 48.83 91.634 48.87 91.4606 48.87C91.3073 48.87 91.1406 48.8233 90.9606 48.73C90.7873 48.63 90.5873 48.52 90.3606 48.4C90.1406 48.28 89.8873 48.1733 89.6006 48.08C89.314 47.98 88.9873 47.93 88.6206 47.93C87.9873 47.93 87.514 48.0667 87.2006 48.34C86.894 48.6067 86.7406 48.97 86.7406 49.43C86.7406 49.7233 86.834 49.9667 87.0206 50.16C87.2073 50.3533 87.4506 50.52 87.7506 50.66C88.0573 50.8 88.404 50.93 88.7906 51.05C89.184 51.1633 89.584 51.2933 89.9906 51.44C90.3973 51.58 90.794 51.7467 91.1806 51.94C91.574 52.1333 91.9206 52.38 92.2206 52.68C92.5273 52.98 92.774 53.3467 92.9606 53.78C93.1473 54.2067 93.2406 54.7233 93.2406 55.33C93.2406 56.0033 93.124 56.6333 92.8906 57.22C92.6573 57.8067 92.3173 58.32 91.8706 58.76C91.4306 59.1933 90.884 59.5367 90.2306 59.79C89.584 60.0367 88.8473 60.16 88.0206 60.16C87.5673 60.16 87.104 60.1133 86.6306 60.02C86.164 59.9267 85.7106 59.7967 85.2706 59.63C84.8306 59.4567 84.4173 59.2533 84.0306 59.02C83.644 58.7867 83.3073 58.5267 83.0206 58.24L84.0206 56.66C84.1006 56.5467 84.204 56.4533 84.3306 56.38C84.464 56.3 84.6073 56.26 84.7606 56.26C84.9606 56.26 85.1606 56.3233 85.3606 56.45C85.5673 56.5767 85.7973 56.7167 86.0506 56.87C86.3106 57.0233 86.6073 57.1633 86.9406 57.29C87.274 57.4167 87.6673 57.48 88.1206 57.48C88.734 57.48 89.2106 57.3467 89.5506 57.08C89.8906 56.8067 90.0606 56.3767 90.0606 55.79C90.0606 55.45 89.9673 55.1733 89.7806 54.96C89.594 54.7467 89.3473 54.57 89.0406 54.43C88.7406 54.29 88.3973 54.1667 88.0106 54.06C87.624 53.9533 87.2273 53.8367 86.8206 53.71C86.414 53.5767 86.0173 53.4167 85.6306 53.23C85.244 53.0367 84.8973 52.7867 84.5906 52.48C84.2906 52.1667 84.0473 51.78 83.8606 51.32C83.674 50.8533 83.5806 50.28 83.5806 49.6C83.5806 49.0533 83.6906 48.52 83.9106 48C84.1306 47.48 84.454 47.0167 84.8806 46.61C85.3073 46.2033 85.8306 45.88 86.4506 45.64C87.0706 45.3933 87.7806 45.27 88.5806 45.27C89.0273 45.27 89.4606 45.3067 89.8806 45.38C90.3073 45.4467 90.7106 45.55 91.0906 45.69C91.4706 45.8233 91.824 45.9867 92.1506 46.18C92.484 46.3667 92.7806 46.58 93.0406 46.82L92.2006 48.39ZM98.7248 48.03V51.43H103.305V53.93H98.7248V57.4H104.705V60H95.3248V45.43H104.705V48.03H98.7248ZM110.29 48.03V51.43H114.87V53.93H110.29V57.4H116.27V60H106.89V45.43H116.27V48.03H110.29ZM131.675 52.71C131.675 53.7633 131.491 54.7367 131.125 55.63C130.765 56.5167 130.255 57.2867 129.595 57.94C128.935 58.5867 128.138 59.0933 127.205 59.46C126.278 59.82 125.248 60 124.115 60H118.455V45.43H124.115C125.248 45.43 126.278 45.6133 127.205 45.98C128.138 46.3467 128.935 46.8533 129.595 47.5C130.255 48.1467 130.765 48.9167 131.125 49.81C131.491 50.6967 131.675 51.6633 131.675 52.71ZM128.215 52.71C128.215 51.99 128.121 51.34 127.935 50.76C127.748 50.18 127.478 49.69 127.125 49.29C126.778 48.8833 126.351 48.5733 125.845 48.36C125.338 48.14 124.761 48.03 124.115 48.03H121.855V57.4H124.115C124.761 57.4 125.338 57.2933 125.845 57.08C126.351 56.86 126.778 56.55 127.125 56.15C127.478 55.7433 127.748 55.25 127.935 54.67C128.121 54.09 128.215 53.4367 128.215 52.71Z" fill="#EAEAFC"/>
</svg>
