<svg width="313" height="341" viewBox="0 0 313 341" fill="none" xmlns="http://www.w3.org/2000/svg">
<path d="M145.967 26.4621L156.725 25.5898L163.792 112.725L153.035 113.597L145.967 26.4621Z" fill="#DBDBDB"/>
<path d="M41.438 70.2295L48.0683 61.7124L127.701 123.705L121.07 132.222L41.438 70.2295Z" fill="#DBDBDB"/>
<path d="M40.4673 46.0076L137.126 11.8022L140.727 21.9768L44.0675 56.1821L40.4673 46.0076Z" fill="#DBDBDB"/>
<path d="M158.008 25.2193L162.604 15.4536L285.163 73.1299L280.567 82.8957L158.008 25.2193Z" fill="#DBDBDB"/>
<path d="M47.8794 65.4893L48.8555 54.7407L272.432 75.0486L271.456 85.7972L47.8794 65.4893Z" fill="#DBDBDB"/>
<path d="M286.666 93.4777L297.409 92.4409L303.684 157.439L292.941 158.476L286.666 93.4777Z" fill="#DBDBDB"/>
<path d="M204.253 161.372L205.124 150.614L291.184 157.574L290.314 168.331L204.253 161.372Z" fill="#DBDBDB"/>
<path d="M270.045 259.773L293.808 174.518L304.205 177.416L280.442 262.671L270.045 259.773Z" fill="#DBDBDB"/>
<path d="M168.65 289.362L264.57 263.705L267.359 274.131L171.439 299.789L168.65 289.362Z" fill="#DBDBDB"/>
<path d="M68.0085 272.98L284.437 165.225L289.248 174.887L72.8189 282.642L68.0085 272.98Z" fill="#DBDBDB"/>
<path d="M16.533 207.178L26.4694 202.962L57.8773 276.987L47.9409 281.203L16.533 207.178Z" fill="#DBDBDB"/>
<path d="M11.5593 186.129L26.9112 68.9492L37.6125 70.351L22.2607 187.531L11.5593 186.129Z" fill="#DBDBDB"/>
<path d="M26.5813 181.375L113.424 151.797L116.903 162.014L30.0607 191.591L26.5813 181.375Z" fill="#DBDBDB"/>
<path d="M63.6252 296.631L64.4179 285.867L149.992 292.169L149.199 302.933L63.6252 296.631Z" fill="#DBDBDB"/>
<path d="M158.2 286.83L276.276 97.1709L285.438 102.875L167.362 292.534L158.2 286.83Z" fill="#DBDBDB"/>
<path d="M23.6523 204.185L30.0938 195.524L154.803 288.28L148.362 296.94L23.6523 204.185Z" fill="#DBDBDB"/>
<path d="M14.0227 184.808L138.724 21.3291L147.306 27.8751L22.6046 191.354L14.0227 184.808Z" fill="#DBDBDB"/>
<path d="M186.316 193.41L193.697 185.535L267.719 254.92L260.338 262.795L186.316 193.41Z" fill="#DBDBDB"/>
<path d="M54.6846 273.773L123.952 179.351L132.655 185.735L63.3872 280.157L54.6846 273.773Z" fill="#DBDBDB"/>
<path d="M189.958 127.359L269.827 85.8052L274.684 95.519L195.355 137.072L189.958 127.359Z" fill="#DBDBDB"/>
<path d="M156.5 205.069C183.324 205.069 205.069 183.324 205.069 156.5C205.069 129.676 183.324 107.931 156.5 107.931C129.676 107.931 107.931 129.676 107.931 156.5C107.931 183.324 129.676 205.069 156.5 205.069Z" fill="#FDB62F"/>
<path d="M121.962 191.038C140.85 209.926 171.61 209.926 190.498 191.038C209.386 172.15 209.386 141.389 190.498 122.501L121.962 191.038Z" fill="#FFA12E"/>
<path d="M178.086 145.707C178.086 136.533 171.071 129.517 161.897 129.517V124.121H151.103V129.517H140.31C137.072 129.517 134.914 131.676 134.914 134.914V178.086C134.914 181.324 137.072 183.483 140.31 183.483H151.103V188.879H161.897V183.483C171.071 183.483 178.086 176.467 178.086 167.293C178.086 163.515 176.467 159.738 173.769 156.5C176.467 153.802 178.086 149.484 178.086 145.707ZM161.897 172.69H145.707V161.896H161.897C165.135 161.896 167.293 164.055 167.293 167.293C167.293 170.531 165.135 172.69 161.897 172.69ZM161.897 151.103H145.707V140.31H161.897C165.135 140.31 167.293 142.469 167.293 145.707C167.293 148.945 165.135 151.103 161.897 151.103Z" fill="#F46B27"/>
<path d="M151.103 32.3793C160.045 32.3793 167.293 25.131 167.293 16.1897C167.293 7.24836 160.045 0 151.103 0C142.162 0 134.914 7.24836 134.914 16.1897C134.914 25.131 142.162 32.3793 151.103 32.3793Z" fill="#21B6AF"/>
<path d="M16.1897 210.466C25.131 210.466 32.3793 203.217 32.3793 194.276C32.3793 185.335 25.131 178.086 16.1897 178.086C7.24836 178.086 0 185.335 0 194.276C0 203.217 7.24836 210.466 16.1897 210.466Z" fill="#21B6AF"/>
<path d="M286.017 102.535C294.959 102.535 302.207 95.2862 302.207 86.3449C302.207 77.4036 294.959 70.1553 286.017 70.1553C277.076 70.1553 269.828 77.4036 269.828 86.3449C269.828 95.2862 277.076 102.535 286.017 102.535Z" fill="#87CED9"/>
<path d="M37.7758 75.5517C46.7171 75.5517 53.9655 68.3033 53.9655 59.362C53.9655 50.4207 46.7171 43.1724 37.7758 43.1724C28.8345 43.1724 21.5862 50.4207 21.5862 59.362C21.5862 68.3033 28.8345 75.5517 37.7758 75.5517Z" fill="#87CED9"/>
<path d="M275.224 286.017C284.165 286.017 291.414 278.769 291.414 269.827C291.414 260.886 284.165 253.638 275.224 253.638C266.283 253.638 259.034 260.886 259.034 269.827C259.034 278.769 266.283 286.017 275.224 286.017Z" fill="#21B6AF"/>
<path d="M296.81 183.483C305.752 183.483 313 176.234 313 167.293C313 158.352 305.752 151.104 296.81 151.104C287.869 151.104 280.621 158.352 280.621 167.293C280.621 176.234 287.869 183.483 296.81 183.483Z" fill="#87CED9"/>
<path d="M59.362 302.207C68.3033 302.207 75.5517 294.959 75.5517 286.017C75.5517 277.076 68.3033 269.828 59.362 269.828C50.4207 269.828 43.1724 277.076 43.1724 286.017C43.1724 294.959 50.4207 302.207 59.362 302.207Z" fill="#21B6AF"/>
<path d="M156.5 341C173.345 341 187 327.569 187 311C187 294.431 173.345 281 156.5 281C139.655 281 126 294.431 126 311C126 327.569 139.655 341 156.5 341Z" fill="#1F45EA"/>
</svg>
