<svg width="328" height="188" viewBox="0 0 328 188" fill="none" xmlns="http://www.w3.org/2000/svg">
<path d="M164.967 27.8819C98.3611 13.4357 41.6315 -17.4028 8.62307 60.9262C-12.0496 121.767 39.0642 130.627 75.2709 128.41C376 110 267.417 197.843 305.594 171C330.44 153.53 330.923 62.5177 305.594 41.4774C276.354 17.1877 231.572 42.328 164.967 27.8819Z" fill="#C3CEFC"/>
<path d="M79.9089 76.7554C79.5089 76.9754 79.1189 77.1654 78.7389 77.3254C78.3589 77.4854 77.9689 77.6054 77.5689 77.6854C78.3689 77.8454 79.1489 78.1654 79.9089 78.6454L84.2889 81.2554L82.1289 84.8254L77.7489 82.2154C76.9489 81.7754 76.3089 81.2954 75.8289 80.7754C76.0689 81.4954 76.1889 82.2654 76.1889 83.0854V88.3354H71.8089V83.1454C71.8089 82.7254 71.8289 82.3154 71.8689 81.9154C71.9289 81.5154 72.0189 81.1354 72.1389 80.7754C71.8789 81.0554 71.5889 81.3154 71.2689 81.5554C70.9489 81.7754 70.6089 81.9954 70.2489 82.2154L65.8689 84.7654L63.7089 81.1954L68.0889 78.6454C68.8689 78.1854 69.6389 77.8654 70.3989 77.6854C70.0189 77.6254 69.6289 77.5154 69.2289 77.3554C68.8489 77.1754 68.4689 76.9754 68.0889 76.7554L63.7089 74.1454L65.8689 70.5454L70.2489 73.1854C71.0489 73.6254 71.6889 74.1054 72.1689 74.6254C71.9289 73.9054 71.8089 73.1354 71.8089 72.3154V67.0654H76.1889V72.2554C76.1889 72.6754 76.1589 73.0854 76.0989 73.4854C76.0589 73.8854 75.9789 74.2654 75.8589 74.6254C76.1189 74.3454 76.4089 74.0954 76.7289 73.8754C77.0489 73.6354 77.3889 73.4054 77.7489 73.1854L82.1289 70.6054L84.2889 74.2054L79.9089 76.7554Z" fill="#7A7CFF"/>
<path d="M153.66 76.7554C153.26 76.9754 152.87 77.1654 152.49 77.3254C152.11 77.4854 151.72 77.6054 151.32 77.6854C152.12 77.8454 152.9 78.1654 153.66 78.6454L158.04 81.2554L155.88 84.8254L151.5 82.2154C150.7 81.7754 150.06 81.2954 149.58 80.7754C149.82 81.4954 149.94 82.2654 149.94 83.0854V88.3354H145.56V83.1454C145.56 82.7254 145.58 82.3154 145.62 81.9154C145.68 81.5154 145.77 81.1354 145.89 80.7754C145.63 81.0554 145.34 81.3154 145.02 81.5554C144.7 81.7754 144.36 81.9954 144 82.2154L139.62 84.7654L137.46 81.1954L141.84 78.6454C142.62 78.1854 143.39 77.8654 144.15 77.6854C143.77 77.6254 143.38 77.5154 142.98 77.3554C142.6 77.1754 142.22 76.9754 141.84 76.7554L137.46 74.1454L139.62 70.5454L144 73.1854C144.8 73.6254 145.44 74.1054 145.92 74.6254C145.68 73.9054 145.56 73.1354 145.56 72.3154V67.0654H149.94V72.2554C149.94 72.6754 149.91 73.0854 149.85 73.4854C149.81 73.8854 149.73 74.2654 149.61 74.6254C149.87 74.3454 150.16 74.0954 150.48 73.8754C150.8 73.6354 151.14 73.4054 151.5 73.1854L155.88 70.6054L158.04 74.2054L153.66 76.7554Z" fill="#7A7CFF"/>
<path d="M227.411 76.7554C227.011 76.9754 226.621 77.1654 226.241 77.3254C225.861 77.4854 225.471 77.6054 225.071 77.6854C225.871 77.8454 226.651 78.1654 227.411 78.6454L231.791 81.2554L229.631 84.8254L225.251 82.2154C224.451 81.7754 223.811 81.2954 223.331 80.7754C223.571 81.4954 223.691 82.2654 223.691 83.0854V88.3354H219.311V83.1454C219.311 82.7254 219.331 82.3154 219.371 81.9154C219.431 81.5154 219.521 81.1354 219.641 80.7754C219.381 81.0554 219.091 81.3154 218.771 81.5554C218.451 81.7754 218.111 81.9954 217.751 82.2154L213.371 84.7654L211.211 81.1954L215.591 78.6454C216.371 78.1854 217.141 77.8654 217.901 77.6854C217.521 77.6254 217.131 77.5154 216.731 77.3554C216.351 77.1754 215.971 76.9754 215.591 76.7554L211.211 74.1454L213.371 70.5454L217.751 73.1854C218.551 73.6254 219.191 74.1054 219.671 74.6254C219.431 73.9054 219.311 73.1354 219.311 72.3154V67.0654H223.691V72.2554C223.691 72.6754 223.661 73.0854 223.601 73.4854C223.561 73.8854 223.481 74.2654 223.361 74.6254C223.621 74.3454 223.911 74.0954 224.231 73.8754C224.551 73.6354 224.891 73.4054 225.251 73.1854L229.631 70.6054L231.791 74.2054L227.411 76.7554Z" fill="#7A7CFF"/>
<path d="M116.66 76.7554C116.26 76.9754 115.87 77.1654 115.49 77.3254C115.11 77.4854 114.72 77.6054 114.32 77.6854C115.12 77.8454 115.9 78.1654 116.66 78.6454L121.04 81.2554L118.88 84.8254L114.5 82.2154C113.7 81.7754 113.06 81.2954 112.58 80.7754C112.82 81.4954 112.94 82.2654 112.94 83.0854V88.3354H108.56V83.1454C108.56 82.7254 108.58 82.3154 108.62 81.9154C108.68 81.5154 108.77 81.1354 108.89 80.7754C108.63 81.0554 108.34 81.3154 108.02 81.5554C107.7 81.7754 107.36 81.9954 107 82.2154L102.62 84.7654L100.46 81.1954L104.84 78.6454C105.62 78.1854 106.39 77.8654 107.15 77.6854C106.77 77.6254 106.38 77.5154 105.98 77.3554C105.6 77.1754 105.22 76.9754 104.84 76.7554L100.46 74.1454L102.62 70.5454L107 73.1854C107.8 73.6254 108.44 74.1054 108.92 74.6254C108.68 73.9054 108.56 73.1354 108.56 72.3154V67.0654H112.94V72.2554C112.94 72.6754 112.91 73.0854 112.85 73.4854C112.81 73.8854 112.73 74.2654 112.61 74.6254C112.87 74.3454 113.16 74.0954 113.48 73.8754C113.8 73.6354 114.14 73.4054 114.5 73.1854L118.88 70.6054L121.04 74.2054L116.66 76.7554Z" fill="#7A7CFF"/>
<path d="M190.411 76.7554C190.011 76.9754 189.621 77.1654 189.241 77.3254C188.861 77.4854 188.471 77.6054 188.071 77.6854C188.871 77.8454 189.651 78.1654 190.411 78.6454L194.791 81.2554L192.631 84.8254L188.251 82.2154C187.451 81.7754 186.811 81.2954 186.331 80.7754C186.571 81.4954 186.691 82.2654 186.691 83.0854V88.3354H182.311V83.1454C182.311 82.7254 182.331 82.3154 182.371 81.9154C182.431 81.5154 182.521 81.1354 182.641 80.7754C182.381 81.0554 182.091 81.3154 181.771 81.5554C181.451 81.7754 181.111 81.9954 180.751 82.2154L176.371 84.7654L174.211 81.1954L178.591 78.6454C179.371 78.1854 180.141 77.8654 180.901 77.6854C180.521 77.6254 180.131 77.5154 179.731 77.3554C179.351 77.1754 178.971 76.9754 178.591 76.7554L174.211 74.1454L176.371 70.5454L180.751 73.1854C181.551 73.6254 182.191 74.1054 182.671 74.6254C182.431 73.9054 182.311 73.1354 182.311 72.3154V67.0654H186.691V72.2554C186.691 72.6754 186.661 73.0854 186.601 73.4854C186.561 73.8854 186.481 74.2654 186.361 74.6254C186.621 74.3454 186.911 74.0954 187.231 73.8754C187.551 73.6354 187.891 73.4054 188.251 73.1854L192.631 70.6054L194.791 74.2054L190.411 76.7554Z" fill="#7A7CFF"/>
<path d="M264.162 76.7554C263.762 76.9754 263.372 77.1654 262.992 77.3254C262.612 77.4854 262.222 77.6054 261.822 77.6854C262.622 77.8454 263.402 78.1654 264.162 78.6454L268.542 81.2554L266.382 84.8254L262.002 82.2154C261.202 81.7754 260.562 81.2954 260.082 80.7754C260.322 81.4954 260.442 82.2654 260.442 83.0854V88.3354H256.062V83.1454C256.062 82.7254 256.082 82.3154 256.122 81.9154C256.182 81.5154 256.272 81.1354 256.392 80.7754C256.132 81.0554 255.842 81.3154 255.522 81.5554C255.202 81.7754 254.862 81.9954 254.502 82.2154L250.122 84.7654L247.962 81.1954L252.342 78.6454C253.122 78.1854 253.892 77.8654 254.652 77.6854C254.272 77.6254 253.882 77.5154 253.482 77.3554C253.102 77.1754 252.722 76.9754 252.342 76.7554L247.962 74.1454L250.122 70.5454L254.502 73.1854C255.302 73.6254 255.942 74.1054 256.422 74.6254C256.182 73.9054 256.062 73.1354 256.062 72.3154V67.0654H260.442V72.2554C260.442 72.6754 260.412 73.0854 260.352 73.4854C260.312 73.8854 260.232 74.2654 260.112 74.6254C260.372 74.3454 260.662 74.0954 260.982 73.8754C261.302 73.6354 261.642 73.4054 262.002 73.1854L266.382 70.6054L268.542 74.2054L264.162 76.7554Z" fill="#7A7CFF"/>
</svg>
