<svg width="83" height="83" viewBox="0 0 83 83" fill="none" xmlns="http://www.w3.org/2000/svg">
<g clip-path="url(#clip0)">
<path d="M76.5785 10.45L41.998 0.075861C41.675 -0.025287 41.3286 -0.025287 41.0055 0.075861L6.42508 10.45C5.69273 10.6687 5.19071 11.3422 5.19055 12.1065V50.1451C5.19055 65.4332 28.5047 79.0337 40.9883 82.9204C41.326 83.0266 41.6881 83.0266 42.0257 82.9204C54.4955 79.0335 77.8096 65.433 77.8096 50.1451V12.1065C77.8099 11.3432 77.3095 10.67 76.5785 10.45Z" fill="#2196F3"/>
<path d="M41.5001 72.9784C52.0041 72.9784 60.5193 64.4632 60.5193 53.9592C60.5193 43.4551 52.0041 34.9399 41.5001 34.9399C30.996 34.9399 22.4808 43.4551 22.4808 53.9592C22.4808 64.4632 30.996 72.9784 41.5001 72.9784Z" fill="#1976D2"/>
<path d="M29.3161 18.4209C29.2411 18.5409 29.1611 18.6309 29.0761 18.6909C28.9961 18.7509 28.8911 18.7809 28.7611 18.7809C28.6461 18.7809 28.5211 18.7459 28.3861 18.6759C28.2561 18.6009 28.1061 18.5184 27.9361 18.4284C27.7711 18.3384 27.5811 18.2584 27.3661 18.1884C27.1511 18.1134 26.9061 18.0759 26.6311 18.0759C26.1561 18.0759 25.8011 18.1784 25.5661 18.3834C25.3361 18.5834 25.2211 18.8559 25.2211 19.2009C25.2211 19.4209 25.2911 19.6034 25.4311 19.7484C25.5711 19.8934 25.7536 20.0184 25.9786 20.1234C26.2086 20.2284 26.4686 20.3259 26.7586 20.4159C27.0536 20.5009 27.3536 20.5984 27.6586 20.7084C27.9636 20.8134 28.2611 20.9384 28.5511 21.0834C28.8461 21.2284 29.1061 21.4134 29.3311 21.6384C29.5611 21.8634 29.7461 22.1384 29.8861 22.4634C30.0261 22.7834 30.0961 23.1709 30.0961 23.6259C30.0961 24.1309 30.0086 24.6034 29.8336 25.0434C29.6586 25.4834 29.4036 25.8684 29.0686 26.1984C28.7386 26.5234 28.3286 26.7809 27.8386 26.9709C27.3536 27.1559 26.8011 27.2484 26.1811 27.2484C25.8411 27.2484 25.4936 27.2134 25.1386 27.1434C24.7886 27.0734 24.4486 26.9759 24.1186 26.8509C23.7886 26.7209 23.4786 26.5684 23.1886 26.3934C22.8986 26.2184 22.6461 26.0234 22.4311 25.8084L23.1811 24.6234C23.2411 24.5384 23.3186 24.4684 23.4136 24.4134C23.5136 24.3534 23.6211 24.3234 23.7361 24.3234C23.8861 24.3234 24.0361 24.3709 24.1861 24.4659C24.3411 24.5609 24.5136 24.6659 24.7036 24.7809C24.8986 24.8959 25.1211 25.0009 25.3711 25.0959C25.6211 25.1909 25.9161 25.2384 26.2561 25.2384C26.7161 25.2384 27.0736 25.1384 27.3286 24.9384C27.5836 24.7334 27.7111 24.4109 27.7111 23.9709C27.7111 23.7159 27.6411 23.5084 27.5011 23.3484C27.3611 23.1884 27.1761 23.0559 26.9461 22.9509C26.7211 22.8459 26.4636 22.7534 26.1736 22.6734C25.8836 22.5934 25.5861 22.5059 25.2811 22.4109C24.9761 22.3109 24.6786 22.1909 24.3886 22.0509C24.0986 21.9059 23.8386 21.7184 23.6086 21.4884C23.3836 21.2534 23.2011 20.9634 23.0611 20.6184C22.9211 20.2684 22.8511 19.8384 22.8511 19.3284C22.8511 18.9184 22.9336 18.5184 23.0986 18.1284C23.2636 17.7384 23.5061 17.3909 23.8261 17.0859C24.1461 16.7809 24.5386 16.5384 25.0036 16.3584C25.4686 16.1734 26.0011 16.0809 26.6011 16.0809C26.9361 16.0809 27.2611 16.1084 27.5761 16.1634C27.8961 16.2134 28.1986 16.2909 28.4836 16.3959C28.7686 16.4959 29.0336 16.6184 29.2786 16.7634C29.5286 16.9034 29.7511 17.0634 29.9461 17.2434L29.3161 18.4209ZM34.2092 18.1509V20.7009H37.6442V22.5759H34.2092V25.1784H38.6942V27.1284H31.6592V16.2009H38.6942V18.1509H34.2092ZM42.8828 18.1509V20.7009H46.3178V22.5759H42.8828V25.1784H47.3678V27.1284H40.3328V16.2009H47.3678V18.1509H42.8828ZM58.9215 21.6609C58.9215 22.4509 58.784 23.1809 58.509 23.8509C58.239 24.5159 57.8565 25.0934 57.3615 25.5834C56.8665 26.0684 56.269 26.4484 55.569 26.7234C54.874 26.9934 54.1015 27.1284 53.2515 27.1284H49.0065V16.2009H53.2515C54.1015 16.2009 54.874 16.3384 55.569 16.6134C56.269 16.8884 56.8665 17.2684 57.3615 17.7534C57.8565 18.2384 58.239 18.8159 58.509 19.4859C58.784 20.1509 58.9215 20.8759 58.9215 21.6609ZM56.3265 21.6609C56.3265 21.1209 56.2565 20.6334 56.1165 20.1984C55.9765 19.7634 55.774 19.3959 55.509 19.0959C55.249 18.7909 54.929 18.5584 54.549 18.3984C54.169 18.2334 53.7365 18.1509 53.2515 18.1509H51.5565V25.1784H53.2515C53.7365 25.1784 54.169 25.0984 54.549 24.9384C54.929 24.7734 55.249 24.5409 55.509 24.2409C55.774 23.9359 55.9765 23.5659 56.1165 23.1309C56.2565 22.6959 56.3265 22.2059 56.3265 21.6609Z" fill="#EAEAFC"/>
<path d="M40.6439 58.0807V59.7607H34.4189V58.0807H36.5189V52.5682C36.5189 52.4282 36.5214 52.2882 36.5264 52.1482C36.5314 52.0032 36.5389 51.8582 36.5489 51.7132L35.3039 52.7482C35.1939 52.8332 35.0839 52.8857 34.9739 52.9057C34.8689 52.9207 34.7689 52.9207 34.6739 52.9057C34.5789 52.8857 34.4939 52.8532 34.4189 52.8082C34.3439 52.7582 34.2889 52.7082 34.2539 52.6582L33.5189 51.6832L36.9239 48.8257H38.8439V58.0807H40.6439ZM48.8576 57.6607C49.1076 57.6607 49.3051 57.7307 49.4501 57.8707C49.5951 58.0057 49.6676 58.1857 49.6676 58.4107V59.7607H41.9876V59.0107C41.9876 58.8657 42.0176 58.7107 42.0776 58.5457C42.1376 58.3807 42.2426 58.2307 42.3926 58.0957L45.5426 54.9232C45.8126 54.6532 46.0476 54.3957 46.2476 54.1507C46.4476 53.9057 46.6126 53.6657 46.7426 53.4307C46.8726 53.1907 46.9701 52.9532 47.0351 52.7182C47.1001 52.4782 47.1326 52.2257 47.1326 51.9607C47.1326 51.5257 47.0276 51.1932 46.8176 50.9632C46.6126 50.7282 46.2976 50.6107 45.8726 50.6107C45.5276 50.6107 45.2351 50.7032 44.9951 50.8882C44.7601 51.0682 44.5976 51.2932 44.5076 51.5632C44.4026 51.8382 44.2651 52.0207 44.0951 52.1107C43.9251 52.2007 43.6826 52.2207 43.3676 52.1707L42.1376 51.9532C42.2176 51.4082 42.3701 50.9332 42.5951 50.5282C42.8251 50.1232 43.1076 49.7857 43.4426 49.5157C43.7826 49.2457 44.1701 49.0457 44.6051 48.9157C45.0401 48.7807 45.5076 48.7132 46.0076 48.7132C46.5476 48.7132 47.0326 48.7932 47.4626 48.9532C47.8976 49.1082 48.2676 49.3257 48.5726 49.6057C48.8776 49.8857 49.1101 50.2207 49.2701 50.6107C49.4351 50.9957 49.5176 51.4207 49.5176 51.8857C49.5176 52.2857 49.4601 52.6557 49.3451 52.9957C49.2351 53.3357 49.0826 53.6607 48.8876 53.9707C48.6926 54.2757 48.4651 54.5732 48.2051 54.8632C47.9501 55.1482 47.6776 55.4382 47.3876 55.7332L45.2501 57.9232C45.5251 57.8382 45.7976 57.7732 46.0676 57.7282C46.3376 57.6832 46.5876 57.6607 46.8176 57.6607H48.8576Z" fill="#EAEAFC"/>
</g>
<defs>
<clipPath id="clip0">
<rect width="83" height="83" fill="white"/>
</clipPath>
</defs>
</svg>
