<svg width="77" height="106" viewBox="0 0 77 106" fill="none" xmlns="http://www.w3.org/2000/svg">
<path d="M30.7682 0L45.9943 26.4851H15.5417L30.7682 0Z" fill="white"/>
<path d="M15.5417 26.4851L30.7682 52.9704H0.31543L15.5417 26.4851Z" fill="white"/>
<path d="M45.9947 26.4851L61.2211 52.9704H30.7683L45.9947 26.4851Z" fill="white"/>
<path d="M61.221 52.9704L76.4471 26.4851H45.9946L61.221 52.9704Z" fill="#7A7CFF"/>
<path d="M11.2051 81.6985C11.2051 83.4365 10.8121 84.8195 10.0261 85.8472C9.24713 86.8749 8.17254 87.3887 6.80234 87.3887C5.48083 87.3887 4.45142 86.9162 3.71415 85.9712L3.58896 87.1818H1.2937V71.2908H3.82893V77.0636C4.55925 76.2084 5.54343 75.7808 6.78147 75.7808C8.15862 75.7808 9.24018 76.2877 10.0261 77.3016C10.8121 78.3155 11.2051 79.7327 11.2051 81.5536V81.6985ZM8.66984 81.4811C8.66984 80.2672 8.45424 79.357 8.02301 78.75C7.59175 78.143 6.96579 77.8394 6.14506 77.8394C5.0461 77.8394 4.27408 78.3155 3.82893 79.2671V83.8814C4.28102 84.854 5.06002 85.3403 6.16592 85.3403C6.95884 85.3403 7.57089 85.0471 8.00215 84.4608C8.43338 83.8745 8.65592 82.9882 8.66984 81.8018V81.4811Z" fill="white"/>
<path d="M16.1959 87.1818H13.6607V75.9877H16.1959V87.1818ZM13.5042 73.0805C13.5042 72.6942 13.6259 72.3735 13.8693 72.1184C14.1197 71.863 14.4744 71.7354 14.9335 71.7354C15.3925 71.7354 15.7473 71.863 15.9977 72.1184C16.248 72.3735 16.3732 72.6942 16.3732 73.0805C16.3732 73.4599 16.248 73.777 15.9977 74.0324C15.7473 74.2806 15.3925 74.4046 14.9335 74.4046C14.4744 74.4046 14.1197 74.2806 13.8693 74.0324C13.6259 73.777 13.5042 73.4599 13.5042 73.0805Z" fill="white"/>
<path d="M22.303 73.2667V75.9877H24.2957V77.8499H22.303V84.0988C22.303 84.5264 22.3864 84.8366 22.5533 85.0297C22.7272 85.216 23.0333 85.3091 23.4715 85.3091C23.7636 85.3091 24.0592 85.2747 24.3583 85.2058V87.1506C23.781 87.3093 23.2245 87.3887 22.689 87.3887C20.7415 87.3887 19.7677 86.323 19.7677 84.1919V77.8499H17.9106V75.9877H19.7677V73.2667H22.303Z" fill="white"/>
<path d="M32.7293 84.1401C32.7293 83.6919 32.5415 83.3502 32.1658 83.1158C31.7974 82.8813 31.1817 82.6744 30.3193 82.495C29.4568 82.3157 28.7369 82.0881 28.1597 81.8123C26.8938 81.2054 26.2608 80.3259 26.2608 79.174C26.2608 78.2086 26.6712 77.4016 27.4919 76.7531C28.3127 76.1048 29.356 75.7808 30.6219 75.7808C31.9711 75.7808 33.0596 76.1117 33.8873 76.774C34.7219 77.4361 35.1392 78.2949 35.1392 79.3501H32.604C32.604 78.8671 32.4234 78.467 32.0616 78.1499C31.6999 77.8256 31.2201 77.6636 30.6219 77.6636C30.0654 77.6636 29.6098 77.7912 29.2551 78.0463C28.9073 78.3017 28.7335 78.6431 28.7335 79.0707C28.7335 79.457 28.8969 79.757 29.2238 79.9708C29.5507 80.1846 30.2115 80.4017 31.2062 80.6224C32.2006 80.8365 32.9796 81.0949 33.5431 81.3985C34.1135 81.6949 34.5341 82.0537 34.8056 82.4744C35.0837 82.8951 35.2229 83.4056 35.2229 84.0057C35.2229 85.0127 34.8019 85.8298 33.9604 86.4574C33.1188 87.0782 32.0164 87.3887 30.653 87.3887C29.7281 87.3887 28.9039 87.2231 28.1805 86.8919C27.4571 86.5611 26.8938 86.1056 26.4904 85.5265C26.0869 84.9471 25.8853 84.3228 25.8853 83.6538H28.3474C28.3822 84.247 28.6082 84.7058 29.0256 85.0297C29.4429 85.3471 29.9958 85.5058 30.6844 85.5058C31.352 85.5058 31.8599 85.3816 32.2075 85.1333C32.5554 84.8779 32.7293 84.5471 32.7293 84.1401Z" fill="white"/>
<path d="M47.5165 83.7158L49.311 75.9877H51.7835L48.7059 87.1818H46.6193L44.1988 79.4947L41.82 87.1818H39.7334L36.6453 75.9877H39.118L40.9437 83.6332L43.2597 75.9877H45.169L47.5165 83.7158Z" fill="white"/>
<path d="M60.3844 87.1818C60.273 86.968 60.1757 86.6194 60.0921 86.1368C59.2852 86.9713 58.2978 87.3887 57.1292 87.3887C55.9954 87.3887 55.0705 87.068 54.3539 86.4266C53.6377 85.7849 53.2795 84.9917 53.2795 84.047C53.2795 82.8538 53.7246 81.9399 54.6148 81.3054C55.5122 80.664 56.7919 80.3433 58.4542 80.3433H60.0087V79.6085C60.0087 79.0294 59.8454 78.567 59.5184 78.2224C59.1913 77.8706 58.6943 77.6948 58.0264 77.6948C57.449 77.6948 56.9761 77.8394 56.6075 78.1293C56.2391 78.4119 56.0546 78.7739 56.0546 79.2156H53.5193C53.5193 78.6018 53.7246 78.0293 54.135 77.4981C54.5454 76.96 55.1019 76.5393 55.8042 76.2359C56.5135 75.9323 57.3032 75.7808 58.1725 75.7808C59.4939 75.7808 60.5477 76.1117 61.3337 76.774C62.1197 77.4292 62.5232 78.3532 62.544 79.5465V84.5953C62.544 85.6023 62.6865 86.4056 62.9716 87.0057V87.1818H60.3844ZM57.5988 85.3711C58.0994 85.3711 58.569 85.2504 59.0071 85.0091C59.4522 84.7677 59.7862 84.4434 60.0087 84.0365V81.9261H58.6421C57.703 81.9261 56.997 82.0881 56.5241 82.4124C56.0512 82.7364 55.8145 83.1951 55.8145 83.7883C55.8145 84.271 55.9745 84.6572 56.2946 84.9471C56.6213 85.2298 57.0562 85.3711 57.5988 85.3711Z" fill="white"/>
<path d="M75.2445 81.6985C75.2445 83.4296 74.848 84.8127 74.0551 85.8472C73.2621 86.8749 72.198 87.3887 70.8624 87.3887C69.6244 87.3887 68.6334 86.9851 67.889 86.1781V91.4856H65.3538V75.9877H67.6909L67.7951 77.1256C68.5394 76.229 69.5513 75.7808 70.8313 75.7808C72.2083 75.7808 73.2866 76.291 74.0653 77.3118C74.8513 78.3257 75.2445 79.7363 75.2445 81.5434V81.6985ZM72.7195 81.4811C72.7195 80.3639 72.4936 79.4776 72.0416 78.8225C71.5962 78.167 70.9563 77.8394 70.1217 77.8394C69.0854 77.8394 68.3414 78.2637 67.889 79.112V84.0778C68.3483 84.9471 69.0993 85.3816 70.1426 85.3816C70.9494 85.3816 71.579 85.0609 72.031 84.4195C72.49 83.7709 72.7195 82.7918 72.7195 81.4811Z" fill="white"/>
</svg>
